<?xml version="1.0" encoding="UTF-8"?>
<svg id="Ebene_2" data-name="Ebene 2" xmlns="http://www.w3.org/2000/svg" viewBox="0 0 585.6 519.6">
	<defs>
		<style>
			.cls-1 {
				fill: #8bf0f4;
			}

			.cls-2 {
				fill: #fe4e43;
			}

			.cls-3 {
				fill: #fd4e43;
			}

			.cls-4 {
				fill: #787e7e;
			}

			.cls-5 {
				fill: #e8eeee;
			}

			.cls-6 {
				fill: #c8d3d3;
			}

			.cls-7 {
				fill: #549093;
			}

			.cls-8 {
				fill: #ffc8c5;
			}

			.cls-9 {
				fill: #d8f8f9;
			}

			.cls-10 {
				fill: #992f28;
			}

			.cls-11 {
				fill: #ff4e43;
			}

			.cls-12 {
				fill: #972e27;
			}

			.cls-13 {
				fill: #f8c3c0;
			}

			.cls-14 {
				fill: #cdcdcd;
			}

			.cls-15 {
				fill: #8ceff3;
			}

			.cls-16 {
				fill: #4d1b18;
			}

			.cls-17 {
				fill: #982f28;
			}

			.cls-18 {
				fill: #fbb5b1;
			}

			.cls-19 {
				fill: #fcfcfc;
			}

			.cls-20 {
				fill: #feffff;
			}

			.cls-21 {
				fill: #080605;
			}
		</style>
	</defs>
	<g id="Ebene_1-2" data-name="Ebene 1">
		<g>
			<path class="cls-16"
				  d="M0,201.02c6.32-30.52,34.22-55.49,65.5-57.59,19.69-1.32,38.15,4.51,57.14,4.86,4.3.08,10.05-1.07,14.37-1.01,2.39.03,7.42,1.57,9.12,1.43.44-.03,6.7-3.56,6.88-3.92.55-1.14,1.69-12.97,2.25-15.75,6.92-34.18,21.96-81.74,39.23-111.91,2.97-5.18,14.49-25.59,19.96-13.2l-28.7,128.48,121.43-51.1c6.74-1.49,3.59,3.94,2.02,7.29-16.71,35.42-75.03,66.71-110.37,80.16-3.29,1.25-21.58,6.66-22.55,7.45-.47.38-4.1,8.48-5.91,10.65-1.61,1.94-7.51,5.78-7.66,6.26-.12.38,5.26,1.36,4.09,6.01-5.58,11.54-13.41,23.47-17.76,35.5-3.15,8.72-3.44,18.15-6.89,26.7-1.42,3.53-10.39,17.3-10.53,18.69-.04.36,1.58,6.51,1.86,7.07,3.91,7.91,17.01,15.98,24.89,19.74.91.43,4.54,2.51,5.31,1.96.59-.43,3.58-11.67,4.42-13.84,49.96-127.9,255.32-100.77,290.24,28.22.42,1.55,2.05,12.12,2.67,12.19,1.73.17,12.77-3.63,15.12-4.56,15.18-5.96,18.89-10.56,26.69-24.18,1.32-2.31,3.65-3.44,3.57-6.5-35.91-8.41-66.04-41.84-51.38-80.15,1.72-4.5,5.05-13.65,11.05-11.03,3.94,1.72,3.94,6.57,4.91,7.33.39.31,7.9,1.37,9.75,2.01,4.77,1.65,8.6,5.09,11.45,9.18,1.07,1.53,3.74,7.88,4.13,8.11,1,.59,3.27-7.36,3.37-8.38.55-5.71-3.35-12.69-2.8-15.26,1-4.71,5.9-1.51,6.14-1.79.62-.75-3.31-9.17-4.06-10.56-3.64-6.69-8.62-11.71-15.29-15.42-12.11-6.73-25.35-6.54-5.37-19.6,47.85-31.31,104.27,2.95,106.81,56.63.04.8-.02,1.6,0,2.4.02.65-.23,1.54.48,1.92v8.64c-.77.49-.47,1.63-.48,2.4,0,.64.03,1.28,0,1.92-.77,16.22-11.16,35.5-22.32,47.02-1.89,1.95-10.4,7.65-10.7,8.25-.54,1.08.05,8.12-.32,10.48-.91,5.73-6.53,10.26-6.91,11.84-.27,1.11.59,2.45.45,3.72-.73,6.61-10.13,18.22-14.68,23.28-8.74,9.72-17.24,14.95-27.38,22.05-10.86,7.6-25.27,11.16-38.39,12.48-1.13.11-6.18-.19-6.45.04-.32.27-2.26,7.85-1.95,8.13.67.6,15.41,2.03,17.89,2.51,1.27.25,1.88,1.56,2.63,1.73,4.32.99,6.61-.38,12.59,2.25,19.18,8.43,29.3,51.49,22.93,69.42-2.66,7.49-7.72,1.59-9.47-2.99-.14-.37-.23-2.54-.72-2.4s-.19,1.79-.24,2.4c-.46,5.21-1.14,10.01-2.44,15.07-1.39,5.38-6.52,23.64-10.84,26.11-9.35,5.34-11.28-13.55-13.52-19.43-4.97-13.09-13.43-25.21-14.99-39.47-2.26,1.17-10.79-1.62-11.75-1.41-1.7.38.81,4.3,1.07,5.6,2.65,13.07-6.83,31.9-19.04,37.29-.89.39-2.48.02-2.84.28-.26.19-1.57,4.65-2.37,6.02-9.17,15.69-36.09,29.03-53.84,30.39-1.87.14-4.89.19-6.72,0-3.88-.4-11.85-2.98-12.44-7.49-1.07-8.25,12.69-14.17,17.16-20.18,4.29-5.78,6.4-14.54,10.16-20.78-58.21,17.01-126.16,1.93-171.6-37.89-3.45,3.19-11.63,4.44-16.33,4.77-6.2.43-12.25-.27-17.98-2.64-1.14-.47-3.75-2.74-4.54-2.66-.25.03-.62,1.19-1.34,1.6-4.52,2.59-7.09,3.03-12.41,2.96-.88,10.7-5.91,22.03-6.2,32.66-.16,5.81,3.56,16.37,2.66,20.39-.23,1.02-2.27,3.86-3.13,4.57-9.43,7.71-23.14-13.24-27.09-19.97-9.03-15.38-12.62-32.28-7.97-49.85-5.58,5.71-11.33,20.75-16.33,4.57s2-39.09,14.41-50.39c2.37-2.16,8.14-4.28,8.53-4.67,1.02-1.03.83-3.86,3.8-6.03,11.71-8.55,29.33-1.08,41.44,2.31-2.62-2.9-3.9-23.15-4.8-23.98-.31-.28-6.57-.68-8.25-1.11-5.77-1.49-10.96-3.69-15.7-7.33-1.3-1-4.13-4.81-4.44-4.94-.26-.11-3.88.52-5.71.21-6.63-1.15-28.23-17.14-30.48-23.26-.35-.95-.1-3.27-.21-3.39-.33-.34-7.97,1.34-9.37,1.43-18.96,1.2-28.03-5.79-38.06-20.95-6.46-9.77-8.2-21.13-2.91-31.99.62-1.27,3.73-4.85,3.71-5.25-.06-1.41-6.14-9.64-5.22-12.8-21.64,9.91-39.7-5.53-44.15-26.39v-9.6ZM205.44,8.63c-19.32,22.53-29.58,56.55-37.3,84.82-1.53,5.59-12.86,47.16-11.18,49.04.67.74,3.67-1.64,4.32-1.92,4.4-1.86,8.62-3.81,12.96-5.76,1.93-.87,7.41-1.52,8.42-3.81,8.27-40.26,18.6-80.15,26.62-120.45l1.43-7.2c-2.09,1.47-3.63,3.36-5.27,5.28ZM305.28,85.88l-117.69,49.92c-1.58,1.18-1.36,3.24-1.83,4.77-.43,1.37-.62,2.53-.96,3.84-2.5,9.77-4.42,19.7-7.67,29.27,46.17-17.84,100.17-42.51,128.63-84.92.38-.57.53-.69.96-1.44,1.22-2.11,2.36-3.62-1.44-1.44ZM176.16,138.17c-16.25,6.24-40.99,14.51-34.08,35.5,2.36,7.16,9.01,15.83,17.28,15.83.85,0,1.67.08,2.51-.11,9.25-2.17,15.91-31.78,18.13-40.19.49-1.85,4.32-13.38,3.83-13.91-.28-.3-6.78,2.54-7.67,2.88ZM12.48,179.43c-8.1,15.56-13.79,31.2-1.2,46.54,5.74,6.99,11.8,10.47,21.11,10.06,1.39-.06,10.81-1.8,10.81-3.1v-10.32c-15.95,5.74-29.78,2.82-24.6-17.16,6.64-25.62,32.78-49.66,60.5-43.43,1.46.33,3.11,1.76,4.24,1.9,1.59.19,4.26-.88,6.15-.82,8.92.3,16.26,5.77,17.55,14.89.16,1.14-.34,11.48.24,11.51s7.69-5.17,9.34-6.01c3.21-1.64,20.85-7.85,21.04-10.43.03-.36-1.15-6.5-1.34-7.06.38-3.33,1.23-6.65,2.88-9.6.85-1.52,2.88-3.23,3.84-4.79-9.69-.83-19.31.27-29.03-.5-24.34-1.91-44.19-8.52-68.66.48-12.78,4.7-26.83,16.22-32.87,27.83ZM474.24,171.76c-.67.63-3.16,2.15-2.39,3.35.34.53,9.72,3.18,11.84,4.25,8.35,4.23,14.61,11.32,18.82,19.57.78,1.54,7.44,16.35,6.78,16.97-1.25,1.16-8.33-2.72-8.63-2.4-.32.35,2.52,7.11,2.74,9.01.41,3.53.17,6.11-.81,9.48-.41,1.4-2.39,4.18-2.31,5.19.19,2.41,6.74,5.35,8.05,7.5-4.47-.47-8.78-.72-12.44-3.64-7.43-5.93-3.91-14.73-17.08-18.92-2.29-.73-9.92-1.58-10.8-2.16-3.13-2.08-.32-15.94-8.17.73-26.19,55.65,62.84,107.45,104.83,56.08,23.26-28.46,22.91-66.45.77-95.42-5.57-7.29-8.35-9.71-15.84-14.87-.48-.33-.75-.52-1.44-.96-6.64-4.23-12.14-6.88-20.64-8.64-.15-.03-.33.03-.48,0-.48-.09-1.04-.34-1.92-.48-.16-.02-.32.02-.48,0-.61-.09-1.33-.38-2.4-.48-19.54-1.86-33.77,2.44-48,15.83ZM77.76,165.53c-18.01-2.92-36.43,6.71-46.28,21.62-4.56,6.91-18.1,29.74-5.08,33.79,3.77,1.17,13.99.39,16.79-2.41.65-.65,3.85-14.73,4.93-17.62,5.46-14.59,15.45-28.33,29.63-35.38ZM90.24,167.44c-13.37-.75-24.96,10.36-31.69,20.86-7.98,12.45-13.36,29.55-11.51,44.39,1.96,15.67,14.58,29.98,30.68,19.39,11.04-7.26,18.37-30.57,21.76-43.02,2.56-9.39,8.86-34.31-2.05-40.19-.79-.43-3.93-1.36-4.8-1.44-.76-.07-1.62-.02-2.4,0ZM101.76,222.13c-.73.42-3.25,1.95-3.57,2.43-1.77,2.66-3.11,10.63-5.07,13.88-6.05,11.3-14.88,22.72-29.28,21.11-2.47-.69-4.32-1.63-6.56-2.8-1.54-.8-4.31-3.84-5.9-3.22-2.97,1.17-5.32,13.4-5.3,16.57.07,13.2,17.79,33.06,31.42,34.09,29.83,2.25,51.4-19.04,61.45-45.13,3.13-8.12,3.64-17.12,6.61-25.54,4.3-12.17,12.13-23.97,17.59-35.68l-7.63-3.54c-4.17-2.66-9.12-4.89-12.48-8.64-.26-.29-2.81-6.11-4.32-5.54l-36.96,42ZM133.92,180.4c-.86-.78-20.59,8.57-21.12,9.6-.27.53,5.14,8.99,5.52,10.53,1.25-1.5,16.54-19.27,15.6-20.13ZM100.81,217.34c2.32-1.83,13.77-10.87,14.31-12.83.44-1.61-4.55-11.37-5.48-11.61-1.07-.27-2.9,1.86-3.32,2.84-2.32,5.48-2.59,15.64-5.51,21.59ZM326.4,218.78c-82.15-11.7-163.27,37.84-160.79,126.41l2.87,15.12c1.91,14.71,19.16,45.68,30.72,55.17,39.98,45.62,115.51,67.38,173.96,50.82,17.35-4.91,12.82-9.05,23.37-19.34,7.49-7.3,19.55-13.32,27.79-20.68,12.71-11.34,24.09-30.43,28.8-46.78,3.3-11.46,4.66-24.06,3.84-35.98-.45-6.53-2.17-12.92-3.84-19.19-11.96-44.87-51.18-82.34-94.31-97.88-5.27-1.9-13.04-4.68-18.49-5.27l-13.92-2.4ZM100.8,305.13c13.09,2.46,35.12-2.94,27.83-20.62-7.08,9.86-16.39,16.58-27.83,20.62ZM130.08,330.08c-.85-7.74.36-16.18,3.13-23.5,2.24-5.93,6.96-7.83.47-13.44-2.13,14.7-21.1,17.79-33.36,15.84,7.41,9.75,18.11,17.32,29.76,21.1ZM509.76,302.74c5.51,23.14,42.7,17.4,38.17-6.72-11.7,6.48-24.92,8.42-38.17,6.72ZM137.28,308.01c-1.97,5.21-5.17,17.16-2.82,22.25,2.69,5.81,19.44,12.48,25.86,12.3l2.34-28.96c-.22-.72-12.09-6.7-13.38-7.03-.98-.82-7.89-5.79-8.4-5.75-1.14.1-3.17,6.05-3.6,7.19ZM510.72,313.77c-.57-.68-3.58-7.11-4.31-6.24-.22.26-1.91,5.02-2.64,6.25-3.08,5.24-6.73,10.08-12.21,13,2.97,4.68,3.07,10.41,4.76,15.3,1.11,3.21,7.22,14.09,10.42,14.8,2.25.5,12.93-7.44,15.02-9.28,8.25-7.27,14.89-17.54,19.68-27.35-7.32,1.98-12.82,2.69-20.17.23-.46-.15-1.02-.3-1.44-.48-2.73-1.14-7.23-4-9.12-6.24ZM488.64,330.08c-1.38-.58-7.44,2.09-9.27,2.87-.41.17-.28.95-.33.97-3.33,1.36-6.66,2.29-10.08,3.36-2.53.79-5,1.67-7.66,1.94,1.02,11.37.76,22.87-1.46,34.04,12.31.52,24.74-1.86,35.53-7.9,1.38-.77,8.04-4.44,7.46-6-.16-.43-4.84-5.4-5.74-6.77-1.16-1.75-2.35-3.78-3.17-5.71-1.48-3.51-1.49-6.38-2.4-9.6,2.72-.35-.59-6.23-2.88-7.2ZM124.8,373.74c-.3,3.24,8.33,14.77,5.77,20.15.55.08.77-.9.95-.96,6.69-2.34,9.76-1.55,16.03-2.45,8.29-1.2,16.9-4.03,25.25-1.87-1.81-2.12-4.34-11.93-5.78-13.17-1.05-.9-9.49-3-11.5-3.61-3.85-1.19-6.41-2.21-10.56-2.88-4.85-.78-7.45-1.45-12.49-.25-2,.48-7.44,2.63-7.67,5.05ZM102.24,401.57c-2.56,6.36-3.63,14.8-2.88,21.59.13,1.14,2.35,8.75,2.91,9.1,1.6.99,3.44-4.2,4.38-5.41,1.69-2.21,5.28-5.11,6.26-7.65,2.66-6.84,1.88-10.03,7.33-16.66,1.04-1.27,6.75-6.11,6.9-6.56.1-.3-.31-5.61-.42-6.38-.47-3.49-2.13-10.89-6.24-11.03-7.03-.25-17.06,16.8-18.24,23.03ZM472.32,391.98c-2.27-.11-16.99-2.88-17.75-2.41-.58.36-4.02,10.98-5.29,12.47l20.15,4.32c.39-4.84.41-10.02,2.88-14.39ZM179.52,400.61c.3-.26-3.64-6.59-3.91-6.88-3.8-4.02-10.91-1.07-15.77-1.75,1.96,1.66,18.87,9.34,19.68,8.62ZM119.04,411.65c-.68,1.38-3.02,4.27-1.93,5.75,9.93-17.63,32.21-10.49,37.21,7.19.43,1.53.9,7.87,1.2,8.15,1.56,1.47,10.48-1.4,11.99-4.07,1.87-3.29,2.05-21.5.71-25.18-2.23-6.14-11-7.68-16.55-8.65-15.44-2.68-25.73,2.69-32.64,16.79ZM502.08,439.95l2.88,11.51c.18.67,2.65,11.64,4.8,9.11.43-.5,1.01-11.68,1.01-13.19-.04-16.37-7.32-48.79-25.97-53.26-4.61-1.1-6.04-1.81-8.72,2.32-7.43,11.47,1.22,10.93,8.2,15.95,10.5,7.57,14.24,15.56,17.8,27.54ZM171.36,401.58c1.89,6.48,1.69,14.12,1.43,20.85-.13,3.34-2.42,5.16.26,7.45,5.35,4.58,16.79,4.25,23.37,3.22,1.12-.17,8.01-1.62,8.05-2.49s-10.66-11.46-12.23-13.19c-6.6-7.26-9.65-14.06-20.87-15.83ZM481.92,415.48c-4.05-4.19-32.14-11.62-35.28-9.11-.42,2.56-8.87,12.35-8.77,13.6.08,1.03,6.14,8.23,7.3,9.95,1.01,1.49,2.1,5.16,3.16,5.96,1.36,1.03,10.1,2.09,11.76,1.67,1.37-.34,4.53-8.99,5.75-11.04,3.6-6.05,8.54-11,16.09-11.03ZM135.84,411.17c-5.64-.84-10.04,2-13.44,6.24-2.13,2.08-3.48,4.32-4.32,7.2-4.96,12.53-1.99,29.04,3.28,41.1,2.71,6.2,15.22,25.67,21.96,26.53,1.96.25,3.89-.3,4.52-2.38.92-3.02-1.65-11.68-1.91-15.6-1.06-16.15,7.51-30.64,5.69-45.51-.93-7.57-7.96-16.4-15.78-17.57ZM472.32,423.64c-3.09,3.1-8.47,13.09-8.51,17.37-.09,8.8,9.98,26.63,13.54,35.42,1.14,2.82,6.51,19.84,7.45,20.39,1.75,1,3.08-1.1,3.94-2.32,2.27-3.25,5.96-16.52,7.11-20.96,3.49-13.53,5.07-28.2-.96-41.26-1.71-3.71-4.46-8.71-8.16-10.56-4.3-5.01-10.49-2-14.4,1.92ZM443.99,437.08c1.11-1.36-8.02-14.34-8.87-14.38-.79-.04-9.34,10.23-11.76,10.55,4.93.64,9.51-.13,14.49,1.1,1.89.47,5.93,2.99,6.14,2.73ZM434.4,437.55c-4.42-.36-13.81-.06-17.86,1.58-1.62.65-14.72,10.28-16.44,11.87-.58.54-4.45,4.76-3.38,4.78.28,0,3.78-1.69,5.34-1.86,9.56-1.06,12.27,2.77,19.86,4.74,3.21,3.69,6.15,6.83,7.06,11.89.25,1.36.21,7.99.62,8.26,1.37.89,9.33-8.28,10.46-9.92,4.91-7.16,9.51-19.44,3.45-27.02-2.28-2.86-5.41-4.45-9.12-4.32ZM356.64,509.04c-1.66,4.66,6.86,6.04,10.3,6.26,17.26,1.09,47.7-13.97,56.03-29.44,4.51-8.37,3.5-19.06-4.89-24.32-10.33-6.48-23.51-2.87-31.18,6.01-6.64,7.69-8.77,18.44-14.21,26.1-3.38,4.76-14.46,10.91-16.05,15.39Z"/>
			<path class="cls-14" d="M371.52,519.12v.48h-6.72v-.48c1.83.19,4.85.14,6.72,0Z"/>
			<path class="cls-4" d="M585.6,236.53h-.48c.01-.77-.29-1.91.48-2.4v2.4Z"/>
			<path class="cls-14" d="M585.6,223.57h-.48c-.02-.8.04-1.6,0-2.4h.48v2.4Z"/>
			<path class="cls-14" d="M585.6,238.45h-.48c.03-.64,0-1.28,0-1.92h.48v1.92Z"/>
			<path class="cls-4" d="M585.6,225.49c-.71-.37-.46-1.27-.48-1.92h.48v1.92Z"/>
			<path class="cls-14" d="M503.04,458.67h-.96c.05-.62-.25-2.27.24-2.4s.58,2.03.72,2.4Z"/>
			<path class="cls-11"
				  d="M337.92,221.17c.84.05,2.27-.01,2.4,0,5.45.59,13.22,3.37,18.49,5.27,43.13,15.55,82.35,53.01,94.31,97.88-7.26,106.32-151.16,149.85-234.56,103.71-6.22-3.44-13.9-8.07-19.36-12.55-11.56-9.49-28.81-40.47-30.72-55.17-2.64-20.32,8.88-51.79,19.48-69.05,32.18-52.36,90-73.72,149.96-70.09ZM224.05,277.91c-22.18,3.13-24.07,42.58-.06,47.31,34.57,6.81,37.4-52.57.06-47.31ZM364.22,299.99c-26.85,3.33-24.93,51.56,7.01,47.79,26.74-3.15,24.92-51.74-7.01-47.79ZM320.49,322.08c-4.73-4.51-6.24,6.55-8.01,8.72-1.29,1.58-5.8,4.2-7.91,4.1-8.68-.4-5.64-16.49-13.1-13.11-2.9,1.31-6.26,12.54-14.49,7.54-6.76-4.11-1.04-15.17-7.01-15.57-6.43-.43-3.67,11.69-2.21,15.19,4.7,11.3,16.33,10.61,24.56,3.51,4.05,12.41,16.71,11.93,24.73,3.36,2.82-3.01,7.23-10.15,3.45-13.76ZM195.76,325.41c-17.61.41-19.13,21.27-2.42,23.26,22.37,2.66,23.19-23.73,2.42-23.26ZM388.68,355.63c-3.77.65-7.71,4.72-8.3,8.5-2.53,16.21,27.37,21.48,28.6,5.56.84-10.91-11.09-15.64-20.3-14.06Z"/>
			<path class="cls-2"
				  d="M527.52,156.88c8.5,1.76,14,4.41,20.64,8.64.69.44.96.63,1.44.96-.21-.13-1.16-.19-.96.47l1.2.47c.35-.11-.2-.92-.25-.95,7.49,5.16,10.27,7.59,15.84,14.87,13.34,32.87,7.15,69.07-25.6,86.92-29.85,16.27-76.64,10.28-79.99-30.08-.48-5.77.52-11.75-.01-17.5,7.85-16.67,5.04-2.81,8.17-.73.88.58,8.51,1.44,10.8,2.16,13.16,4.18,9.64,12.99,17.08,18.92,3.66,2.92,7.97,3.16,12.44,3.64-1.31-2.16-7.86-5.09-8.05-7.5-.08-1,1.91-3.78,2.31-5.19.98-3.37,1.22-5.94.81-9.48-.22-1.9-3.06-8.67-2.74-9.01s7.38,3.56,8.63,2.4c.67-.62-5.99-15.43-6.78-16.97-4.21-8.25-10.47-15.34-18.82-19.57-2.11-1.07-11.5-3.72-11.84-4.25-.77-1.2,1.72-2.72,2.39-3.35.14.64-1.24,1.44.31,1.03,2.01-.54,5.98-3.95,8.32-5.12,18.06-9.01,35.43-9.29,54.83-4.41,1.74.44,9.46,3.4,10.21,3.23.48-.11.19-.63.25-.97l-20.64-8.64ZM515.41,166.09c-3.25.38-7.7,4.79-4.93,8.06,2.35,2.77,21.99,13.84,25.45,13.94,5.55.16,6.65-6.2,4.47-10.26s-20.54-12.26-24.99-11.73ZM467.29,223.09c-1.97.44.28,8.31.82,9.73,1.35,3.59,8.73,13.35,12.61,13.35,1.6,0,4.39-1.46,4.57-3.18.29-2.76-16.39-20.25-18-19.89Z"/>
			<path class="cls-10"
				  d="M456.96,343.52l-3.84,35.98c-4.71,16.36-16.09,35.44-28.8,46.78-8.24,7.36-20.3,13.38-27.79,20.68-10.55,10.29-6.03,14.42-23.37,19.34-58.45,16.56-133.98-5.2-173.96-50.82,5.46,4.48,13.14,9.11,19.36,12.55,83.4,46.14,227.3,2.61,234.56-103.71,1.67,6.27,3.39,12.66,3.84,19.19Z"/>
			<path class="cls-17"
				  d="M459.84,220.7c.53,5.75-.47,11.73.01,17.5,3.35,40.36,50.13,46.35,79.99,30.08,32.75-17.85,38.94-54.05,25.6-86.92,22.14,28.97,22.49,66.97-.77,95.42-41.99,51.37-131.02-.43-104.83-56.08Z"/>
			<path class="cls-1"
				  d="M155.52,194.31c-6.34,11.15-13.41,22.2-17.64,34.43-4.5,13.02-3.6,24.08-10.75,36.75-14.97,26.52-54.14,39.85-75.49,13.22l-5.56-8.59c-.02-3.17,2.33-15.4,5.3-16.57,1.59-.62,4.36,2.42,5.9,3.22,2.24,1.16,4.09,2.11,6.56,2.8,1.09.3,4.35.5,4.32.72-.07.52-7.05,5.51-7.58,7.3-.67,2.27,1.09,5.75,2.78,7.33-3.35,5.66,13.98,11.93,18.43,11.47,8.72-.9,34.05-18.78,38.89-26.38,3.75-5.9,11.38-29.99,8.21-35.95-1.05-1.97-2.08-1.32-2.17-1.43-.31-.4.1-1.71-1.46-3.1-1.05-.93-3.87-2.13-5.27-1.49l-26.87,20.42c1.96-3.25,3.3-11.22,5.07-13.88.32-.48,2.84-2.01,3.57-2.43,2.48-1.44,5.61-2.51,8.41-4.31,13.18-8.48,23.63-19.62,32.87-32.15,3.36,3.74,8.31,5.98,12.48,8.64Z"/>
			<path class="cls-15"
				  d="M139.2,156.4c-1.65,2.94-2.5,6.26-2.88,9.6-.09-.29-.87-2.32-.97-2.4-1.22-1.02-24.49,13.68-28.31,14.39-1.29-9.11-8.63-14.59-17.55-14.89-1.89-.06-4.56,1.01-6.15.82-1.13-.14-2.78-1.57-4.24-1.9-27.72-6.23-53.86,17.8-60.5,43.43-5.17,19.98,8.66,22.9,24.6,17.16v10.32c0,1.31-9.42,3.04-10.81,3.1-9.32.41-15.38-3.07-21.11-10.06-12.59-15.34-6.9-30.98,1.2-46.54,17.23-5.37,30.69-20.63,48.88-23.83,12.76-2.25,23.39.48,35.83.82,13.98.39,28.04-.33,42.02-.02Z"/>
			<path class="cls-18"
				  d="M326.4,218.78c3.8.54,7.79,1.43,11.52,2.4-59.95-3.63-117.78,17.73-149.96,70.09-10.6,17.25-22.12,48.73-19.48,69.05l-2.87-15.12c-2.48-88.57,78.64-138.11,160.79-126.41Z"/>
			<path class="cls-2"
				  d="M90.24,167.44c-22.82.54-38.81,31.57-39.35,51.59-.26,9.6,9.22,11.24,12.03,4.82,1.56-3.57,2.06-13.76,3.57-18.99,2.67-9.28,9.06-21.87,16.31-28.32,1.99-1.77,9.33-5.59,9.89-6.44.65-.99.57-1.71-.04-2.67.87.08,4.01,1.01,4.8,1.44-1.84.88-.5,3.26-.46,5.01.38,15.83-1.53,32.52-8.25,46.97-5.8,12.47-21,31.84-35.94,20.23l-5.75-8.41c-1.85-14.84,3.53-31.94,11.51-44.39,6.73-10.5,18.32-21.61,31.69-20.86Z"/>
			<path class="cls-6"
				  d="M304.8,88.76c-29.94,28.1-64.14,52.54-102.26,68.35-1.84.76-17.11,7.2-17.74,6.49s2.79-16.94,1.92-19.43c-.22-.61-1.5.22-1.92.24.34-1.31.53-2.47.96-3.84.95.43.25,2.63.48,2.88,1.26,1.37,30.9-12.32,34.4-13.83,23.3-10.04,48.42-20.86,70.56-33.11,3.29-1.82,10.11-7,12.69-8.02.72-.29.69.2.91.26Z"/>
			<path class="cls-7"
				  d="M155.52,194.31l7.63,3.54c-5.46,11.71-13.28,23.51-17.59,35.68-2.98,8.42-3.49,17.42-6.61,25.54-10.06,26.1-31.63,47.38-61.45,45.13-13.63-1.03-31.35-20.88-31.42-34.09l5.56,8.59c21.34,26.63,60.51,13.3,75.49-13.22,7.15-12.67,6.25-23.73,10.75-36.75,4.23-12.23,11.3-23.27,17.64-34.43Z"/>
			<path class="cls-3"
				  d="M135.84,411.17c1.3,2.9,4.94,3.87,6.64,6.56,7.07,11.15-3.88,35.36-3.78,48.88.06,6.91,1.36,20.93,9.14,23.25-.63,2.07-2.55,2.63-4.52,2.38-6.75-.85-19.25-20.33-21.96-26.53-5.27-12.06-8.24-28.57-3.28-41.1-1.46,4.97-2.49,21.71,1.16,25.46,5.11,5.23,3.92-10.93,4.13-12.74.44-3.93,1.42-11.02,3.42-14.33,1.33-2.21,9.52-7.34,3.3-8.73-3.32-.74-5.47.97-7.69,3.14,3.4-4.24,7.8-7.08,13.44-6.24Z"/>
			<path class="cls-19"
				  d="M77.76,165.53c-14.18,7.05-24.17,20.79-29.63,35.38-1.08,2.89-4.29,16.97-4.93,17.62-2.8,2.81-13.02,3.58-16.79,2.41-13.02-4.05.52-26.88,5.08-33.79,9.85-14.92,28.27-24.54,46.28-21.62Z"/>
			<path class="cls-3"
				  d="M418.08,461.54c.34,2.07.64,4.16.96,6.24-10.91-9.83-10.69,3.17-1.92,4.8l-1.92,3.36c.14-1.86-.05-3.72-2.06-4.45-5.01-1.82-8.63,9.23-2.26,9.24-14,15.7-33.71,24.39-54.24,28.31,1.59-4.48,12.66-10.63,16.05-15.39,5.44-7.66,7.57-18.41,14.21-26.1,7.67-8.89,20.86-12.49,31.18-6.01Z"/>
			<path class="cls-14"
				  d="M209.28,10.55c-1.28-.28-.93.66-1.2,1.42-14.17,40.03-25.79,81.09-33.84,122.84-4.34,1.95-8.56,3.9-12.96,5.76,5-22.74,12.12-45.03,19.55-67.06,7.11-21.08,14.73-42.91,24.38-62.95.24-.49,1.19-1.63.23-1.93,1.65-1.92,3.19-3.81,5.27-5.28l-1.43,7.2Z"/>
			<path class="cls-9"
				  d="M12.48,179.43c6.04-11.62,20.09-23.13,32.87-27.83,24.47-9,44.32-2.39,68.66-.48,9.72.76,19.33-.34,29.03.5-.96,1.56-2.99,3.27-3.84,4.79-13.98-.31-28.04.41-42.02.02-12.44-.34-23.07-3.07-35.83-.82-18.19,3.2-31.64,18.46-48.88,23.83Z"/>
			<path class="cls-17"
				  d="M356.64,509.04c20.53-3.91,40.24-12.61,54.24-28.31,2.72,0,4.14-2.33,4.32-4.8l1.92-3.36c.3.05.65-.04.96,0,.27.37.35.04.48,0,2.96-.98.78-2.87.48-4.8-.32-2.07-.62-4.17-.96-6.24,8.39,5.26,9.4,15.95,4.89,24.32-8.33,15.46-38.77,30.53-56.03,29.44-3.43-.22-11.96-1.6-10.3-6.26Z"/>
			<path class="cls-4"
				  d="M305.76,88.76c-28.46,42.41-82.46,67.09-128.63,84.92,3.26-9.57,5.18-19.5,7.67-29.27.43-.02,1.71-.85,1.92-.24.87,2.49-2.57,18.7-1.92,19.43s15.9-5.73,17.74-6.49c38.12-15.81,72.32-40.25,102.26-68.35.25.07.66-.05.96,0Z"/>
			<path class="cls-17"
				  d="M47.04,232.69l5.75,8.41c14.94,11.61,30.14-7.76,35.94-20.23,6.73-14.45,8.64-31.14,8.25-46.97-.04-1.76-1.39-4.14.46-5.01,10.91,5.88,4.6,30.8,2.05,40.19-3.39,12.44-10.73,35.76-21.76,43.02-16.1,10.59-28.73-3.72-30.68-19.39Z"/>
			<path class="cls-3"
				  d="M472.32,423.64c3.91-3.92,10.1-6.93,14.4-1.92-1.92-.96-10.44-2.72-9.6.71.11.44,6.4,3.38,7.91,4.58,2.03,1.62,6.7,8.02,7.56,8.51,2.11,1.2,2.46-1.62,2.3-3.24,6.03,13.06,4.45,27.73.96,41.26-2.77-.86-4.95,6.54-6.23,5.76-2.66-1.62-12.13-36.57-13.92-41.99-1.53-4.62-5.48-8.11-3.37-13.66Z"/>
			<path class="cls-12"
				  d="M502.08,439.95c-3.56-11.98-7.3-19.98-17.8-27.54-6.98-5.03-15.63-4.48-8.2-15.95,2.67-4.13,4.1-3.43,8.72-2.32,18.64,4.47,25.93,36.89,25.97,53.26,0,1.51-.58,12.69-1.01,13.19-2.15,2.52-4.62-8.44-4.8-9.11-1.03-3.96-1.66-7.42-2.88-11.51Z"/>
			<path class="cls-17"
				  d="M493.92,346.88c.81,1.93,2.01,3.96,3.17,5.71.9,1.37,5.58,6.34,5.74,6.77.58,1.57-6.07,5.23-7.46,6-10.79,6.04-23.22,8.42-35.53,7.9,2.21-11.18,2.48-22.68,1.46-34.04,2.67-.26,5.14-1.14,7.66-1.94-3.52,18.83,7.79,18.71,21.29,12.4,1.23-.57,3.49-1.21,3.67-2.81Z"/>
			<path class="cls-17"
				  d="M149.28,306.58c1.29.33,13.16,6.31,13.38,7.03l-2.34,28.96c-6.42.19-23.17-6.49-25.86-12.3-2.35-5.09.85-17.04,2.82-22.25,3.67-2.07,7.91-2.49,12-1.44Z"/>
			<path class="cls-3"
				  d="M151.68,394.85c5.55.96,14.32,2.51,16.55,8.65,1.33,3.68,1.16,21.89-.71,25.18-1.51,2.67-10.44,5.54-11.99,4.07-.3-.28-.77-6.63-1.2-8.15-5.01-17.69-27.29-24.82-37.21-7.19-1.09-1.49,1.25-4.37,1.93-5.75,6.13-1.86,10.42-7.98,16.3-10.81,5-2.41,12.22-2.55,16.16-4.49,1.21-.59.71-.51.18-1.49Z"/>
			<path class="cls-5"
				  d="M305.28,85.88c2.3-.22.73.2,1.44,1.44-.43.74-.58.87-.96,1.44-.3-.05-.71.07-.96,0-.22-.06-.18-.55-.91-.26-2.58,1.02-9.4,6.2-12.69,8.02-22.14,12.25-47.26,23.07-70.56,33.11-3.5,1.51-33.15,15.2-34.4,13.83-.23-.25.47-2.45-.48-2.88.48-1.54.25-3.59,1.83-4.77l117.69-49.92Z"/>
			<path class="cls-12"
				  d="M481.92,415.48c-7.54.03-12.49,4.99-16.09,11.03-1.22,2.05-4.38,10.7-5.75,11.04-1.66.42-10.4-.64-11.76-1.67-1.05-.8-2.15-4.47-3.16-5.96-1.16-1.72-7.22-8.92-7.3-9.95-.1-1.25,8.35-11.04,8.77-13.6,3.14-2.51,31.23,4.92,35.28,9.11Z"/>
			<path class="cls-17"
				  d="M472.32,423.64c-2.11,5.56,1.84,9.04,3.37,13.66,1.79,5.42,11.26,40.37,13.92,41.99,1.28.78,3.47-6.62,6.23-5.76-1.15,4.45-4.83,17.71-7.11,20.96-.85,1.22-2.19,3.32-3.94,2.32-.94-.54-6.31-17.56-7.45-20.39-3.55-8.79-13.63-26.62-13.54-35.42.05-4.28,5.42-14.27,8.51-17.37Z"/>
			<path class="cls-8"
				  d="M90.24,167.44c.78-.02,1.64-.07,2.4,0,.61.96.69,1.68.04,2.67-.56.84-7.89,4.66-9.89,6.44-7.24,6.45-13.63,19.04-16.31,28.32-1.51,5.22-2,15.41-3.57,18.99-2.81,6.42-12.28,4.77-12.03-4.82.54-20.02,16.53-51.05,39.35-51.59Z"/>
			<path class="cls-5"
				  d="M161.28,140.57c-.64.27-3.65,2.66-4.32,1.92-1.68-1.87,9.65-43.44,11.18-49.04,7.73-28.26,17.98-62.29,37.3-84.82.95.29,0,1.44-.23,1.93-9.65,20.04-17.27,41.87-24.38,62.95-7.43,22.03-14.55,44.32-19.55,67.06Z"/>
			<path class="cls-4"
				  d="M209.28,10.55c-8.03,40.3-18.36,80.19-26.62,120.45-1.01,2.29-6.48,2.94-8.42,3.81,8.05-41.75,19.68-82.81,33.84-122.84.27-.75-.09-1.7,1.2-1.42Z"/>
			<path class="cls-6"
				  d="M180,149.21l-20.64,40.3c-8.27,0-14.92-8.68-17.28-15.83,2.3-3.41,3.3-7.45,4.93-11.17.32-.72.08-1.56,1.31-1.31-3.08,9.77,9.14,17.37,15.61,9.13,6.45-8.21-.42-18.57-9.85-15.36,2.06-2.74,6.46-4.09,9.56-6.04,3.73-2.34,8.98-6.01,12.07-9.06.56-.55,1.14-.88.45-1.69.89-.34,7.4-3.18,7.67-2.88.49.53-3.35,12.06-3.83,13.91Z"/>
			<path class="cls-17"
				  d="M521.28,320.49c7.34,2.46,12.85,1.74,20.17-.23-4.79,9.8-11.43,20.08-19.68,27.35-2.09,1.84-12.78,9.78-15.02,9.28-3.2-.71-9.32-11.59-10.42-14.8,11.5-1.65,22.3-10.01,24.96-21.59Z"/>
			<path class="cls-7"
				  d="M126.72,222.61c-13.49,8.88-23.97,21.34-35.75,32.16-3.99,3.67-9.17,8.98-13.47,11.97-2.63,1.83-13.17,6.52-14.15,8.17-1.69-1.58-3.45-5.06-2.78-7.33.53-1.79,7.51-6.78,7.58-7.3.03-.22-3.23-.41-4.32-.72,14.4,1.6,23.23-9.81,29.28-21.11l26.87-20.42c1.4-.64,4.22.56,5.27,1.49,1.56,1.38,1.15,2.69,1.46,3.1Z"/>
			<path class="cls-3"
				  d="M434.4,437.55c-1.13.04-3.32.09-2.65,1.45s9.84,6.82,11.77,8.15c-1.63,14.31-8.54,13.63-20,11.06-1.27-.29-1.52.48-1.6.46-7.59-1.97-10.3-5.81-19.86-4.74-1.55.17-5.06,1.86-5.34,1.86-1.07-.01,2.8-4.24,3.38-4.78,1.72-1.59,14.82-11.22,16.44-11.87,4.05-1.64,13.44-1.94,17.86-1.58Z"/>
			<path class="cls-3"
				  d="M171.36,401.58c11.23,1.77,14.27,8.57,20.87,15.83,1.57,1.73,12.28,12.29,12.23,13.19s-6.94,2.32-8.05,2.49c-6.58,1.03-18.02,1.36-23.37-3.22-2.68-2.29-.39-4.11-.26-7.45.26-6.74.46-14.38-1.43-20.85Z"/>
			<path class="cls-17"
				  d="M147.84,489.85c-7.78-2.31-9.08-16.33-9.14-23.25-.11-13.52,10.85-37.73,3.78-48.88-1.7-2.68-5.34-3.65-6.64-6.56,7.83,1.17,14.86,10,15.78,17.57,1.82,14.87-6.75,29.36-5.69,45.51.26,3.93,2.83,12.59,1.91,15.6Z"/>
			<path class="cls-3"
				  d="M155.52,371.83c.78,2.76,8.95,10.04,6.73,12.71-4.56,5.48-27.93-1.8-30.73,8.4-.18.06-.41,1.04-.95.96,2.56-5.38-6.07-16.91-5.77-20.15,2.27,2.44,20.96-1.98,21.6-2.88.49-.7-1.07-1.5-1.44-1.91,4.15.67,6.71,1.69,10.56,2.88Z"/>
			<path class="cls-12"
				  d="M130.08,330.08c-11.64-3.78-22.35-11.36-29.76-21.1,12.26,1.96,31.22-1.13,33.36-15.84,6.49,5.61,1.78,7.52-.47,13.44-2.77,7.31-3.98,15.76-3.13,23.5Z"/>
			<path class="cls-3"
				  d="M496.32,342.08c-1.68-4.89-1.79-10.62-4.76-15.3,5.48-2.92,9.13-7.76,12.21-13,.72-1.23,2.42-5.99,2.64-6.25.73-.87,3.74,5.56,4.31,6.24-1.42-.26-1.01.69-.9,1.61.66,5.53,5.75,10.23,10.02,4.63.42.18.98.33,1.44.48-2.66,11.58-13.46,19.94-24.96,21.59Z"/>
			<path class="cls-12" d="M509.76,302.74c13.25,1.7,26.47-.24,38.17-6.72,4.53,24.12-32.65,29.85-38.17,6.72Z"/>
			<path class="cls-3"
				  d="M479.04,333.92c3.92,2.59,7.64,3.99,12.48,3.36.91,3.21.92,6.09,2.4,9.6-.18,1.6-2.44,2.24-3.67,2.81-13.5,6.3-24.81,6.43-21.29-12.4,3.42-1.07,6.75-2,10.08-3.36Z"/>
			<path class="cls-7"
				  d="M107.04,177.99c3.82-.72,27.09-15.41,28.31-14.39.1.08.87,2.11.97,2.4.18.56,1.36,6.7,1.34,7.06-.18,2.58-17.83,8.79-21.04,10.43-1.65.85-8.79,6.05-9.34,6.01s-.07-10.37-.24-11.51Z"/>
			<path class="cls-3"
				  d="M126.72,389.58l-3.92,6.87-12.42,17.34-11.02,9.37c-.75-6.79.32-15.23,2.88-21.59-.34,1.82-.64,4.64-.47,6.47.06.62.16,2.91,1.18,2.64s12.28-13.72,13.66-15.61c2.88-3.94,10.16-12.95,3.86-16.53,4.11.15,5.77,7.55,6.24,11.03Z"/>
			<path class="cls-8"
				  d="M120.48,378.54c6.3,3.57-.98,12.58-3.86,16.53-1.38,1.9-12.66,15.35-13.66,15.61s-1.12-2.03-1.18-2.64c-.17-1.83.12-4.65.47-6.47,1.18-6.23,11.21-23.28,18.24-23.03Z"/>
			<path class="cls-9"
				  d="M143.04,185.67c-9.24,12.54-19.69,23.67-32.87,32.15-2.8,1.8-5.93,2.87-8.41,4.31l36.96-42c1.51-.57,4.07,5.25,4.32,5.54Z"/>
			<path class="cls-12"
				  d="M443.52,441.87c6.06,7.58,1.46,19.86-3.45,27.02-1.13,1.65-9.09,10.81-10.46,9.92-.41-.27-.38-6.89-.62-8.26-.91-5.06-3.85-8.2-7.06-11.89.08.02.33-.74,1.6-.46,11.45,2.57,18.36,3.25,20-11.06.21-1.89.43-3.13,0-5.28Z"/>
			<path class="cls-8"
				  d="M122.4,417.4c2.22-2.17,4.37-3.88,7.69-3.14,6.22,1.39-1.97,6.52-3.3,8.73-2,3.31-2.98,10.4-3.42,14.33-.2,1.8.98,17.97-4.13,12.74-3.66-3.75-2.62-20.49-1.16-25.46.84-2.88,2.19-5.12,4.32-7.2Z"/>
			<path class="cls-12"
				  d="M472.32,391.98c-2.48,4.36-2.5,9.54-2.88,14.39l-20.15-4.32c1.27-1.49,4.71-12.12,5.29-12.47.76-.47,15.48,2.3,17.75,2.41Z"/>
			<path class="cls-5"
				  d="M154.08,154.97c-1.98.67-5.15,4.3-5.76,6.24-1.22-.25-.99.59-1.31,1.31-1.64,3.72-2.63,7.75-4.93,11.17-6.91-20.99,17.83-29.27,34.08-35.5.69.81.11,1.14-.45,1.69-3.09,3.05-8.35,6.72-12.07,9.06-3.1,1.95-7.5,3.3-9.56,6.04Z"/>
			<path class="cls-12"
				  d="M155.52,371.83c2.01.62,10.46,2.71,11.5,3.61,1.44,1.24,3.96,11.05,5.78,13.17-8.36-2.16-16.96.67-25.25,1.87-6.26.9-9.33.12-16.03,2.45,2.8-10.2,26.17-2.92,30.73-8.4,2.22-2.67-5.95-9.95-6.73-12.71Z"/>
			<path class="cls-12"
				  d="M100.8,305.13c11.44-4.04,20.75-10.76,27.83-20.62,7.29,17.68-14.74,23.08-27.83,20.62Z"/>
			<path class="cls-12"
				  d="M126.72,389.58c.11.78.52,6.08.42,6.38-.15.45-5.86,5.3-6.9,6.56-5.45,6.63-4.67,9.82-7.33,16.66-.99,2.54-4.57,5.44-6.26,7.65-.93,1.22-2.78,6.4-4.38,5.41-.56-.35-2.78-7.95-2.91-9.1l11.02-9.37,12.42-17.34,3.92-6.87Z"/>
			<path class="cls-12"
				  d="M100.81,217.34c2.92-5.96,3.19-16.11,5.51-21.59.41-.98,2.25-3.11,3.32-2.84.93.23,5.93,9.99,5.48,11.61-.54,1.95-11.99,11-14.31,12.83Z"/>
			<path class="cls-19"
				  d="M133.92,180.4c.94.86-14.35,18.63-15.6,20.13-.37-1.54-5.79-10-5.52-10.53.53-1.03,20.26-10.38,21.12-9.6Z"/>
			<path class="cls-13"
				  d="M151.68,394.85c.53.97,1.03.89-.18,1.49-3.94,1.94-11.16,2.08-16.16,4.49-5.88,2.83-10.17,8.96-16.3,10.81,6.91-14.11,17.2-19.48,32.64-16.79Z"/>
			<path class="cls-4" d="M180,149.21c-2.22,8.4-8.88,38.01-18.13,40.19-.84.2-1.66.11-2.51.11l20.64-40.3Z"/>
			<path class="cls-12"
				  d="M443.99,437.08c-.21.26-4.25-2.26-6.14-2.73-4.98-1.23-9.55-.46-14.49-1.1,2.41-.32,10.97-10.59,11.76-10.55.85.04,9.98,13.02,8.87,14.38Z"/>
			<path class="cls-13"
				  d="M486.72,421.72c3.7,1.85,6.45,6.84,8.16,10.56.17,1.62-.19,4.44-2.3,3.24-.86-.49-5.53-6.89-7.56-8.51-1.5-1.2-7.8-4.13-7.91-4.58-.85-3.44,7.68-1.67,9.6-.71Z"/>
			<path class="cls-13"
				  d="M144.96,368.95c.37.41,1.92,1.21,1.44,1.91-.63.91-19.33,5.32-21.6,2.88.22-2.42,5.67-4.57,7.67-5.05,5.04-1.2,7.64-.53,12.49.25Z"/>
			<path class="cls-12"
				  d="M179.52,400.61c-.81.71-17.72-6.96-19.68-8.62,4.86.68,11.97-2.27,15.77,1.75.27.29,4.21,6.62,3.91,6.88Z"/>
			<path class="cls-13"
				  d="M488.64,330.08c.96,2.48,2.15,4.6,2.88,7.2-4.84.63-8.56-.77-12.48-3.36.05-.02-.08-.8.33-.97,1.84-.77,7.89-3.45,9.27-2.87Z"/>
			<path class="cls-13"
				  d="M434.4,437.55c3.71-.13,6.84,1.46,9.12,4.32.43,2.15.21,3.39,0,5.28-1.93-1.33-11.09-6.75-11.77-8.15s1.52-1.41,2.65-1.45Z"/>
			<path class="cls-13"
				  d="M510.72,313.77c1.89,2.24,6.39,5.09,9.12,6.24-4.27,5.6-9.36.9-10.02-4.63-.11-.92-.51-1.87.9-1.61Z"/>
			<path class="cls-14"
				  d="M149.28,306.58c-4.09-1.05-8.33-.63-12,1.44.43-1.14,2.46-7.09,3.6-7.19.51-.05,7.42,4.92,8.4,5.75Z"/>
			<path class="cls-3" d="M456.96,343.52c.82,11.92-.54,24.52-3.84,35.98l3.84-35.98Z"/>
			<path class="cls-14" d="M488.64,330.08c2.29.96,5.6,6.84,2.88,7.2-.73-2.59-1.92-4.72-2.88-7.2Z"/>
			<path class="cls-4" d="M504.96,451.47l-2.88-11.51c1.22,4.09,1.85,7.55,2.88,11.51Z"/>
			<path class="cls-6" d="M306.72,87.32c-.71-1.24.86-1.66-1.44-1.44,3.8-2.18,2.66-.67,1.44,1.44Z"/>
			<path class="cls-3" d="M340.32,221.17c-.13-.01-1.56.05-2.4,0-3.73-.97-7.72-1.86-11.52-2.4l13.92,2.4Z"/>
			<path class="cls-2" d="M524.64,156.4l-2.4-.48c1.07.1,1.79.39,2.4.48Z"/>
			<path class="cls-2" d="M527.04,156.88l-1.92-.48c.88.14,1.44.39,1.92.48Z"/>
			<path class="cls-16"
				  d="M364.22,299.99c31.93-3.96,33.75,44.63,7.01,47.79-31.94,3.77-33.86-44.46-7.01-47.79ZM361.34,303.8c-7.21.56-7.06,12.82.34,12.86,8.08.04,7.87-13.49-.34-12.86Z"/>
			<path class="cls-16"
				  d="M224.05,277.91c37.34-5.27,34.51,54.12-.06,47.31-24.01-4.73-22.11-44.18.06-47.31ZM226.89,292.99c4.87-4.15.28-14.52-7-10.6-7.16,3.85-.05,16.61,7,10.6Z"/>
			<path class="cls-16"
				  d="M320.49,322.08c3.79,3.61-.63,10.75-3.45,13.76-8.02,8.57-20.68,9.05-24.73-3.36-8.23,7.1-19.86,7.78-24.56-3.51-1.46-3.51-4.22-15.62,2.21-15.19,5.98.4.25,11.46,7.01,15.57,8.23,5,11.59-6.23,14.49-7.54,7.46-3.38,4.42,12.71,13.1,13.11,2.12.1,6.62-2.52,7.91-4.1,1.77-2.17,3.28-13.24,8.01-8.72Z"/>
			<path class="cls-20"
				  d="M388.68,355.63c9.21-1.58,21.14,3.15,20.3,14.06-1.23,15.92-31.12,10.66-28.6-5.56.59-3.78,4.53-7.85,8.3-8.5Z"/>
			<path class="cls-20"
				  d="M195.76,325.41c20.76-.48,19.95,25.92-2.42,23.26-16.71-1.99-15.18-22.85,2.42-23.26Z"/>
			<path class="cls-8"
				  d="M515.41,166.09c4.46-.52,22.79,7.62,24.99,11.73s1.08,10.42-4.47,10.26c-3.46-.1-23.09-11.16-25.45-13.94-2.78-3.27,1.67-7.68,4.93-8.06Z"/>
			<path class="cls-8"
				  d="M467.29,223.09c1.61-.36,18.29,17.13,18,19.89-.18,1.73-2.97,3.18-4.57,3.18-3.88,0-11.26-9.76-12.61-13.35-.53-1.42-2.78-9.29-.82-9.73Z"/>
			<path class="cls-13" d="M549.6,166.48s.6.84.25.95l-1.2-.47c-.2-.66.75-.61.96-.47Z"/>
			<path class="cls-13"
				  d="M522.24,155.92l2.4.48c.16.02.32-.02.48,0l1.92.48c.15.03.33-.03.48,0l20.64,8.64c-.06.34.23.86-.25.97-.75.17-8.47-2.79-10.21-3.23-19.4-4.88-36.77-4.59-54.83,4.41-2.34,1.17-6.31,4.57-8.32,5.12-1.55.42-.17-.39-.31-1.03,14.23-13.39,28.46-17.69,48-15.83Z"/>
			<path class="cls-16"
				  d="M63.36,274.91c.98-1.65,11.52-6.34,14.15-8.17,4.29-2.99,9.47-8.3,13.47-11.97,11.77-10.82,22.26-23.28,35.75-32.16.09.11,1.12-.54,2.17,1.43,3.18,5.96-4.46,30.05-8.21,35.95-4.83,7.61-30.17,25.49-38.89,26.38-4.46.46-21.79-5.81-18.43-11.47ZM125.76,227.89c-2.96,1.82-21.75,18.51-21.99,19.98-.32,1.9,7.91,13.77,9.83,14.04,5.27.75,13.51-29.08,12.17-34.02ZM67.2,276.84c4.12,3.16,9.56,6.43,14.9,5.53,3.96-.66,29.04-15.26,28.76-17.73-.1-.86-10.49-10.39-10.3-13.71-10.05,9.83-20.53,19.81-33.36,25.91Z"/>
			<path class="cls-8"
				  d="M415.2,475.94c-.18,2.47-1.6,4.8-4.32,4.8-6.37-.01-2.75-11.06,2.26-9.24,2.01.73,2.2,2.59,2.06,4.45Z"/>
			<path class="cls-13"
				  d="M419.04,467.78c.3,1.93,2.48,3.82-.48,4.8h-.48c-.31-.04-.66.05-.96,0-8.77-1.62-8.99-14.63,1.92-4.8Z"/>
			<path class="cls-3" d="M418.08,472.58h.48c-.13.04-.21.37-.48,0Z"/>
			<path class="cls-21"
				  d="M148.32,161.2c.61-1.94,3.78-5.56,5.76-6.24,9.43-3.2,16.3,7.15,9.85,15.36-6.47,8.24-18.69.64-15.61-9.13ZM152.33,158.02c-8.87,8.02,4.06,20.34,10.59,10.83,5.67-8.25-3.78-16.99-10.59-10.83Z"/>
			<path class="cls-19" d="M361.34,303.8c8.21-.63,8.42,12.9.34,12.86-7.4-.04-7.55-12.3-.34-12.86Z"/>
			<path class="cls-19" d="M226.89,292.99c-7.05,6.01-14.17-6.74-7-10.6,7.29-3.92,11.87,6.45,7,10.6Z"/>
			<path class="cls-12"
				  d="M67.2,276.84c12.84-6.1,23.31-16.08,33.36-25.91-.19,3.32,10.2,12.85,10.3,13.71.28,2.47-24.8,17.07-28.76,17.73-5.34.9-10.78-2.37-14.9-5.53Z"/>
			<path class="cls-12"
				  d="M125.76,227.89c1.34,4.94-6.9,34.78-12.17,34.02-1.91-.27-10.15-12.14-9.83-14.04.25-1.46,19.03-18.16,21.99-19.98Z"/>
			<path class="cls-15"
				  d="M152.33,158.02c6.82-6.16,16.27,2.57,10.59,10.83-6.54,9.52-19.46-2.81-10.59-10.83ZM154.9,157.95c-4.48,1.1-4.55,11.75,2.07,6.38,3.8-3.08,4.09-7.89-2.07-6.38Z"/>
			<path class="cls-9" d="M154.9,157.95c6.15-1.51,5.86,3.3,2.07,6.38-6.62,5.37-6.54-5.28-2.07-6.38Z"/>
		</g>
	</g>
</svg>
