<?xml version="1.0" encoding="UTF-8" standalone="no"?>

<svg
  width="152.81827mm"
  height="128.127mm"
  viewBox="0 0 152.81827 128.127"
  version="1.1"
  id="svg5"
  xml:space="preserve"
  inkscape:version="1.2.2 (732a01da63, 2022-12-09)"
  sodipodi:docname="Kicherkrabbe_logo_outlines_only.svg"
  xmlns:inkscape="http://www.inkscape.org/namespaces/inkscape"
  xmlns:sodipodi="http://sodipodi.sourceforge.net/DTD/sodipodi-0.dtd"
  xmlns="http://www.w3.org/2000/svg"
><sodipodi:namedview
     id="namedview7"
     pagecolor="#ffffff"
     bordercolor="#666666"
     borderopacity="1.0"
     inkscape:showpageshadow="2"
     inkscape:pageopacity="0.0"
     inkscape:pagecheckerboard="0"
     inkscape:deskcolor="#d1d1d1"
     inkscape:document-units="mm"
     showgrid="false"
     inkscape:zoom="0.914906"
     inkscape:cx="215.86917"
     inkscape:cy="465.6216"
     inkscape:window-width="2560"
     inkscape:window-height="1369"
     inkscape:window-x="-8"
     inkscape:window-y="-8"
     inkscape:window-maximized="1"
     inkscape:current-layer="layer1" />
  <defs
    id="defs2"/>
  <g
    inkscape:label="Ebene 1"
    inkscape:groupmode="layer"
    id="layer1"
    transform="translate(-26.106266,-12.212824)"><path
       style="fill:#FFFFFF;stroke-width:0.122062"
       d="m 120.74392,140.20847 c -1.04402,-0.24573 -1.91905,-0.67644 -2.33372,-1.14872 -0.32777,-0.37331 -0.37111,-0.50114 -0.32089,-0.9466 0.0786,-0.69783 0.30058,-0.96984 1.8612,-2.28132 2.78606,-2.34127 2.76119,-2.31076 4.09147,-5.01718 0.99984,-2.03413 1.14848,-2.40911 0.92956,-2.34509 -4.17179,1.21995 -6.79793,1.48672 -13.50437,1.37179 -4.40004,-0.0754 -5.60235,-0.18158 -8.66644,-0.7654 -4.863354,-0.92665 -9.030963,-2.27618 -13.609975,-4.4071 -0.939881,-0.43739 -2.038445,-0.99143 -2.441251,-1.2312 -0.889083,-0.52922 -4.730594,-3.15547 -5.715041,-3.90707 l -0.710478,-0.54244 -0.235771,0.25307 c -0.277723,0.2981 -0.654558,0.4078 -2.615462,0.76139 -1.132465,0.20422 -1.72781,0.24817 -2.624345,0.19376 -1.898369,-0.11522 -3.682436,-0.58594 -4.283975,-1.13033 -0.18331,-0.16589 -0.249986,-0.15309 -0.663185,0.12731 -0.599631,0.40692 -1.507739,0.68237 -2.51988,0.76433 l -0.814633,0.066 -0.08548,0.6251 c -0.04701,0.34379 -0.3464,1.66872 -0.665303,2.94428 -0.338727,1.35484 -0.6462,2.93906 -0.739454,3.80995 -0.157253,1.46859 -0.154525,1.5149 0.183392,3.1126 0.426613,2.01705 0.454178,2.77657 0.117146,3.22799 -0.871413,1.16716 -2.218732,1.15969 -3.822851,-0.0212 -1.097975,-0.80828 -3.11381,-3.34484 -4.292341,-5.40112 -0.590273,-1.0299 -1.362319,-3.05925 -1.729145,-4.54514 -0.466919,-1.89132 -0.335703,-4.44117 0.351499,-6.83048 0.114856,-0.39935 -1.3506,1.2109 -1.667698,1.83246 -0.362945,0.71143 -0.935618,1.13006 -1.435036,1.04901 -0.227891,-0.037 -0.480946,-0.12251 -0.562346,-0.19006 -0.312104,-0.25903 -0.715553,-1.28672 -0.952308,-2.42578 -0.601506,-2.89394 0.12188,-6.1103 2.041967,-9.07911 1.175796,-1.818 3.060295,-3.39735 4.054171,-3.3977 0.222157,-7e-5 0.274641,-0.0683 0.274641,-0.35691 0,-1.16794 2.117925,-2.08528 4.810479,-2.08358 1.486765,9.3e-4 2.26369,0.15243 5.037754,0.98229 0.909341,0.27202 1.670845,0.4771 1.692233,0.45571 0.02139,-0.0214 -0.123397,-0.58474 -0.321742,-1.25189 -0.351403,-1.18196 -0.741903,-2.967831 -0.898575,-4.109441 l -0.07764,-0.565758 -0.893751,-0.13293 c -1.113384,-0.165593 -2.710549,-0.66329 -3.672846,-1.144508 -0.817468,-0.408787 -2.074201,-1.270351 -2.429654,-1.665663 -0.166577,-0.185255 -0.377531,-0.258603 -0.743782,-0.258603 -1.648971,0 -5.110055,-1.942587 -7.462099,-4.188213 -1.2763,-1.218576 -1.63175,-1.685995 -1.63175,-2.145788 0,-0.133641 -0.0503,-0.274072 -0.111787,-0.312068 -0.06148,-0.03801 -0.672577,0.01974 -1.357986,0.128289 -1.845488,0.292295 -4.282192,0.196249 -5.434085,-0.214199 -1.105818,-0.39403 -2.18921,-1.133902 -3.358107,-2.293324 -1.472061,-1.460123 -3.108695,-3.851883 -3.479999,-5.085627 -0.484831,-1.610977 0.212506,-5.042672 1.223892,-6.022943 l 0.42115,-0.408197 -0.378002,-0.549409 c -0.350263,-0.509087 -0.951955,-2.03239 -0.951955,-2.410061 0,-0.28674 -0.184386,-0.296419 -0.98704,-0.05179 -2.135233,0.65075 -4.10987,0.581693 -5.704945,-0.199506 -1.590397,-0.778906 -3.467002,-2.925113 -4.308126,-4.927047 -0.957938,-2.279962 -0.566954,-5.278271 1.112287,-8.529698 1.348524,-2.61108 4.484024,-5.591387 7.702041,-7.320823 4.495684,-2.416084 8.029871,-2.800047 16.406069,-1.782401 3.275869,0.397993 4.092917,0.453086 7.750971,0.522633 3.138062,0.05966 4.146975,0.116313 4.33796,0.243585 0.220943,0.147236 0.309965,0.124647 0.793407,-0.201321 0.299497,-0.201941 0.741758,-0.461081 0.982802,-0.575868 0.337819,-0.160872 0.42732,-0.268594 0.390523,-0.470024 -0.02626,-0.143725 0.258744,-1.607058 0.633329,-3.251851 3.674944,-16.136547 7.798703,-26.082033 12.96921,-31.278525 0.873017,-0.877405 1.128776,-1.067714 1.43285,-1.066178 0.444989,0.0023 0.590078,0.08889 0.792761,0.473389 0.135359,0.256784 -0.301069,2.226338 -3.603865,16.263882 -2.066832,8.784444 -3.729994,15.999598 -3.695917,16.033676 0.03408,0.03408 7.240003,-2.794294 16.013168,-6.285269 8.773161,-3.490963 16.025429,-6.347216 16.116159,-6.347216 0.33889,0 0.80819,0.498263 0.80819,0.858071 0,0.412615 -1.24099,2.120397 -2.84519,3.915399 -6.592768,7.376896 -16.030966,13.030818 -30.647614,18.359354 l -2.427884,0.885091 -0.488383,0.935692 c -0.608574,1.165965 -1.384929,2.041438 -2.130288,2.40226 l -0.57252,0.277151 0.388592,0.158563 c 0.490379,0.200094 0.812325,0.675331 0.716405,1.057509 -0.03979,0.158529 -0.422078,0.914192 -0.849533,1.679249 -1.423607,2.547975 -2.724971,5.036763 -3.426586,6.553161 -0.556668,1.20312 -0.790039,1.916322 -1.178255,3.600845 -0.707563,3.070209 -0.959398,3.729356 -2.239746,5.8623 -0.624419,1.040222 -1.248092,2.034698 -1.385943,2.209946 l -0.250635,0.318633 0.263297,0.843752 c 0.229536,0.735563 0.39842,0.991979 1.317088,1.999737 0.579584,0.635789 1.073938,1.207102 1.098562,1.269581 0.09928,0.251905 5.654362,3.212961 5.762912,3.071838 0.02045,-0.02657 0.220202,-0.570151 0.443901,-1.207924 1.734636,-4.945527 3.735063,-8.171189 7.447907,-12.009647 1.779567,-1.839777 3.05114,-2.903749 5.125061,-4.288328 4.636488,-3.09538 10.087746,-5.166444 16.113846,-6.122034 1.20307,-0.190777 2.171415,-0.222596 6.774466,-0.222596 5.63592,0 5.9303,0.01993 9.21573,0.623786 4.37572,0.804252 9.42987,2.516344 12.71418,4.306924 1.79431,0.978241 5.03466,3.083708 6.7456,4.383064 2.64686,2.010122 6.57445,6.289716 8.64276,9.417357 0.88907,1.344434 2.44995,4.427782 3.19513,6.311635 0.47959,1.212417 1.10347,3.500666 1.23426,4.526886 0.0987,0.774809 0.11533,0.777762 1.84433,0.328529 1.54164,-0.400553 5.2805,-1.898727 5.3968,-2.162516 0.0229,-0.05203 0.35421,-0.306823 0.73618,-0.56621 1.12617,-0.764771 2.09473,-1.900121 2.81169,-3.295896 0.42595,-0.829234 0.73794,-1.289207 0.93549,-1.379214 0.18494,-0.08427 0.2964,-0.237488 0.2964,-0.407468 0,-0.23735 -0.11391,-0.299635 -0.88495,-0.483889 -1.07745,-0.257478 -2.95141,-0.938727 -3.91598,-1.423585 -3.28896,-1.653277 -6.70014,-5.051968 -8.26821,-8.237946 -0.92526,-1.879936 -1.24336,-3.248714 -1.24336,-5.35008 0,-2.158553 0.32365,-3.512277 1.31937,-5.51851 0.79753,-1.606912 1.17092,-1.988335 1.94647,-1.988335 0.72453,0 1.20885,0.418911 1.48045,1.280512 l 0.20645,0.654953 0.6213,0.0783 c 1.02619,0.129337 2.39947,0.539633 3.15624,0.942986 0.93784,0.499865 1.77122,1.432207 2.42587,2.71394 0.29261,0.572904 0.55947,1.041878 0.59304,1.042164 0.0336,2.45e-4 0.23955,-0.371401 0.45773,-0.825976 0.49397,-1.029154 0.54243,-2.13938 0.14292,-3.274107 -0.52311,-1.48575 -0.54773,-1.624097 -0.3513,-1.974039 0.208,-0.370585 0.65576,-0.524507 1.07975,-0.371169 0.16036,0.058 0.32024,0.07677 0.3553,0.04172 0.0351,-0.03505 -0.14462,-0.531314 -0.39927,-1.102805 -1.23257,-2.766212 -2.70173,-4.3813 -4.99477,-5.490907 -0.74578,-0.36088 -1.76792,-0.768756 -2.27143,-0.906388 -1.0284,-0.281111 -1.34269,-0.556905 -1.34269,-1.178251 0,-0.64559 0.2159,-0.967895 1.20783,-1.803158 3.22257,-2.713593 6.84716,-3.987344 10.87636,-3.822166 2.8307,0.116043 5.31628,0.791722 8.11717,2.206567 5.55217,2.80463 8.64373,6.720356 9.98136,12.642258 0.36491,1.615476 0.39087,5.986273 0.045,7.567876 -1.09231,4.994406 -3.74372,9.080589 -7.56402,11.657175 l -0.95544,0.644394 -0.0238,1.508637 c -0.0214,1.352179 -0.0578,1.581824 -0.35169,2.214269 -0.18031,0.388092 -0.64057,1.033496 -1.02281,1.434233 -0.38224,0.400737 -0.63835,0.728611 -0.56914,0.728611 0.0692,0 0.19485,0.166626 0.2792,0.370279 0.1393,0.336288 0.11726,0.439933 -0.24012,1.129076 -1.10332,2.127629 -3.40988,5.145361 -4.98026,6.515851 -1.35551,1.18296 -4.04982,2.848355 -4.60813,2.848355 -0.10448,0 -0.22277,0.0855 -0.26287,0.18997 -0.14633,0.38132 -2.4744,1.79412 -4.00853,2.43259 -0.83519,0.34759 -2.27677,0.76828 -3.29569,0.96177 -1.59061,0.30205 -2.0005,0.35135 -3.5742,0.42992 l -1.49913,0.0749 -0.35714,1.03255 c -0.19642,0.5679 -0.33224,1.05743 -0.30182,1.08785 0.0304,0.0304 1.06815,0.17507 2.3061,0.32144 1.62693,0.19237 2.34491,0.32781 2.59035,0.48862 0.24615,0.16129 0.53093,0.21467 1.03536,0.19409 0.38269,-0.0156 1.0711,0.0637 1.5298,0.17634 1.92008,0.47138 3.26114,1.45196 4.43904,3.24581 1.12684,1.71607 2.58252,5.39682 2.80157,7.08389 0.13638,1.05043 0.14667,5.61322 0.0147,6.5395 -0.12855,0.90248 -0.49817,1.275 -1.21744,1.22697 -0.6323,-0.0422 -0.83847,-0.26081 -1.28707,-1.36456 l -0.29146,-0.7171 -0.0824,1.0838 c -0.10539,1.38609 -0.25371,1.97882 -1.29438,5.1729 -1.25021,3.83721 -1.894,4.8825 -3.00706,4.8825 -0.87323,0 -0.96616,-0.13775 -1.9116,-2.8334 -0.35995,-1.0263 -1.02466,-2.66247 -1.47713,-3.63591 -1.87308,-4.0297 -2.17544,-4.71919 -2.58821,-5.902 -0.23772,-0.68126 -0.46787,-1.48583 -0.51141,-1.78794 l -0.0792,-0.54928 -1.21951,-0.0787 c -0.67072,-0.0433 -1.39801,-0.13556 -1.6162,-0.20509 -0.3654,-0.11644 -0.39636,-0.10542 -0.39239,0.1397 0.002,0.14636 0.0828,0.40344 0.17878,0.57127 0.24034,0.42044 0.23726,2.74541 -0.005,3.77318 -0.37558,1.59331 -1.40886,3.20664 -3.06276,4.78206 -1.04221,0.99276 -1.37032,1.20977 -1.82915,1.20977 -0.36515,0 -0.44012,0.062 -0.70342,0.58159 -0.47029,0.92806 -1.33187,1.9938 -2.54563,3.14886 -2.39238,2.27666 -4.95302,3.53531 -9.79724,4.81568 -1.70207,0.44987 -3.49018,0.57425 -4.57735,0.31835 z m 4.71855,-1.30339 c 0.99649,-0.26779 2.25122,-0.6293 2.7883,-0.80335 1.10479,-0.35804 3.28384,-1.40498 4.16949,-2.00325 1.94653,-1.31495 3.66412,-3.1092 4.39822,-4.59456 0.43013,-0.87032 0.43828,-0.91342 0.36141,-1.91337 -0.14187,-1.8457 -0.53756,-2.59749 -1.78846,-3.39802 -0.96513,-0.61763 -2.05465,-0.87306 -3.40357,-0.79795 -2.00586,0.11169 -3.28954,0.71657 -4.91086,2.31403 -0.92063,0.9071 -1.00087,1.03368 -2.16632,3.41776 -0.74577,1.52556 -1.39114,2.67724 -1.6815,3.00072 -0.25917,0.28873 -1.23606,1.16758 -2.17085,1.953 -1.91961,1.61289 -2.26698,2.00134 -2.06958,2.31429 0.19749,0.31308 1.1836,0.75941 2.09713,0.94916 1.15439,0.2398 2.26784,0.12826 4.37659,-0.43846 z m 27.75868,-4.02589 c 0.48586,-0.26001 1.54793,-2.94344 2.61702,-6.61204 0.68834,-2.3621 0.70928,-5.53984 0.0535,-8.12345 -0.30821,-1.21429 -1.0649,-2.33719 -2.35815,-3.49938 l -0.96066,-0.86331 -0.81828,0.0163 c -0.99571,0.0198 -1.34724,0.18883 -2.35688,1.1333 -0.68126,0.63728 -0.84973,0.89626 -1.48761,2.28683 -0.53676,1.17009 -0.71511,1.69421 -0.7026,2.06475 0.0319,0.9463 0.7621,2.78726 3.04667,7.6816 0.47005,1.00702 1.15848,2.68232 1.52987,3.72291 0.37138,1.04058 0.71328,1.98809 0.75977,2.10558 0.0958,0.24218 0.33089,0.27235 0.67732,0.0869 z m -88.68351,-1.50221 c 0.250673,-0.35789 0.225845,-0.84665 -0.125579,-2.47206 -0.504597,-2.33386 -0.38772,-3.85889 0.603832,-7.8789 1.013125,-4.10749 0.800784,-5.96132 -0.895397,-7.81721 -1.270891,-1.39056 -3.033376,-1.89612 -4.590937,-1.3169 -1.403363,0.52187 -2.400729,1.91994 -3.007322,4.21555 -0.249456,0.94405 -0.287409,1.36306 -0.281272,3.10533 0.007,1.99648 0.01114,2.02627 0.471447,3.41776 0.848831,2.56598 1.296093,3.42699 2.916723,5.61487 1.535348,2.07274 2.761283,3.19529 3.70664,3.39404 0.616993,0.12972 0.983175,0.0498 1.201865,-0.26248 z m 74.56465,-3.44273 c 0.77353,-0.63012 2.0138,-2.0519 2.48427,-2.84786 0.57571,-0.97401 0.89284,-2.05911 0.96948,-3.31717 0.088,-1.44372 0.0295,-1.69665 -0.5375,-2.32422 -1.03297,-1.14337 -2.58863,-1.42581 -5.63598,-1.02322 -1.31228,0.17336 -1.44728,0.21832 -2.44126,0.81306 -1.88942,1.13051 -3.18808,2.07474 -3.80402,2.7658 -0.33267,0.37325 -0.60486,0.72007 -0.60486,0.77072 0,0.0507 0.28837,-0.0422 0.64083,-0.20627 0.77119,-0.35904 1.66475,-0.3899 3.16014,-0.10913 1.8615,0.34951 3.76965,1.54236 4.31894,2.6999 0.23662,0.49864 0.53602,2.0528 0.54227,2.81492 0.002,0.28532 0.0541,0.51876 0.11513,0.51876 0.061,0 0.41764,-0.24988 0.79256,-0.55529 z m -21.46888,-1.52337 c 2.24332,-0.14451 4.08216,-0.44362 5.9367,-0.96568 2.52519,-0.71086 2.70503,-0.83824 4.73118,-3.3509 1.3724,-1.70195 1.91452,-2.15987 4.2827,-3.61753 2.50823,-1.54386 5.19324,-3.76821 6.65919,-5.51666 1.87062,-2.23111 2.96885,-3.94561 3.81361,-5.95357 0.26832,-0.63778 0.68105,-1.57158 0.91718,-2.07512 0.9184,-1.95844 1.21399,-3.93334 1.20708,-8.064536 -0.008,-4.981752 -0.46312,-6.909982 -2.72453,-11.55181 -1.37692,-2.826341 -3.11016,-5.301072 -5.69227,-8.127492 -2.77057,-3.032697 -6.93119,-6.177906 -11.15439,-8.432104 -2.31318,-1.234699 -6.83028,-2.883316 -9.7295,-3.550998 -4.31962,-0.994794 -6.59792,-1.204417 -12.29529,-1.131253 -3.715082,0.04771 -4.62767,0.09611 -5.972,0.316741 -6.505831,1.067736 -12.913304,3.817541 -17.456537,7.491573 -1.379068,1.115231 -4.264541,4.131372 -5.391567,5.635728 -1.929152,2.575031 -2.916587,4.424796 -4.208707,7.884204 -0.53633,1.435917 -1.002465,3.571869 -1.198711,5.492814 -0.176421,1.726883 -0.140023,4.696313 0.07406,6.042093 0.694078,4.36311 2.942782,9.30793 5.772945,12.6945 0.448834,0.53708 1.212463,1.47976 1.696953,2.09484 1.068597,1.35665 2.982111,3.20424 4.612627,4.45374 2.449313,1.87696 6.124006,4.25127 7.843389,5.06781 1.747097,0.8297 4.933076,2.12999 6.485638,2.64698 2.497335,0.83158 6.4909,1.7822 9.33778,2.22274 2.37597,0.36767 8.91219,0.52193 12.45247,0.29389 z m 3.59876,-30.344589 c -1.27374,-0.245128 -2.3859,-0.834483 -3.312,-1.755108 -3.17378,-3.154989 -1.70054,-8.522942 2.69333,-9.813537 2.4238,-0.711938 5.36553,0.559706 6.58423,2.846206 1.77667,3.333389 0.22274,7.257684 -3.35853,8.481583 -0.61259,0.20936 -2.07071,0.344067 -2.60703,0.240856 z m 0.1506,-7.96015 c 0.38166,-0.219201 0.70384,-0.816561 0.70384,-1.304989 0,-0.687796 -0.83617,-1.521744 -1.52578,-1.521744 -0.73069,0 -1.52448,0.813063 -1.52533,1.56236 -0.001,1.26148 1.21318,1.915737 2.34727,1.264373 z m -16.50698,6.465186 c -0.98601,-0.324431 -1.7373,-0.931498 -2.27105,-1.835062 -0.12256,-0.207478 -0.25525,-0.377227 -0.29487,-0.377227 -0.0396,0 -0.26121,0.142733 -0.49244,0.317193 -2.091246,1.577788 -4.764822,0.971432 -5.790088,-1.313168 -0.269552,-0.600645 -0.355517,-1.004588 -0.401705,-1.8876 -0.05662,-1.082443 -0.04725,-1.134944 0.256928,-1.439114 0.37754,-0.377541 0.676703,-0.398605 1.086218,-0.07648 0.269576,0.212049 0.311427,0.356564 0.368585,1.272741 0.104968,1.682498 0.756581,2.564466 1.892549,2.561592 0.959543,-0.0023 1.465923,-0.331015 2.680053,-1.739094 0.66886,-0.775709 1.31674,-0.494722 1.73842,0.753952 0.48398,1.433111 1.11126,2.038226 2.11291,2.038226 1.02172,0 2.25537,-1.108043 2.55398,-2.293937 0.24583,-0.976262 0.92766,-1.284077 1.52381,-0.68793 0.27294,0.272942 0.30327,0.380277 0.23285,0.823923 -0.21306,1.342242 -1.37371,2.861048 -2.67291,3.497741 -0.79747,0.390809 -1.96359,0.568388 -2.52324,0.384244 z M 84.464694,92.460606 c -2.973087,-0.720777 -4.944947,-3.607826 -4.491974,-6.576817 0.522029,-3.421601 3.899945,-5.729822 7.147842,-4.884308 1.098983,0.286099 1.966884,0.772811 2.753911,1.544377 1.177479,1.154344 1.735122,2.528791 1.72322,4.247301 -0.01914,2.762953 -1.847931,5.032896 -4.572295,5.675227 -0.929618,0.219178 -1.639379,0.217577 -2.560704,-0.0058 z m 0.317585,-7.669668 c 0.583394,-0.243758 0.929694,-0.78864 0.929694,-1.462822 0,-0.470474 -0.06434,-0.621225 -0.414657,-0.971543 -0.228061,-0.228058 -0.564456,-0.443291 -0.747542,-0.478288 -1.011479,-0.193356 -2.080566,0.838764 -1.844219,1.780444 0.106931,0.426047 0.556894,0.942884 0.982034,1.127992 0.481467,0.209632 0.601955,0.210094 1.09469,0.0042 z m 74.472371,37.668702 c 0,-2.17542 -0.0506,-3.47523 -0.15196,-3.90484 -0.23211,-0.98362 -1.19191,-3.48583 -1.85991,-4.84885 -1.34142,-2.73707 -3.08306,-4.08151 -5.56865,-4.29868 -0.73471,-0.0642 -0.74921,-0.0594 -1.04638,0.34688 -0.52026,0.71124 -0.99268,2.00387 -0.90438,2.47454 0.0952,0.50772 0.17995,0.57995 1.13161,0.9651 0.41525,0.16806 1.07343,0.51683 1.4626,0.77505 1.02602,0.68077 2.73177,2.40638 3.38842,3.42786 0.6953,1.08162 1.00219,1.88114 1.65492,4.31138 0.62892,2.3416 0.94423,3.33702 1.24968,3.94516 0.22177,0.44152 0.25147,0.45973 0.44091,0.27034 0.17934,-0.17927 0.20314,-0.58516 0.20314,-3.46394 z m -12.29534,-3.29139 c 0.27539,-0.58743 0.58199,-1.26969 0.68133,-1.51614 0.25333,-0.62839 1.72226,-2.0718 2.45114,-2.40856 0.33117,-0.15301 0.90077,-0.30902 1.26578,-0.34669 l 0.66365,-0.0685 -0.47238,-0.28674 c -0.54693,-0.332 -0.89695,-0.46367 -2.97465,-1.11899 -0.83918,-0.26469 -1.77296,-0.5126 -2.07507,-0.55092 -0.3021,-0.0383 -1.23389,-0.16313 -2.07064,-0.27734 l -1.52136,-0.20767 -0.24855,0.34244 c -0.13669,0.18834 -0.72136,0.97946 -1.29924,1.75805 l -1.05071,1.4156 1.00208,1.17996 c 0.65259,0.76842 1.1188,1.45458 1.33675,1.96739 l 0.33466,0.78745 0.75149,0.18914 c 0.41332,0.10403 1.19554,0.19374 1.73827,0.19935 l 0.98677,0.0102 0.50068,-1.06805 z m -5.41859,0.54928 c -0.42395,-0.71632 -1.69048,-2.54701 -1.88205,-2.72037 -0.23374,-0.21153 -0.26307,-0.19588 -1.06369,0.5672 -0.45284,0.43159 -1.11444,1.0314 -1.47023,1.3329 l -0.64689,0.54819 1.10666,-0.11449 c 1.16728,-0.12076 2.73795,0.0425 3.48281,0.36212 0.47781,0.205 0.58347,0.21046 0.47339,0.0245 z m -64.129,-0.6397 c 0.503508,-0.0912 1.148626,-0.20218 1.433596,-0.24666 0.284969,-0.0445 0.550152,-0.13269 0.589297,-0.19603 0.03915,-0.0633 -0.662612,-0.86875 -1.559458,-1.7898 -0.896846,-0.92105 -1.975833,-2.1236 -2.397751,-2.67233 -0.924607,-1.20249 -1.664579,-1.73319 -3.131279,-2.24569 -0.604209,-0.21113 -1.201885,-0.43864 -1.328168,-0.50559 -0.21348,-0.11316 -0.222053,-0.0887 -0.122063,0.34888 0.129432,0.56637 0.143211,4.56204 0.01936,5.61346 l -0.08818,0.74862 0.454372,0.31099 c 0.564735,0.38651 1.72214,0.6901 3.078716,0.80753 1.158322,0.10027 1.715166,0.0686 3.051563,-0.17338 z m -8.828791,-0.26798 c 0.715081,-0.21263 1.167393,-0.63084 1.370313,-1.26701 0.08124,-0.25469 0.147063,-1.44482 0.15865,-2.86847 0.02225,-2.73355 -0.05231,-3.08266 -0.773862,-3.62355 -2.690727,-2.017 -7.315969,-2.03184 -9.958268,-0.032 -0.88091,0.66674 -1.82441,1.84229 -2.352598,2.93121 -0.686795,1.41592 -0.734963,1.71992 -0.14505,0.91547 0.796581,-1.08627 1.752216,-1.72591 3.016692,-2.01916 1.033205,-0.23962 2.055114,-0.0992 3.179017,0.43669 1.812225,0.86415 3.243817,2.92887 3.432618,4.9507 0.06127,0.65609 0.10978,0.7768 0.329422,0.81967 0.353541,0.069 0.991702,-0.0202 1.743066,-0.24359 z m -15.145388,-0.4961 c 0.186669,-0.31885 0.741156,-1.03952 1.232192,-1.60147 0.69626,-0.79681 0.893431,-1.10582 0.895692,-1.40372 0.0035,-0.45792 0.433578,-1.53902 0.992191,-2.49394 0.223765,-0.38252 0.915513,-1.20317 1.537217,-1.82367 l 1.13037,-1.12819 -0.05239,-0.82482 c -0.05387,-0.84822 -0.519064,-2.34599 -0.948055,-3.05245 -0.176955,-0.29141 -0.329086,-0.3967 -0.573161,-0.3967 -1.706977,0 -4.487874,3.59254 -5.338434,6.89653 -0.431345,1.67556 -0.455429,3.60634 -0.06243,5.00457 0.288941,1.02799 0.566526,1.5772 0.74227,1.46858 0.05782,-0.0358 0.257864,-0.32586 0.444531,-0.64472 z m 95.362029,-6.99569 c 0.1299,-0.97571 0.27055,-1.53177 0.55541,-2.19593 0.0694,-0.16175 -0.19246,-0.22134 -1.78399,-0.40604 -1.02591,-0.11906 -2.06372,-0.24555 -2.30624,-0.28109 l -0.44097,-0.0646 -0.39782,0.95891 c -0.21881,0.5274 -0.53216,1.22527 -0.69634,1.55083 -0.16416,0.32557 -0.28106,0.60552 -0.25976,0.62212 0.0213,0.0166 0.91757,0.15661 1.99172,0.31114 1.07416,0.15454 2.14525,0.35134 2.38022,0.43734 0.78666,0.28792 0.79653,0.27831 0.95777,-0.93266 z m -75.782101,-0.18094 c 0,-0.21952 -1.284722,-1.91687 -1.518012,-2.00557 -0.471981,-0.17944 -1.908425,-0.25552 -2.876239,-0.15233 l -0.915469,0.0976 0.9765,0.50001 c 0.537075,0.275 1.361245,0.61453 1.831487,0.7545 0.470244,0.13998 1.18431,0.39119 1.586814,0.55825 0.764613,0.31737 0.914919,0.35803 0.914919,0.24753 z m -11.545546,-2.19377 c 0.358409,-0.10419 1.303883,-0.2405 2.101052,-0.30291 0.797169,-0.0624 2.190928,-0.22436 3.097242,-0.3599 0.906315,-0.13554 2.265786,-0.24735 3.021048,-0.24847 0.755262,-9.2e-4 1.373204,-0.0307 1.373204,-0.0658 0,-0.0351 -0.211596,-0.48821 -0.470212,-1.00702 -0.258617,-0.51879 -0.563858,-1.19285 -0.678314,-1.49789 l -0.208101,-0.55462 -2.09861,-0.63431 c -3.132693,-0.94685 -3.456435,-1.02055 -4.789909,-1.09044 -1.374272,-0.072 -2.81214,0.20615 -3.75844,0.72714 -0.654039,0.36008 -0.710181,0.69303 -0.212446,1.25992 0.604403,0.68838 1.205865,2.12918 1.423605,3.41025 0.105046,0.61803 0.156556,0.70376 0.372954,0.62072 0.0964,-0.037 0.468517,-0.15251 0.826927,-0.2567 z m 87.407417,-4.64112 c 1.93576,-0.12604 4.17388,-0.71797 5.98106,-1.58183 0.93846,-0.44861 2.1731,-1.19146 2.54948,-1.53398 0.0598,-0.0544 -0.23054,-0.47056 -0.64901,-0.93014 -0.93067,-1.022092 -1.80473,-2.751946 -2.26942,-4.491442 -0.30684,-1.148544 -0.54521,-1.762028 -0.81734,-2.103437 -0.0898,-0.112691 -0.31356,-0.05093 -0.93073,0.256915 -1.52899,0.762658 -3.8901,1.574346 -5.53669,1.903368 l -0.69616,0.139103 0.0707,1.60986 c 0.0647,1.47269 -0.0897,4.951573 -0.28191,6.354073 l -0.0789,0.57585 0.78021,-0.0634 c 0.42909,-0.0349 1.27454,-0.0956 1.87875,-0.13494 z m 10.70179,-4.406971 c 2.42353,-1.251704 4.60466,-3.324019 6.53353,-6.207566 0.74744,-1.117376 1.56032,-2.502283 1.46873,-2.502283 -0.0278,0 -0.48495,0.112433 -1.01597,0.249852 -1.07524,0.278247 -2.90774,0.332879 -3.73088,0.111234 -0.69506,-0.187166 -1.89648,-0.78489 -2.5724,-1.279819 -0.31753,-0.232505 -0.83935,-0.805165 -1.15959,-1.272579 -0.32026,-0.467415 -0.60974,-0.851535 -0.64331,-0.853602 -0.0336,-0.0018 -0.3044,0.463817 -0.60184,1.0353 -0.67832,1.303277 -1.6327,2.468563 -2.60966,3.186411 -0.41555,0.305328 -0.77813,0.577139 -0.80578,0.604031 -0.0276,0.0269 0.0952,0.31616 0.27301,0.642829 0.1778,0.326669 0.46658,1.137135 0.64171,1.801034 0.49597,1.88002 1.08768,3.026737 2.12561,4.119413 0.48726,0.512956 0.91142,0.932646 0.94257,0.932646 0.0311,0 0.55057,-0.25511 1.15427,-0.566901 z M 67.930507,94.511616 c 0.04571,-1.469686 0.162709,-2.904464 0.299731,-3.675545 l 0.224755,-1.264811 -1.472185,-0.710411 c -0.809701,-0.390731 -2.092131,-1.06619 -2.849841,-1.501025 -1.595218,-0.915462 -1.391288,-0.981189 -2.167184,0.69848 -0.64709,1.400832 -1.032505,3.042243 -1.032505,4.397255 0,1.298207 0.05406,1.408176 1.072222,2.181241 1.55227,1.178596 3.185434,1.845208 5.397092,2.202944 0.167836,0.02717 0.338408,0.05684 0.379049,0.06599 0.04064,0.0091 0.10763,-1.068211 0.148866,-2.394113 z m -7.937315,-2.319191 c 0.106748,-2.323721 0.624072,-4.081385 1.718979,-5.840409 l 0.311333,-0.500175 -0.600603,-0.659419 c -0.589716,-0.647466 -0.600705,-0.653117 -0.606145,-0.31168 -0.0194,1.217874 -1.532572,2.581725 -3.690663,3.326487 -1.042628,0.359807 -3.125203,0.512944 -4.309973,0.316917 -0.402807,-0.06665 -0.750161,-0.104438 -0.771898,-0.08398 -0.02174,0.02044 0.390224,0.471941 0.915469,1.003297 1.067056,1.079477 2.579273,2.244412 3.798833,2.926428 0.707743,0.395792 2.884422,1.364695 3.089167,1.37508 0.0407,0.0018 0.106179,-0.696585 0.145501,-1.552548 z M 165.00729,90.565191 c 1.80733,-0.251379 3.09677,-1.075528 3.82738,-2.446262 0.34081,-0.639434 0.4099,-0.913354 0.46233,-1.833056 l 0.0617,-1.081281 -0.91421,0.422393 c -2.20002,1.016467 -4.15452,1.445129 -6.62648,1.453323 -0.93988,0.0032 -1.91963,-0.03658 -2.17722,-0.08824 -0.44843,-0.0899 -0.46489,-0.08189 -0.38675,0.188268 0.20438,0.706692 0.77246,1.631949 1.27832,2.082086 0.71108,0.63274 1.84344,1.165895 2.76018,1.299587 0.39742,0.05796 0.73235,0.112077 0.74427,0.120261 0.012,0.0082 0.44867,-0.04452 0.97052,-0.117083 z M 55.883997,87.585271 c 1.806475,-0.345635 3.635349,-1.486378 3.959971,-2.469989 0.162824,-0.493365 0.08635,-1.554269 -0.164011,-2.275378 l -0.16404,-0.472471 -0.215081,0.328256 c -0.399569,0.609821 -1.932892,2.138305 -2.74665,2.737981 -0.939061,0.692017 -1.722221,1.102332 -3.178926,1.665502 -0.864707,0.334304 -0.9936,0.416501 -0.741813,0.47308 0.970927,0.218171 2.153551,0.222909 3.25055,0.01301 z M 49.093213,87.22007 c 2.393325,-0.364609 4.289569,-0.958048 5.872319,-1.837761 1.976974,-1.09883 3.872909,-3.229301 5.983599,-6.72379 1.266992,-2.097656 1.508381,-2.674191 2.007179,-4.793959 0.246414,-1.047202 0.581219,-2.359826 0.744011,-2.916948 0.323245,-1.106235 1.921862,-4.373662 3.765219,-7.695763 0.646172,-1.164532 1.14744,-2.14475 1.113929,-2.178262 -0.03351,-0.03351 -0.66775,-0.322834 -1.40942,-0.64294 -2.236963,-0.965476 -3.762818,-2.019926 -4.457573,-3.080426 -0.206514,-0.31523 -0.408764,-0.576139 -0.449445,-0.579797 -0.04068,-0.0036 -0.644891,0.748076 -1.342687,1.670521 -0.697798,0.922444 -1.76903,2.254451 -2.380517,2.960017 -1.891348,2.182334 -4.942796,5.024922 -6.476218,6.032942 -0.459039,0.301762 -0.546744,0.445483 -0.903591,1.480731 -0.814432,2.362746 -2.464434,4.878546 -3.914559,5.96863 -1.231539,0.925763 -2.79289,1.532576 -3.943368,1.532576 -0.701497,0 -1.929037,-0.457122 -2.804847,-1.044499 -0.735615,-0.493351 -0.877815,-0.547341 -1.13408,-0.430576 -0.636719,0.290108 -1.478156,3.168183 -1.323096,4.525553 0.246564,2.158387 3.3842,6.08049 5.89771,7.372247 1.043746,0.536408 3.126796,0.690551 5.155435,0.381504 z m -3.1542,-4.398412 c -0.910257,-0.253141 -3.046912,-1.373092 -3.270436,-1.714233 -0.433389,-0.661435 -0.138928,-0.953504 2.242481,-2.224266 1.601705,-0.854699 1.865655,-1.06817 7.233718,-5.850333 2.550282,-2.271932 5.187618,-4.547485 5.851124,-5.04849 0.947993,-0.715813 1.290467,-0.835715 1.574506,-0.551253 0.483015,0.483732 0.05381,3.507609 -0.911169,6.419445 -0.501327,1.512762 -1.051834,2.543088 -1.808378,3.384547 -1.793072,1.994325 -7.711969,5.490562 -9.649616,5.699932 -0.368447,0.03981 -0.868665,-0.0059 -1.26223,-0.115349 z m 2.30463,-1.10761 c 1.636419,-0.664936 3.768165,-1.8685 5.636967,-3.182572 1.073781,-0.755046 1.185113,-0.882813 0.905575,-1.039249 -0.291431,-0.163092 -1.729427,-1.97548 -2.122042,-2.674528 -0.18495,-0.329303 -0.365773,-0.59879 -0.401831,-0.598859 -0.03606,-6.5e-5 -0.891046,0.727674 -1.899979,1.617204 -3.360878,2.963137 -3.573113,3.121529 -5.510793,4.112623 -0.688128,0.351969 -1.251142,0.677097 -1.251142,0.722511 0,0.12429 1.385809,0.861006 2.109798,1.121598 0.886729,0.319163 1.609503,0.296705 2.533447,-0.07873 z m 8.058833,-5.267689 c 0.284115,-0.318887 0.734937,-1.041676 1.001828,-1.606193 0.531418,-1.124038 1.396327,-4.323348 1.51911,-5.619207 l 0.07453,-0.786591 -0.734157,0.576784 c -0.403787,0.317235 -1.73108,1.455597 -2.94954,2.5297 l -2.215382,1.952916 0.297352,0.5868 c 0.478012,0.943308 2.112092,2.945587 2.403926,2.945587 0.04717,0 0.318219,-0.26091 0.602333,-0.579796 z m 108.506014,9.183149 c 6.61932,-1.428821 11.42615,-6.448121 12.96586,-13.538994 0.38698,-1.782147 0.38545,-5.319909 -0.003,-7.110517 -1.10543,-5.094649 -3.66788,-8.686186 -8.10782,-11.363946 -3.1919,-1.925052 -6.40412,-2.86604 -9.73746,-2.852498 -2.57522,0.01046 -4.34538,0.416745 -6.49986,1.491829 -1.75615,0.876314 -4.17664,2.729521 -4.09467,3.135015 0.0218,0.107874 0.53832,0.342869 1.30326,0.592931 3.77734,1.234815 5.73722,3.140291 7.51783,7.309105 0.30233,0.70782 0.66136,1.505848 0.79785,1.773392 l 0.24817,0.486449 h -0.34955 c -0.2979,0 -1.11863,-0.239259 -1.87366,-0.546202 -0.16852,-0.06851 -0.14217,0.07681 0.15072,0.83107 0.63385,1.632354 0.6067,2.90576 -0.092,4.315237 -0.1726,0.348191 -0.28143,0.717488 -0.24183,0.820662 0.0396,0.103174 0.51844,0.518623 1.06414,0.923226 0.54568,0.404599 0.92925,0.735637 0.85237,0.735637 -0.57351,0 -2.00696,-0.321881 -2.53105,-0.568342 -0.72274,-0.339868 -1.17254,-0.854094 -1.74507,-1.994971 -0.61838,-1.232227 -1.06261,-1.805301 -1.74813,-2.255204 -0.79859,-0.524103 -1.81118,-0.860484 -3.13335,-1.040895 -0.57034,-0.07782 -1.10643,-0.199146 -1.19134,-0.269606 -0.0849,-0.07046 -0.24008,-0.422993 -0.34486,-0.783404 -0.3861,-1.328157 -0.88369,-1.361847 -1.56813,-0.106177 -0.59277,1.087523 -1.01502,2.198666 -1.29352,3.403844 -0.38294,1.657189 -0.30575,3.923838 0.18542,5.445693 1.46975,4.553736 5.74042,8.781924 10.60408,10.498579 1.01659,0.35882 2.80007,0.79234 3.67796,0.894042 0.98341,0.113918 4.27789,-0.02957 5.18766,-0.225955 z M 45.492368,74.890425 c 1.076895,-0.522024 1.982852,-1.3181 2.885556,-2.535578 1.142184,-1.540465 1.389373,-2.120977 3.468353,-8.145259 0.481773,-1.396043 0.705688,-2.275914 0.854239,-3.35672 0.222087,-1.615847 0.291662,-4.078817 0.14021,-4.963576 -0.122234,-0.714086 -0.826218,-1.550845 -1.643309,-1.95325 -0.518414,-0.255311 -0.736715,-0.283486 -2.104204,-0.271581 -1.797101,0.01564 -2.406957,0.200179 -3.848953,1.164645 -3.067488,2.05166 -5.437093,5.470243 -6.396595,9.228238 -0.833118,3.263002 -0.771277,6.351147 0.168388,8.408875 0.55896,1.224038 2.475087,2.730087 3.758235,2.953919 0.761853,0.132898 1.747379,-0.05917 2.71808,-0.529713 z m -9.574633,-4.592138 c 1.54979,-0.388936 1.457474,-0.277472 1.457474,-1.759772 0,-0.70255 -0.02543,-1.277364 -0.05651,-1.277364 -0.03108,0 -0.346919,0.115708 -0.70186,0.257136 -1.605508,0.639707 -4.318765,0.334037 -5.388259,-0.607029 -0.739765,-0.650935 -0.985306,-2.075946 -0.570681,-3.311983 0.392823,-1.171047 1.815304,-4.059147 2.588436,-5.25537 1.235401,-1.91146 3.176304,-3.661011 5.176585,-4.666227 2.672021,-1.34279 6.295373,-1.924858 8.057518,-1.294387 0.552278,0.197598 1.163163,0.278465 2.612777,0.345871 1.587054,0.0738 1.98317,0.131708 2.457865,0.359326 0.853364,0.409192 1.517902,1.041781 1.887079,1.796352 0.304168,0.621697 0.336621,0.829546 0.390213,2.499139 0.03215,1.001574 0.0757,1.821045 0.09678,1.821045 0.02108,0 0.274526,-0.158811 0.563213,-0.352912 1.007195,-0.6772 2.138351,-1.235301 4.202205,-2.073331 1.143187,-0.464192 2.364756,-0.989032 2.714597,-1.166309 0.634893,-0.321724 0.635896,-0.323167 0.539829,-0.775621 -0.05293,-0.249314 -0.09488,-0.975115 -0.09321,-1.612892 0.0034,-1.308876 0.181,-1.787303 1.05208,-2.83453 l 0.479426,-0.576372 -0.324777,-0.08151 c -0.178627,-0.04483 -1.512605,-0.04408 -2.964395,0.0017 -2.827775,0.0891 -2.915111,0.08281 -9.292026,-0.669771 -3.886892,-0.458716 -7.282996,-0.525222 -9.337489,-0.182855 -3.886421,0.647645 -7.982679,2.947987 -10.899961,6.121107 -1.651843,1.796707 -2.682878,3.687679 -3.267709,5.99315 -0.508326,2.003882 -0.394135,3.526324 0.379359,5.057783 0.690433,1.367002 1.997434,2.923517 3.086653,3.675905 1.263646,0.872881 3.126426,1.078758 5.154794,0.569717 z m 0.532035,-3.691729 c 0.457852,-0.166188 0.877599,-0.347804 0.932773,-0.403584 0.05517,-0.05578 0.218497,-0.672992 0.362942,-1.371578 0.725219,-3.507423 2.153158,-6.234331 4.538382,-8.66686 1.01315,-1.033242 2.452362,-2.180124 3.303706,-2.632662 0.249742,-0.132753 0.454076,-0.27865 0.454076,-0.324218 0,-0.159643 -1.241012,-0.251441 -2.233172,-0.165189 -1.214493,0.10558 -3.612966,0.778751 -4.803462,1.348168 -1.819309,0.870183 -3.782194,2.58876 -4.879507,4.272188 -0.878323,1.347465 -2.125301,3.840344 -2.545927,5.089656 -0.299404,0.889268 -0.322761,1.06491 -0.200691,1.509221 0.265211,0.965333 0.830309,1.394613 2.147239,1.631178 0.901549,0.161949 1.979513,0.05638 2.923641,-0.28632 z m 16.471473,-0.958561 c 1.206983,-0.9902 3.251596,-2.931767 3.251596,-3.087721 0,-0.316346 -1.483933,-2.747397 -1.627752,-2.666662 -0.661735,0.371476 -0.935561,0.687366 -0.935561,1.079279 0,0.560524 -0.62865,2.955487 -1.089164,4.149381 -0.206572,0.535541 -0.375586,0.9887 -0.375586,1.007015 0,0.111067 0.222638,-0.02694 0.776467,-0.481292 z m 5.079859,-5.008739 c 1.053519,-1.216454 2.943805,-3.66042 2.880282,-3.723941 -0.02135,-0.02135 -0.931108,0.327185 -2.021673,0.774537 -1.889588,0.775115 -3.32884,1.485955 -3.348919,1.654018 -0.01585,0.132693 1.328082,2.42096 1.422927,2.422763 0.04925,9.69e-4 0.529567,-0.506383 1.067383,-1.127377 z m 10.909956,-1.883925 c 1.0762,-0.756381 2.023274,-2.619334 3.135278,-6.167284 0.729242,-2.326712 1.964465,-6.711698 1.906868,-6.769296 -0.07873,-0.07873 -6.152924,2.419338 -7.466081,3.070491 -3.098385,1.536395 -4.2439,3.248936 -3.713333,5.551416 0.246488,1.069672 1.006243,2.473315 1.647035,3.042887 1.873622,1.665379 3.339487,2.080561 4.490233,1.271786 z m -3.005875,-3.831908 c -0.252933,-0.133511 -0.628607,-0.474384 -0.834833,-0.757497 -0.341819,-0.469258 -0.370798,-0.581949 -0.327904,-1.27513 0.146882,-2.373672 3.06184,-3.280669 4.339361,-1.350204 0.631367,0.95406 0.274642,2.397285 -0.794278,3.213467 -0.483255,0.368993 -0.641082,0.422212 -1.238161,0.417504 -0.438588,-0.0035 -0.849439,-0.09256 -1.144185,-0.24814 z m 2.165282,-0.423437 c 0.715148,-0.54547 1.125557,-1.458388 0.987194,-2.195925 -0.105161,-0.560561 -0.749384,-1.215506 -1.382055,-1.405058 -1.071654,-0.321076 -2.317522,0.481463 -2.567587,1.653939 -0.144418,0.677133 -0.08472,0.972009 0.302309,1.493298 0.668729,0.900707 1.817288,1.09662 2.660139,0.453746 z m 6.122438,0.01793 c 12.220696,-4.437191 21.498706,-9.681195 27.553317,-15.573345 2.03781,-1.983136 4.98359,-5.390286 4.81025,-5.563632 -0.0402,-0.04023 -28.26863,11.128375 -31.524969,12.472903 -0.06713,0.02772 -0.470778,1.290164 -0.896986,2.805434 -0.650843,2.313896 -1.671343,5.667463 -1.928744,6.338239 -0.03787,0.09869 -0.01466,0.179444 0.05159,0.179444 0.06625,0 0.937241,-0.296568 1.935544,-0.659041 z m -3.86081,-8.246911 c 1.711927,-0.683846 3.175301,-1.30794 3.251943,-1.386876 0.07664,-0.07894 1.79538,-7.201786 3.819421,-15.828556 2.024039,-8.62677 3.708142,-15.767428 3.74245,-15.86813 0.03431,-0.100701 -0.301574,0.173939 -0.746404,0.610313 -4.973062,4.878526 -9.196203,15.00276 -12.703583,30.454603 -0.365729,1.611225 -0.697539,3.033934 -0.737355,3.161575 -0.05127,0.164358 -0.02376,0.212867 0.09427,0.16625 0.09167,-0.0362 1.567332,-0.625334 3.279259,-1.309179 z"
       id="path302" /></g></svg>
