<?xml version="1.0" encoding="UTF-8" standalone="no"?><!DOCTYPE svg PUBLIC "-//W3C//DTD SVG 1.1//EN" "http://www.w3.org/Graphics/SVG/1.1/DTD/svg11.dtd"><svg width="100%" height="100%" viewBox="0 0 512 512" version="1.1" xmlns="http://www.w3.org/2000/svg" xmlns:xlink="http://www.w3.org/1999/xlink" xml:space="preserve" xmlns:serif="http://www.serif.com/" style="fill-rule:evenodd;clip-rule:evenodd;stroke-linejoin:round;stroke-miterlimit:2;"><g><g id="Krabbe"><g id="Schatten" opacity="0.4"><path d="M110.65,437.051c-1.538,1.474 -0.421,4.716 -0.702,6.553c-0.231,1.51 -1.774,3.19 -0.983,4.468c1.03,1.663 4.56,4.036 7.161,5.51c2.714,1.539 6.318,3.351 9.126,3.723c2.596,0.345 5.592,-0.62 7.722,-1.489c1.914,-0.781 3.976,-1.872 5.054,-3.723c1.287,-2.209 1.246,-6.58 2.668,-9.531c1.638,-3.401 4.329,-8.042 7.16,-10.872c2.764,-2.761 6.127,-5.212 9.829,-6.106c3.907,-0.943 9.163,-0.489 13.618,0.447c4.844,1.018 10.257,3.898 15.445,5.659c8.26,2.805 22.575,8.09 34.117,11.169c15.07,4.021 40.951,9.854 56.301,12.957c11.853,2.396 30.771,2.581 35.803,5.659c3.845,2.353 -9.537,10.6 -5.617,12.808c5.687,3.202 26.583,6.28 39.734,6.404c13.151,0.124 26.583,-2.805 39.172,-5.66c12.366,-2.803 24.828,-6.056 36.364,-11.467c11.536,-5.411 26.045,-15.736 32.854,-20.998c3.444,-2.662 8.915,-7.571 8.003,-10.574c-0.912,-3.003 -8.895,-5.157 -13.477,-7.446c-10.086,-5.039 -35.804,-18.318 -47.036,-22.786c-6.463,-2.571 -13.96,-1.273 -20.358,-4.021c-11.384,-4.89 -30.716,-20.355 -47.944,-25.32c-18.216,-5.25 -46.046,-4.302 -61.357,-6.181c-10.226,-1.254 -20.243,-4.253 -30.507,-5.09c-10.397,-0.848 -22.252,-4.774 -31.878,0c-13.807,6.848 -37.091,30.181 -50.96,41.088c-10.602,8.338 -24.036,18.555 -32.254,24.358c-5.468,3.86 -14.098,7.626 -17.058,10.461Z" style="fill-opacity:0.5;"/><path d="M309.838,463.535c-2.052,-0.663 -5.095,-1.088 -8.58,-1.519c-7.741,-0.957 -17.481,-1.613 -24.655,-3.063c-15.398,-3.112 -41.357,-8.963 -56.472,-12.996c-11.604,-3.096 -25.997,-8.405 -34.301,-11.225c-5.079,-1.725 -10.369,-4.572 -15.112,-5.568c-4.046,-0.85 -8.817,-1.322 -12.365,-0.466c-3.188,0.77 -6.052,2.938 -8.432,5.317c-2.599,2.597 -5.04,6.879 -6.544,10c-0.739,1.535 -0.968,3.529 -1.317,5.279c-0.349,1.751 -0.801,3.329 -1.47,4.478c-1.415,2.428 -4.024,4.001 -6.535,5.025c-2.527,1.031 -6.097,2.086 -9.177,1.677c-3.122,-0.414 -7.153,-2.364 -10.172,-4.075c-3.035,-1.721 -7.056,-4.633 -8.258,-6.574c-0.696,-1.125 -0.861,-2.341 -0.614,-3.633c0.123,-0.642 0.374,-1.322 0.675,-2c0.167,-0.376 0.411,-0.734 0.467,-1.099c0.151,-0.99 -0.2,-2.433 -0.166,-3.716c0.049,-1.882 0.606,-3.531 1.822,-4.696c3.026,-2.899 11.818,-6.803 17.407,-10.75c8.187,-5.781 21.569,-15.959 32.129,-24.264c13.999,-11.01 37.543,-34.504 51.478,-41.416c5.287,-2.622 11.175,-2.937 17.179,-2.398c5.459,0.49 11.015,1.683 16.206,2.107c10.302,0.84 20.358,3.842 30.622,5.102c15.423,1.892 43.451,0.983 61.801,6.271c17.342,4.998 36.825,20.519 48.284,25.442c2.927,1.257 6.114,1.545 9.301,1.857c3.75,0.366 7.503,0.749 10.984,2.133c11.286,4.489 37.128,17.825 47.262,22.887c3.275,1.636 8.243,3.225 11.253,5.071c2.065,1.265 3.36,2.813 3.807,4.285c0.501,1.65 0.219,3.671 -0.968,5.743c-1.688,2.948 -5.437,6.313 -8.128,8.392c-6.923,5.35 -21.68,15.837 -33.409,21.338c-11.725,5.499 -24.385,8.82 -36.953,11.67c-12.799,2.902 -26.458,5.856 -39.828,5.729c-13.616,-0.128 -35.231,-3.461 -41.118,-6.776c-1,-0.563 -1.589,-1.312 -1.94,-2.102c-0.373,-0.841 -0.493,-1.786 -0.294,-2.828c0.25,-1.311 1.305,-3.07 2.808,-4.824c0.919,-1.072 1.991,-2.199 2.898,-3.272c0.137,-0.163 0.283,-0.351 0.425,-0.543Zm-199.188,-26.484c-1.538,1.474 -0.421,4.716 -0.702,6.553c-0.231,1.51 -1.774,3.19 -0.983,4.468c1.03,1.663 4.56,4.036 7.161,5.51c2.714,1.539 6.318,3.351 9.126,3.723c2.596,0.345 5.592,-0.62 7.722,-1.489c1.914,-0.781 3.976,-1.872 5.054,-3.723c1.287,-2.209 1.246,-6.58 2.668,-9.531c1.638,-3.401 4.329,-8.042 7.16,-10.872c2.764,-2.761 6.127,-5.212 9.829,-6.106c3.907,-0.943 9.163,-0.489 13.618,0.447c4.844,1.018 10.257,3.898 15.445,5.659c8.26,2.805 22.575,8.09 34.117,11.169c15.07,4.021 40.951,9.854 56.301,12.957c11.853,2.396 30.771,2.581 35.803,5.659c3.845,2.353 -9.537,10.6 -5.617,12.808c5.687,3.202 26.583,6.28 39.734,6.404c13.151,0.124 26.583,-2.805 39.172,-5.66c12.366,-2.803 24.828,-6.056 36.364,-11.467c11.536,-5.411 26.045,-15.736 32.854,-20.998c3.444,-2.662 8.915,-7.571 8.003,-10.574c-0.912,-3.003 -8.895,-5.157 -13.477,-7.446c-10.086,-5.039 -35.804,-18.318 -47.036,-22.786c-6.463,-2.571 -13.96,-1.273 -20.358,-4.021c-11.384,-4.89 -30.716,-20.355 -47.944,-25.32c-18.216,-5.25 -46.046,-4.302 -61.357,-6.181c-10.226,-1.254 -20.243,-4.253 -30.507,-5.09c-10.397,-0.848 -22.252,-4.774 -31.878,0c-13.807,6.848 -37.091,30.181 -50.96,41.088c-10.602,8.338 -24.036,18.555 -32.254,24.358c-5.468,3.86 -14.098,7.626 -17.058,10.461Z" style="fill-opacity:0.5;"/><path d="M163.707,402.232c-2.603,1.986 -6.231,7.249 -3.745,9.397c2.722,2.353 13.602,2.338 20.08,4.719c10.313,3.79 27.45,13.245 41.8,18.024c15.223,5.07 34.37,10.212 49.544,12.395c13.708,1.971 31.327,0.164 41.497,0.698c6.548,0.344 17.111,-1.684 19.525,2.506c2.413,4.19 -9.397,18.861 -5.046,22.633c4.351,3.773 20.981,2.224 31.152,0c11.005,-2.406 26.252,-9.121 34.881,-14.435c6.797,-4.187 13.089,-11.652 16.892,-17.453c3.31,-5.049 6.508,-11.337 5.923,-17.349c-0.585,-6.011 -6.153,-14.901 -9.433,-18.719c-2.467,-2.87 -6.815,-3.257 -10.252,-4.188c-3.376,-0.914 -6.895,-1.673 -10.37,-1.396c-3.703,0.295 -7.78,3.403 -11.846,3.168c-10.092,-0.582 -32.437,-4.71 -48.702,-6.659c-20.475,-2.453 -52.285,-6.353 -74.15,-8.059c-18.973,-1.481 -42.413,-4.632 -57.038,-2.179c-11.391,1.91 -24.97,12.515 -30.712,16.897Z"/><path d="M329.704,451.471c-0.171,-0.157 -0.417,-0.242 -0.675,-0.343c-0.809,-0.319 -1.8,-0.474 -2.89,-0.566c-4.164,-0.352 -9.502,0.298 -13.405,0.093c-10.233,-0.538 -27.96,1.26 -41.753,-0.724c-15.325,-2.204 -34.665,-7.391 -50.041,-12.512c-14.378,-4.788 -31.55,-14.256 -41.884,-18.053c-4.417,-1.624 -10.942,-2.069 -15.365,-2.997c-2.563,-0.537 -4.555,-1.334 -5.631,-2.263c-1.621,-1.401 -2.2,-3.358 -1.848,-5.603c0.489,-3.113 3.382,-7.067 5.736,-8.863c5.973,-4.559 20.153,-15.473 32.001,-17.46c14.802,-2.483 38.526,0.65 57.729,2.149c21.899,1.709 53.759,5.614 74.267,8.071c16.207,1.941 38.472,6.063 48.527,6.643c1.632,0.094 3.25,-0.56 4.848,-1.19c2.268,-0.894 4.5,-1.806 6.609,-1.974c3.799,-0.303 7.65,0.487 11.341,1.486c2.154,0.584 4.647,0.98 6.857,1.838c1.875,0.727 3.563,1.767 4.875,3.294c3.589,4.177 9.563,13.967 10.203,20.542c0.655,6.733 -2.739,13.846 -6.446,19.501c-4.013,6.121 -10.679,13.972 -17.853,18.391c-8.851,5.452 -24.495,12.333 -35.785,14.801c-7.377,1.613 -18.037,2.86 -25.315,2.136c-3.76,-0.374 -6.719,-1.377 -8.35,-2.791c-1.39,-1.206 -2.09,-2.908 -2.077,-5.054c0.013,-1.951 0.733,-4.446 1.813,-7.081c1.31,-3.197 3.138,-6.687 4.077,-9.503c0.22,-0.663 0.382,-1.628 0.435,-1.968Zm-165.997,-49.239c-2.603,1.986 -6.231,7.249 -3.745,9.397c2.722,2.353 13.602,2.338 20.08,4.719c10.313,3.79 27.45,13.245 41.8,18.024c15.223,5.07 34.37,10.212 49.544,12.395c13.708,1.971 31.327,0.164 41.497,0.698c6.548,0.344 17.111,-1.684 19.525,2.506c2.413,4.19 -9.397,18.861 -5.046,22.633c4.351,3.773 20.981,2.224 31.152,0c11.005,-2.406 26.252,-9.121 34.881,-14.435c6.797,-4.187 13.089,-11.652 16.892,-17.453c3.31,-5.049 6.508,-11.337 5.923,-17.349c-0.585,-6.011 -6.153,-14.901 -9.433,-18.719c-2.467,-2.87 -6.815,-3.257 -10.252,-4.188c-3.376,-0.914 -6.895,-1.673 -10.37,-1.396c-3.703,0.295 -7.78,3.403 -11.846,3.168c-10.092,-0.582 -32.437,-4.71 -48.702,-6.659c-20.475,-2.453 -52.285,-6.353 -74.15,-8.059c-18.973,-1.481 -42.413,-4.632 -57.038,-2.179c-11.391,1.91 -24.97,12.515 -30.712,16.897Z"/></g><g id="Rechts-Beine" serif:id="Rechts Beine"><g id="Hinten"><g id="Substanz"><g id="Ebene4"><path d="M410.955,378.351c-0.76,-1.489 0.663,-3.73 1.337,-5.473c0.685,-1.769 1.465,-4.319 2.769,-5.138c1.304,-0.819 3.411,-0.177 5.055,0.223c1.965,0.479 4.704,1.311 6.739,2.652c2.036,1.341 3.93,3.323 5.476,5.395c1.614,2.164 2.994,4.954 4.212,7.59c1.263,2.736 2.439,6.181 3.369,8.824c0.815,2.317 1.786,4.606 2.212,7.037c0.509,2.904 0.737,7.149 0.842,10.388c0.098,3.015 -0.088,6.497 -0.21,9.047c-0.101,2.09 -0.229,5.157 -0.527,6.255c-0.12,0.442 -1.029,0.723 -1.264,0.335c-0.596,-0.987 -1.685,-4.117 -2.316,-6.255c-0.825,-2.792 -1.667,-7.093 -2.633,-10.499c-0.949,-3.349 -1.755,-6.925 -3.159,-9.941c-1.375,-2.954 -3.387,-5.845 -5.265,-8.154c-1.754,-2.156 -4.212,-4.226 -6.002,-5.696c-1.471,-1.209 -3.132,-2.132 -4.739,-3.128c-1.772,-1.098 -5.137,-1.973 -5.896,-3.462Z" style="fill:#992f28;"/><path d="M408.403,379.815c-0.527,-1.032 -0.682,-2.21 -0.484,-3.478c0.232,-1.485 1.141,-3.211 1.69,-4.628c0.451,-1.166 0.953,-2.635 1.582,-3.822c0.66,-1.248 1.489,-2.228 2.392,-2.795c0.973,-0.611 2.168,-0.875 3.469,-0.817c1.218,0.054 2.565,0.409 3.714,0.689c2.226,0.543 5.315,1.518 7.62,3.037c2.307,1.52 4.467,3.751 6.22,6.099c1.735,2.326 3.233,5.314 4.542,8.147c1.304,2.822 2.523,6.374 3.482,9.101c0.874,2.483 1.889,4.945 2.346,7.551c0.531,3.032 0.78,7.462 0.89,10.844c0.1,3.102 -0.087,6.686 -0.213,9.31c-0.112,2.324 -0.305,5.729 -0.636,6.95c-0.332,1.22 -1.721,2.536 -3.209,2.717c-1.447,0.176 -2.656,-0.534 -3.284,-1.572c-0.67,-1.107 -1.935,-4.599 -2.644,-6.997c-0.827,-2.801 -1.674,-7.116 -2.642,-10.534c-0.903,-3.185 -1.647,-6.595 -2.982,-9.464c-1.267,-2.721 -3.13,-5.379 -4.86,-7.505c-1.628,-2.001 -3.921,-3.909 -5.582,-5.274c-1.372,-1.127 -2.928,-1.976 -4.426,-2.904c-1.238,-0.767 -3.256,-1.424 -4.615,-2.26c-1.122,-0.69 -1.931,-1.535 -2.37,-2.395Zm2.552,-1.464c0.759,1.489 4.124,2.364 5.896,3.462c1.607,0.996 3.268,1.919 4.739,3.128c1.79,1.47 4.248,3.54 6.002,5.696c1.878,2.309 3.89,5.2 5.265,8.154c1.404,3.016 2.21,6.592 3.159,9.941c0.966,3.406 1.808,7.707 2.633,10.499c0.631,2.138 1.72,5.268 2.316,6.255c0.235,0.388 1.144,0.107 1.264,-0.335c0.298,-1.098 0.426,-4.165 0.527,-6.255c0.122,-2.55 0.308,-6.032 0.21,-9.047c-0.105,-3.239 -0.333,-7.484 -0.842,-10.388c-0.426,-2.431 -1.397,-4.72 -2.212,-7.037c-0.93,-2.643 -2.106,-6.088 -3.369,-8.824c-1.218,-2.636 -2.598,-5.426 -4.212,-7.59c-1.546,-2.072 -3.44,-4.054 -5.476,-5.395c-2.035,-1.341 -4.774,-2.173 -6.739,-2.652c-1.644,-0.4 -3.751,-1.042 -5.055,-0.223c-1.304,0.819 -2.084,3.369 -2.769,5.138c-0.674,1.743 -2.097,3.984 -1.337,5.473Z"/><path d="M393.053,363.855c5.331,0.637 21.428,2.477 17.684,2.433c-2.257,-0.027 -3.235,12.814 -2.52,12.733c3.629,-0.41 -17.302,-4.337 -18.295,-4.133c-4.658,0.961 -1.024,-11.53 3.131,-11.033Z" style="fill:#992f28;"/><path d="M412.071,369.164c-0.682,1.914 -0.99,5.874 -1.105,7.83c0.833,1.163 0.72,2.298 0.261,3.27c-0.21,0.445 -0.836,1.606 -2.703,1.817c-0.655,0.074 -1.284,-0.065 -1.877,-0.455c-0.203,-0.133 -0.426,-0.312 -0.639,-0.56c-3.897,-1.095 -13.287,-2.829 -15.772,-3.089c-0.029,-0.003 -0.063,-0.006 -0.096,-0.009c-1.294,0.188 -2.313,-0.134 -3.114,-0.678c-1.505,-1.022 -2.48,-3.422 -2.084,-6.439c0.4,-3.039 2.066,-6.696 4.094,-8.509c1.338,-1.196 2.846,-1.724 4.342,-1.545c4.314,0.516 15.598,1.817 18,2.291c1.43,0.282 2.059,1.067 2.18,1.228c0.72,0.953 0.76,1.916 0.526,2.78c-0.047,0.173 -0.471,1.545 -2.013,2.068Zm-4.044,9.33c-0.26,-2.406 0.736,-12.23 2.71,-12.206c3.744,0.044 -12.353,-1.796 -17.684,-2.433c-4.155,-0.497 -7.789,11.994 -3.131,11.033c0.812,-0.167 14.969,2.431 18.105,3.606Zm0,0c0.037,0.345 0.1,0.537 0.19,0.527c0.66,-0.075 0.507,-0.266 -0.19,-0.527Z"/></g></g></g><g id="Mitte"><g id="Substanz1" serif:id="Substanz"><g id="Ebene3"><path d="M389.789,404.152c1.002,0.216 2.738,0.894 4.107,1.072c1.358,0.178 2.966,0 4.106,0c0.913,0 2.036,0.57 2.738,0c0.702,-0.569 0.937,-2.302 1.475,-3.417c0.544,-1.128 1.281,-2.346 1.79,-3.351c0.445,-0.88 0.799,-1.812 1.263,-2.681c0.597,-1.117 1.322,-2.858 2.317,-4.021c1.035,-1.21 2.51,-2.439 3.896,-3.239c1.365,-0.788 3.054,-1.359 4.423,-1.564c1.255,-0.188 3.896,0.782 3.791,0.335c-0.106,-0.446 -2.827,-2.249 -4.423,-3.015c-1.667,-0.801 -3.734,-1.146 -5.581,-1.787c-2.036,-0.708 -4.651,-1.937 -6.634,-2.458c-1.716,-0.451 -3.651,-0.447 -5.265,-0.67c-1.477,-0.204 -3.124,-0.484 -4.423,-0.67c-1.122,-0.161 -2.456,-0.354 -3.369,-0.447c-0.703,-0.071 -1.498,-0.476 -2.114,-0.112c-0.912,0.54 -2.503,2.253 -3.362,3.351c-0.753,0.964 -1.051,2.264 -1.79,3.239c-0.79,1.043 -2.387,2.048 -2.949,3.016c-0.465,0.803 -0.665,1.886 -0.421,2.793c0.246,0.912 1.274,1.778 1.896,2.68c0.666,0.968 1.426,2.068 2.106,3.128c0.895,1.396 2.51,3.983 3.264,5.249c0.452,0.761 0.73,1.918 1.256,2.346c0.507,0.412 1.278,0.088 1.903,0.223Z" style="fill:#ff4e43;"/><path d="M389.308,407.189c-0.451,-0.026 -2.397,-0.176 -3.187,-0.818c-0.427,-0.347 -0.83,-0.838 -1.166,-1.457c-0.273,-0.502 -0.481,-1.189 -0.778,-1.688c-0.741,-1.245 -2.33,-3.789 -3.21,-5.162c-0.661,-1.031 -1.401,-2.1 -2.05,-3.042c-0.345,-0.501 -0.831,-0.984 -1.209,-1.477c-0.542,-0.707 -0.938,-1.448 -1.133,-2.174c-0.459,-1.702 -0.135,-3.744 0.74,-5.251c0.355,-0.613 0.939,-1.269 1.633,-1.901c0.521,-0.474 1.149,-0.933 1.524,-1.429c0.316,-0.417 0.488,-0.934 0.715,-1.415c0.313,-0.661 0.662,-1.296 1.104,-1.861c1.057,-1.352 3.059,-3.41 4.182,-4.074c0.623,-0.369 1.293,-0.538 2,-0.54c0.58,-0.002 1.221,0.217 1.804,0.276c0.944,0.096 2.322,0.294 3.481,0.46c1.295,0.186 2.937,0.465 4.409,0.669c1.714,0.237 3.766,0.255 5.588,0.734c2.043,0.537 4.741,1.791 6.839,2.52c1.946,0.676 4.117,1.065 5.874,1.908c1.49,0.716 3.811,2.219 4.746,3.052c0.887,0.791 1.202,1.626 1.295,2.021c0.212,0.897 0.052,1.642 -0.267,2.268c-0.278,0.545 -0.714,1.055 -1.419,1.386c-0.338,0.159 -1.017,0.367 -1.949,0.245c-0.62,-0.081 -1.864,-0.546 -2.565,-0.441c-1.065,0.16 -2.379,0.607 -3.441,1.22c-1.115,0.644 -2.302,1.631 -3.135,2.604c-0.852,0.996 -1.43,2.514 -1.941,3.47c-0.453,0.849 -0.796,1.76 -1.232,2.62c-0.5,0.989 -1.227,2.186 -1.763,3.296c-0.363,0.753 -0.574,1.8 -0.905,2.547c-0.371,0.837 -0.858,1.483 -1.389,1.913c-0.691,0.561 -1.487,0.843 -2.37,0.882c-0.666,0.03 -1.454,-0.248 -2.131,-0.248c-1.239,-0 -2.985,0.169 -4.461,-0.023c-1.398,-0.183 -3.165,-0.843 -4.233,-1.09Zm0.481,-3.037c1.002,0.216 2.738,0.894 4.107,1.072c1.358,0.178 2.966,0 4.106,0c0.913,0 2.036,0.57 2.738,0c0.702,-0.569 0.937,-2.302 1.475,-3.417c0.544,-1.128 1.281,-2.346 1.79,-3.351c0.445,-0.88 0.799,-1.812 1.263,-2.681c0.597,-1.117 1.322,-2.858 2.317,-4.021c1.035,-1.21 2.51,-2.439 3.896,-3.239c1.365,-0.788 3.054,-1.359 4.423,-1.564c1.255,-0.188 3.896,0.782 3.791,0.335c-0.106,-0.446 -2.827,-2.249 -4.423,-3.015c-1.667,-0.801 -3.734,-1.146 -5.581,-1.787c-2.036,-0.708 -4.651,-1.937 -6.634,-2.458c-1.716,-0.451 -3.651,-0.447 -5.265,-0.67c-1.477,-0.204 -3.124,-0.484 -4.423,-0.67c-1.122,-0.161 -2.456,-0.354 -3.369,-0.447c-0.703,-0.071 -1.498,-0.476 -2.114,-0.112c-0.912,0.54 -2.503,2.253 -3.362,3.351c-0.753,0.964 -1.051,2.264 -1.79,3.239c-0.79,1.043 -2.387,2.048 -2.949,3.016c-0.465,0.803 -0.665,1.886 -0.421,2.793c0.246,0.912 1.274,1.778 1.896,2.68c0.666,0.968 1.426,2.068 2.106,3.128c0.895,1.396 2.51,3.983 3.264,5.249c0.452,0.761 0.73,1.918 1.256,2.346c0.507,0.412 1.278,0.088 1.903,0.223Z"/><path d="M402.846,408.173c-0.138,1.395 0.376,2.784 0.737,4.133c0.474,1.768 1.324,4.35 2.106,6.478c0.843,2.29 2.054,5.194 2.949,7.26c0.754,1.74 1.641,3.412 2.422,5.138c0.842,1.862 1.776,4.011 2.632,6.032c0.86,2.029 1.755,4.064 2.528,6.143c0.789,2.126 1.632,4.846 2.211,6.614c0.435,1.328 0.79,2.81 1.264,3.997c0.434,1.089 0.859,2.904 1.579,3.128c0.72,0.223 2.127,-0.853 2.738,-1.788c0.913,-1.396 1.932,-4.346 2.738,-6.59c0.842,-2.345 1.579,-5.091 2.316,-7.482c0.705,-2.287 1.492,-4.63 2.106,-6.864c0.594,-2.161 1.318,-4.307 1.58,-6.54c0.316,-2.691 0.333,-6.832 0.316,-9.606c-0.015,-2.35 -0.106,-4.711 -0.421,-7.037c-0.351,-2.588 -0.79,-6.013 -1.685,-8.489c-0.841,-2.325 -2.422,-4.67 -3.686,-6.366c-1.095,-1.47 -2.738,-2.73 -3.896,-3.81c-0.991,-0.923 -1.895,-2.224 -3.054,-2.669c-1.158,-0.444 -2.737,-0.186 -3.896,0c-1.064,0.171 -2.169,0.465 -3.054,1.117c-1.439,1.061 -4.317,3.593 -5.581,5.25c-1.017,1.334 -1.439,3.425 -2,4.691c-0.435,0.979 -0.965,1.91 -1.369,2.904c-0.492,1.21 -1.439,2.941 -1.58,4.356Z" style="fill:#ff4e43;"/><path d="M399.961,407.851c0.168,-1.694 1.212,-3.803 1.8,-5.251c0.417,-1.025 0.961,-1.987 1.409,-2.997c0.641,-1.446 1.208,-3.792 2.37,-5.316c1.402,-1.839 4.584,-4.664 6.181,-5.841c1.243,-0.917 2.777,-1.393 4.275,-1.633c1.581,-0.254 3.736,-0.459 5.318,0.149c1.471,0.565 2.723,2.078 3.981,3.251c1.273,1.186 3.054,2.598 4.257,4.213c1.421,1.906 3.174,4.559 4.119,7.172c0.965,2.672 1.468,6.361 1.847,9.153c0.334,2.464 0.435,4.964 0.451,7.454c0.018,2.89 -0.009,7.203 -0.338,10.007c-0.281,2.395 -1.036,4.704 -1.674,7.022c-0.622,2.264 -1.418,4.64 -2.133,6.958c-0.751,2.436 -1.505,5.233 -2.363,7.622c-0.889,2.474 -2.058,5.708 -3.065,7.248c-0.711,1.088 -2.081,2.28 -3.245,2.777c-1.011,0.432 -1.964,0.436 -2.692,0.21c-0.782,-0.243 -1.603,-0.839 -2.223,-1.893c-0.468,-0.797 -0.856,-2.093 -1.213,-2.988c-0.497,-1.245 -0.877,-2.796 -1.333,-4.187c-0.568,-1.737 -1.394,-4.408 -2.17,-6.496c-0.755,-2.034 -1.632,-4.024 -2.474,-6.009c-0.846,-1.998 -1.769,-4.122 -2.602,-5.962c-0.788,-1.742 -1.682,-3.429 -2.442,-5.185c-0.916,-2.113 -2.154,-5.084 -3.015,-7.426c-0.816,-2.219 -1.7,-4.912 -2.194,-6.756c-0.461,-1.721 -1.008,-3.516 -0.832,-5.296Zm2.885,0.322c-0.138,1.395 0.376,2.784 0.737,4.133c0.474,1.768 1.324,4.35 2.106,6.478c0.843,2.29 2.054,5.194 2.949,7.26c0.754,1.74 1.641,3.412 2.422,5.138c0.842,1.862 1.776,4.011 2.632,6.032c0.86,2.029 1.755,4.064 2.528,6.143c0.789,2.126 1.632,4.846 2.211,6.614c0.435,1.328 0.79,2.81 1.264,3.997c0.434,1.089 0.859,2.904 1.579,3.128c0.72,0.223 2.127,-0.853 2.738,-1.788c0.913,-1.396 1.932,-4.346 2.738,-6.59c0.842,-2.345 1.579,-5.091 2.316,-7.482c0.705,-2.287 1.492,-4.63 2.106,-6.864c0.594,-2.161 1.318,-4.307 1.58,-6.54c0.316,-2.691 0.333,-6.832 0.316,-9.606c-0.015,-2.35 -0.106,-4.711 -0.421,-7.037c-0.351,-2.588 -0.79,-6.013 -1.685,-8.489c-0.841,-2.325 -2.422,-4.67 -3.686,-6.366c-1.095,-1.47 -2.738,-2.73 -3.896,-3.81c-0.991,-0.923 -1.895,-2.224 -3.054,-2.669c-1.158,-0.444 -2.737,-0.186 -3.896,0c-1.064,0.171 -2.169,0.465 -3.054,1.117c-1.439,1.061 -4.317,3.593 -5.581,5.25c-1.017,1.334 -1.439,3.425 -2,4.691c-0.435,0.979 -0.965,1.91 -1.369,2.904c-0.492,1.21 -1.439,2.941 -1.58,4.356Z"/></g></g><g id="Schatten1" serif:id="Schatten" opacity="0.4"><g id="Ebene2"><path d="M389.157,376.01c3.001,-0.149 10.548,1.839 14.321,2.788c2.841,0.714 6.634,2.159 8.319,2.904c0.713,0.315 1.146,1.11 1.79,1.563c1.562,1.099 7.336,4.021 7.582,5.027c0.245,1.005 -4.634,0.484 -6.108,1.005c-1.072,0.379 -1.954,1.258 -2.738,2.122c-0.86,0.949 -1.965,2.476 -2.421,3.574c-0.385,0.926 -0.616,2.056 -0.316,3.016c0.473,1.519 2.391,3.926 3.156,6.098c1.125,3.195 2.281,8.754 3.594,13.075c1.356,4.465 3.088,9.708 4.543,13.717c1.27,3.5 3.137,9.024 4.186,10.337c0.675,0.845 1.368,-1.675 2.106,-2.458c0.79,-0.838 1.702,-1.835 2.632,-2.569c0.915,-0.722 2.743,-2.599 2.949,-1.837c0.206,0.762 -1.108,4.344 -1.713,6.407c-0.588,2.006 -1.36,4.273 -1.913,5.967c-0.458,1.404 -0.879,2.822 -1.405,4.198c-0.558,1.459 -1.332,3.347 -1.942,4.556c-0.482,0.955 -0.91,2.166 -1.716,2.694c-0.805,0.527 -2.307,1.179 -3.117,0.472c-1.02,-0.891 -2.089,-3.828 -2.998,-5.815c-1.142,-2.495 -2.746,-6.172 -3.855,-9.159c-1.065,-2.869 -1.888,-6.23 -2.797,-8.762c-0.785,-2.186 -1.759,-4.501 -2.658,-6.428c-0.822,-1.762 -2.021,-3.322 -2.738,-5.135c-0.825,-2.085 -1.65,-5.345 -2.211,-7.375c-0.439,-1.586 -0.983,-3.347 -1.159,-4.803c-0.156,-1.3 0.685,-3.275 0.106,-3.931c-0.579,-0.655 -2.562,0 -3.581,0l-7.687,0c-0.772,0 -1.845,0.649 -2.316,0c-1.053,-1.448 -2.562,-6.235 -4.002,-8.69c-1.292,-2.206 -3.562,-4.331 -4.633,-6.044c-0.806,-1.288 -2.352,-2.805 -1.79,-4.232c0.842,-2.139 5.09,-6.554 6.845,-8.601c1.135,-1.324 2,-3.597 3.685,-3.681Z"/><path d="M425.792,435.727c0.697,-0.728 1.453,-1.48 2.214,-2.081c0.538,-0.424 1.38,-1.224 2.053,-1.71c0.715,-0.516 1.397,-0.791 1.869,-0.879c0.829,-0.157 1.523,0.015 2.079,0.314c0.724,0.39 1.344,1.028 1.639,2.12c0.122,0.45 0.206,1.236 0.021,2.248c-0.265,1.455 -1.24,4.239 -1.752,5.987c-0.598,2.039 -1.382,4.344 -1.944,6.065c-0.475,1.456 -0.914,2.926 -1.46,4.354c-0.595,1.557 -1.426,3.572 -2.077,4.862c-0.726,1.439 -1.575,3.109 -2.789,3.904c-0.972,0.637 -2.559,1.288 -3.887,1.258c-1.033,-0.024 -1.966,-0.374 -2.727,-1.038c-0.516,-0.451 -1.081,-1.177 -1.603,-2.113c-0.758,-1.361 -1.519,-3.309 -2.189,-4.772c-1.17,-2.557 -2.811,-6.324 -3.947,-9.384c-1.069,-2.88 -1.897,-6.253 -2.81,-8.795c-0.751,-2.091 -1.682,-4.305 -2.543,-6.148c-0.85,-1.822 -2.074,-3.442 -2.815,-5.316c-0.863,-2.181 -1.737,-5.588 -2.324,-7.712c-0.484,-1.747 -1.063,-3.693 -1.256,-5.297c-0.037,-0.303 -0.03,-0.723 -0.001,-1.168c-0.192,0.016 -0.361,0.026 -0.488,0.026l-7.583,0c-0.228,0.05 -1.475,0.315 -2.029,0.281c-1.129,-0.068 -2.067,-0.549 -2.776,-1.524c-1.087,-1.496 -2.687,-6.419 -4.174,-8.955c-1.277,-2.179 -3.528,-4.272 -4.585,-5.965c-0.549,-0.878 -1.374,-1.87 -1.83,-2.857c-0.672,-1.455 -0.794,-2.938 -0.229,-4.372c0.923,-2.343 5.472,-7.275 7.395,-9.518c0.697,-0.813 1.301,-1.971 2.04,-2.79c1.041,-1.154 2.274,-1.86 3.732,-1.932c3.174,-0.158 11.167,1.867 15.157,2.87c2.998,0.754 7.003,2.277 8.782,3.064c0.622,0.274 1.166,0.686 1.661,1.181c0.216,0.216 0.389,0.495 0.635,0.668c1.274,0.896 5.29,2.994 6.976,4.318c1.197,0.94 1.714,1.987 1.856,2.569c0.2,0.817 0.116,1.557 -0.159,2.233c-0.299,0.734 -0.944,1.611 -2.235,2.051c-0.643,0.218 -1.76,0.351 -2.98,0.4c-1.015,0.041 -2.157,-0.038 -2.696,0.153c-0.618,0.218 -1.067,0.806 -1.518,1.305c-0.643,0.709 -1.497,1.828 -1.838,2.649c-0.096,0.232 -0.288,0.485 -0.213,0.726c0.18,0.575 0.674,1.293 1.155,2.098c0.746,1.25 1.514,2.607 1.964,3.885c1.137,3.229 2.312,8.845 3.639,13.213c1.339,4.41 3.05,9.589 4.487,13.549c0.632,1.74 1.39,4.049 2.103,5.975Zm-36.635,-59.717c-1.685,0.084 -2.55,2.357 -3.685,3.681c-1.755,2.047 -6.003,6.462 -6.845,8.601c-0.562,1.427 0.984,2.944 1.79,4.232c1.071,1.713 3.341,3.838 4.633,6.044c1.44,2.455 2.949,7.242 4.002,8.69c0.471,0.649 1.544,0 2.316,0l7.687,0c1.019,0 3.002,-0.655 3.581,0c0.579,0.656 -0.262,2.631 -0.106,3.931c0.176,1.456 0.72,3.217 1.159,4.803c0.561,2.03 1.386,5.29 2.211,7.375c0.717,1.813 1.916,3.373 2.738,5.135c0.899,1.927 1.873,4.242 2.658,6.428c0.909,2.532 1.732,5.893 2.797,8.762c1.109,2.987 2.713,6.664 3.855,9.159c0.909,1.987 1.978,4.924 2.998,5.815c0.81,0.707 2.312,0.055 3.117,-0.472c0.806,-0.528 1.234,-1.739 1.716,-2.694c0.61,-1.209 1.384,-3.097 1.942,-4.556c0.526,-1.376 0.947,-2.794 1.405,-4.198c0.553,-1.694 1.325,-3.961 1.913,-5.967c0.605,-2.063 1.919,-5.645 1.713,-6.407c-0.206,-0.762 -2.034,1.115 -2.949,1.837c-0.93,0.734 -1.842,1.731 -2.632,2.569c-0.738,0.783 -1.431,3.303 -2.106,2.458c-1.049,-1.313 -2.916,-6.837 -4.186,-10.337c-1.455,-4.009 -3.187,-9.252 -4.543,-13.717c-1.313,-4.321 -2.469,-9.88 -3.594,-13.075c-0.765,-2.172 -2.683,-4.579 -3.156,-6.098c-0.3,-0.96 -0.069,-2.09 0.316,-3.016c0.456,-1.098 1.561,-2.625 2.421,-3.574c0.784,-0.864 1.666,-1.743 2.738,-2.122c1.474,-0.521 6.353,-0 6.108,-1.005c-0.246,-1.006 -6.02,-3.928 -7.582,-5.027c-0.644,-0.453 -1.077,-1.248 -1.79,-1.563c-1.685,-0.745 -5.478,-2.19 -8.319,-2.904c-3.773,-0.949 -11.32,-2.937 -14.321,-2.788Z" style="fill:none;"/></g></g><g id="Highlights" opacity="0.7"><g id="Ebene1"><path d="M414.114,392.524c0.245,0.596 2.958,1.016 4.317,1.799c1.457,0.84 3.108,1.949 4.423,3.239c1.649,1.62 4.352,5.734 5.475,6.479c0.644,0.426 1.159,-1.319 1.264,-2.011c0.105,-0.691 -0.309,-1.475 -0.632,-2.139c-0.544,-1.116 -1.667,-3.335 -2.632,-4.563c-0.88,-1.118 -2.142,-2.078 -3.16,-2.804c-0.91,-0.649 -1.912,-1.256 -2.948,-1.552c-1.035,-0.296 -2.246,-0.482 -3.264,-0.223c-1.018,0.259 -3.089,1.18 -2.843,1.775Z" style="fill:#fff;"/></g></g></g><g id="Vorne"><g id="Substanz2" serif:id="Substanz"><path d="M310.132,468.936c0.646,0.924 3.044,2.169 4.781,2.681c2.075,0.611 5.099,1.183 7.666,0.987c2.935,-0.223 6.66,-1.407 9.941,-2.327c3.453,-0.969 7.385,-2.071 10.782,-3.485c3.32,-1.383 6.81,-3.232 9.604,-5.004c2.55,-1.618 4.947,-3.527 7.16,-5.63c2.289,-2.174 4.943,-5.152 6.571,-7.416c1.342,-1.865 2.64,-4.319 3.201,-6.166c0.475,-1.56 0.277,-3.279 0.169,-4.914c-0.112,-1.698 -0.379,-3.738 -0.843,-5.272c-0.425,-1.409 -1.151,-2.815 -1.937,-3.932c-0.761,-1.081 -1.703,-2.054 -2.78,-2.77c-1.165,-0.774 -2.727,-1.519 -4.212,-1.876c-1.671,-0.403 -3.869,-0.614 -5.813,-0.537c-2.232,0.09 -5.209,0.269 -7.581,1.073c-2.373,0.804 -4.673,2.116 -6.655,3.753c-2.219,1.831 -4.821,4.486 -6.656,7.237c-1.867,2.8 -3.074,6.568 -4.549,9.562c-1.39,2.823 -2.41,5.92 -4.296,8.399c-1.994,2.621 -5.391,5.197 -7.666,7.327c-1.97,1.845 -4.833,4.066 -5.981,5.451c-0.626,0.755 -1.471,2.052 -0.906,2.859Z" style="fill:#ff4e43;"/><path d="M307.714,470.839c-0.653,-0.933 -0.89,-2.017 -0.735,-3.181c0.168,-1.259 1.016,-2.747 1.798,-3.69c1.203,-1.452 4.184,-3.802 6.25,-5.736c2.163,-2.025 5.419,-4.446 7.315,-6.939c1.762,-2.316 2.671,-5.234 3.971,-7.872c1.533,-3.113 2.818,-7.016 4.759,-9.927c2.005,-3.006 4.841,-5.912 7.264,-7.914c2.26,-1.866 4.883,-3.358 7.588,-4.275c2.626,-0.889 5.915,-1.122 8.385,-1.221c2.204,-0.088 4.697,0.157 6.592,0.613c1.813,0.436 3.722,1.339 5.145,2.285c1.39,0.923 2.612,2.171 3.594,3.565c0.972,1.382 1.866,3.126 2.392,4.868c0.529,1.754 0.85,4.083 0.978,6.023c0.135,2.038 0.285,4.175 -0.306,6.119c-0.648,2.13 -2.125,4.971 -3.673,7.122c-1.725,2.398 -4.532,5.556 -6.956,7.858c-2.356,2.239 -4.909,4.27 -7.624,5.992c-2.923,1.854 -6.575,3.789 -10.048,5.236c-3.503,1.458 -7.553,2.601 -11.114,3.599c-3.461,0.971 -7.398,2.19 -10.494,2.426c-2.909,0.221 -6.338,-0.403 -8.688,-1.096c-2.362,-0.696 -5.515,-2.599 -6.393,-3.855Zm2.418,-1.903c0.646,0.924 3.044,2.169 4.781,2.681c2.075,0.611 5.099,1.183 7.666,0.987c2.935,-0.223 6.66,-1.407 9.941,-2.327c3.453,-0.969 7.385,-2.071 10.782,-3.485c3.32,-1.383 6.81,-3.232 9.604,-5.004c2.55,-1.618 4.947,-3.527 7.16,-5.63c2.289,-2.174 4.943,-5.152 6.571,-7.416c1.342,-1.865 2.64,-4.319 3.201,-6.166c0.475,-1.56 0.277,-3.279 0.169,-4.914c-0.112,-1.698 -0.379,-3.738 -0.843,-5.272c-0.425,-1.409 -1.151,-2.815 -1.937,-3.932c-0.761,-1.081 -1.703,-2.054 -2.78,-2.77c-1.165,-0.774 -2.727,-1.519 -4.212,-1.876c-1.671,-0.403 -3.869,-0.614 -5.813,-0.537c-2.232,0.09 -5.209,0.269 -7.581,1.073c-2.373,0.804 -4.673,2.116 -6.655,3.753c-2.219,1.831 -4.821,4.486 -6.656,7.237c-1.867,2.8 -3.074,6.568 -4.549,9.562c-1.39,2.823 -2.41,5.92 -4.296,8.399c-1.994,2.621 -5.391,5.197 -7.666,7.327c-1.97,1.845 -4.833,4.066 -5.981,5.451c-0.626,0.755 -1.471,2.052 -0.906,2.859Z"/><path d="M366.806,402.724c-0.576,1.534 5.096,-0.909 7.16,-0.894c1.768,0.013 3.535,0.425 5.223,0.983c1.713,0.566 3.833,1.698 5.055,2.413c0.841,0.492 2.218,2.621 2.274,1.876c0.056,-0.745 -0.955,-4.468 -1.937,-6.344c-0.983,-1.877 -2.766,-3.56 -3.96,-4.915c-1.003,-1.139 -1.87,-3.879 -3.201,-3.217c-2.303,1.147 -10.039,8.564 -10.614,10.098Z" style="fill:#ff4e43;"/><path d="M382.675,407.956c-1.101,-0.639 -2.908,-1.607 -4.381,-2.094c-1.407,-0.464 -2.875,-0.828 -4.348,-0.838c-0.824,-0.006 -2.326,0.526 -3.627,0.87c-1.501,0.398 -2.853,0.586 -3.558,0.494c-1.175,-0.154 -1.905,-0.767 -2.348,-1.385c-0.577,-0.806 -0.983,-1.92 -0.405,-3.461c0.237,-0.63 1.242,-2.085 2.779,-3.716c2.863,-3.04 7.59,-7.212 9.353,-8.091c1.546,-0.769 2.951,-0.505 4.237,0.574c0.526,0.441 1.049,1.104 1.522,1.865c0.321,0.517 0.599,1.121 0.923,1.489c1.336,1.518 3.29,3.442 4.391,5.544c0.797,1.522 1.627,4.087 2.021,5.789c0.255,1.1 0.315,1.97 0.286,2.361c-0.108,1.424 -0.8,2.127 -1.378,2.538c-0.729,0.52 -1.721,0.838 -2.954,0.295c-0.342,-0.15 -0.906,-0.521 -1.482,-1.131c-0.284,-0.302 -0.906,-0.97 -1.031,-1.103Zm-15.869,-5.232c-0.576,1.534 5.096,-0.909 7.16,-0.894c1.768,0.013 3.535,0.425 5.223,0.983c1.713,0.566 3.833,1.698 5.055,2.413c0.841,0.492 2.218,2.621 2.274,1.876c0.056,-0.745 -0.955,-4.468 -1.937,-6.344c-0.983,-1.877 -2.766,-3.56 -3.96,-4.915c-1.003,-1.139 -1.87,-3.879 -3.201,-3.217c-2.303,1.147 -10.039,8.564 -10.614,10.098Z"/><path d="M344.313,421.578c0.534,0.372 3.094,-1.789 4.802,-2.056c1.91,-0.297 4.591,-0.029 6.655,0.269c1.95,0.281 3.892,0.768 5.729,1.519c1.895,0.774 3.959,1.757 5.644,3.127c1.684,1.37 3.498,3.014 4.464,5.093c1.011,2.175 1.264,6.002 1.601,7.953c0.214,1.239 -0.393,3.738 0.421,3.753c0.815,0.015 3.087,-2.304 4.465,-3.664c1.404,-1.385 2.752,-3.023 3.959,-4.646c1.202,-1.615 2.415,-3.262 3.286,-5.093c0.87,-1.832 1.53,-3.962 1.937,-5.898c0.393,-1.869 0.45,-4.08 0.506,-5.719c0.047,-1.37 0.285,-2.826 -0.169,-4.11c-0.463,-1.311 -1.544,-2.77 -2.611,-3.753c-1.067,-0.983 -2.402,-1.776 -3.791,-2.145c-1.966,-0.521 -5.363,-1.012 -8.003,-0.982c-2.637,0.029 -5.742,0.863 -7.834,1.161c-1.571,0.224 -3.213,0.098 -4.718,0.626c-1.825,0.64 -4.303,1.87 -6.234,3.217c-2.457,1.712 -6.823,5.167 -8.508,7.059c-0.996,1.117 -2.134,3.916 -1.601,4.289Z" style="fill:#ff4e43;"/><path d="M342.658,424.246c-0.782,-0.546 -1.577,-1.601 -1.485,-3.33c0.076,-1.432 1.343,-4.463 2.552,-5.821c1.794,-2.013 6.428,-5.711 9.044,-7.535c2.15,-1.498 4.909,-2.867 6.942,-3.58c1.68,-0.589 3.507,-0.508 5.262,-0.758c2.19,-0.312 5.443,-1.159 8.203,-1.19c2.891,-0.033 6.612,0.507 8.765,1.078c1.843,0.489 3.62,1.528 5.035,2.832c1.426,1.313 2.837,3.291 3.457,5.043c0.591,1.673 0.419,3.561 0.358,5.347c-0.062,1.805 -0.143,4.24 -0.576,6.298c-0.458,2.181 -1.207,4.577 -2.188,6.64c-0.96,2.022 -2.284,3.851 -3.61,5.634c-1.302,1.751 -2.759,3.514 -4.272,5.007c-1.256,1.239 -3.194,3.139 -4.382,3.856c-0.865,0.522 -1.645,0.672 -2.186,0.662c-1.426,-0.026 -2.478,-0.743 -3.065,-2.248c-0.196,-0.501 -0.336,-1.233 -0.334,-2.094c0.001,-0.643 0.162,-1.489 0.068,-2.028c-0.3,-1.741 -0.437,-5.176 -1.339,-7.116c-0.765,-1.646 -2.262,-2.886 -3.596,-3.971c-1.458,-1.185 -3.255,-2.012 -4.895,-2.682c-1.619,-0.662 -3.332,-1.087 -5.052,-1.335c-1.802,-0.26 -4.143,-0.533 -5.811,-0.273c-0.401,0.063 -0.86,0.362 -1.313,0.614c-0.919,0.512 -1.791,1.025 -2.377,1.245c-1.459,0.551 -2.571,0.147 -3.205,-0.295Zm1.655,-2.668c0.534,0.372 3.094,-1.789 4.802,-2.056c1.91,-0.297 4.591,-0.029 6.655,0.269c1.95,0.281 3.892,0.768 5.729,1.519c1.895,0.774 3.959,1.757 5.644,3.127c1.684,1.37 3.498,3.014 4.464,5.093c1.011,2.175 1.264,6.002 1.601,7.953c0.214,1.239 -0.393,3.738 0.421,3.753c0.815,0.015 3.087,-2.304 4.465,-3.664c1.404,-1.385 2.752,-3.023 3.959,-4.646c1.202,-1.615 2.415,-3.262 3.286,-5.093c0.87,-1.832 1.53,-3.962 1.937,-5.898c0.393,-1.869 0.45,-4.08 0.506,-5.719c0.047,-1.37 0.285,-2.826 -0.169,-4.11c-0.463,-1.311 -1.544,-2.77 -2.611,-3.753c-1.067,-0.983 -2.402,-1.776 -3.791,-2.145c-1.966,-0.521 -5.363,-1.012 -8.003,-0.982c-2.637,0.029 -5.742,0.863 -7.834,1.161c-1.571,0.224 -3.213,0.098 -4.718,0.626c-1.825,0.64 -4.303,1.87 -6.234,3.217c-2.457,1.712 -6.823,5.167 -8.508,7.059c-0.996,1.117 -2.134,3.916 -1.601,4.289Z"/></g><g id="Schatten2" serif:id="Schatten" opacity="0.4"><path d="M310.87,467.238c2.158,-1.191 8.223,-1.979 12.215,-3.395c4.703,-1.668 11.014,-3.636 16.005,-6.612c5.645,-3.366 13.732,-9.8 17.859,-13.582c2.781,-2.549 5.701,-6.598 6.908,-9.115c0.855,-1.781 0.323,-4.572 0.337,-5.987c0.009,-0.838 -0.828,-2.308 -0.253,-2.502c0.576,-0.193 2.699,0.461 3.707,1.341c1.109,0.968 2.41,2.742 2.949,4.468c0.645,2.07 1.152,5.292 0.926,7.952c-0.238,2.815 -1.165,6.33 -2.359,8.936c-1.155,2.524 -2.975,4.672 -4.801,6.702c-2.05,2.278 -4.706,5.057 -7.498,6.969c-3.369,2.309 -8.308,4.988 -12.72,6.881c-4.479,1.921 -9.618,3.857 -14.153,4.646c-4.295,0.748 -9.747,0.581 -13.057,0.09c-2.437,-0.362 -5.792,-1.907 -6.803,-3.039c-0.829,-0.927 -0.331,-3.163 0.738,-3.753Z"/><path d="M366.384,403.975c1.376,0.834 7.245,-0.954 10.194,-0.537c2.652,0.376 5.517,2.026 7.497,3.039c1.572,0.803 3.931,3.753 4.381,3.038c0.449,-0.715 -0.969,-5.466 -1.685,-7.328c-0.562,-1.461 -1.662,-2.626 -2.612,-3.842c-1.151,-1.474 -3.243,-3.931 -4.296,-5.004c-0.584,-0.595 -1.274,-1.759 -2.022,-1.429c-1.923,0.848 -7.609,4.512 -9.519,6.523c-1.318,1.387 -3.313,4.706 -1.938,5.54Z"/><path d="M367.227,423.186c1.769,-0.164 7.666,2.264 10.53,1.608c2.757,-0.63 5.363,-3.365 6.655,-5.54c1.273,-2.142 0.843,-5.912 1.095,-7.505c0.11,-0.692 0.07,-1.802 0.421,-2.056c0.351,-0.253 1.344,0.03 1.685,0.537c0.492,0.729 1.08,2.499 1.264,3.842c0.267,1.951 0.924,5.314 0.337,7.863c-0.772,3.351 -3.145,9.055 -4.97,12.242c-1.527,2.666 -4.297,5.376 -5.982,6.88c-1.172,1.047 -3.116,1.877 -4.127,2.145c-0.648,0.171 -1.705,0.127 -1.938,-0.536c-0.365,-1.043 -0.154,-4.215 -0.253,-5.719c-0.072,-1.106 -0.073,-2.234 -0.337,-3.306c-0.266,-1.087 -0.772,-2.204 -1.263,-3.217c-0.485,-0.999 -1.151,-2.085 -1.685,-2.859c-0.446,-0.648 -1.278,-1.058 -1.516,-1.788c-0.239,-0.729 -0.728,-2.516 0.084,-2.591Z"/></g><g id="Highlights1" serif:id="Highlights" opacity="0.7"><path d="M374.977,406.208c-0.042,0.73 3.959,2.949 5.728,4.2c1.608,1.137 4.241,3.634 4.886,3.306c0.646,-0.327 -0.238,-3.991 -1.01,-5.272c-0.769,-1.274 -2.23,-2.088 -3.623,-2.412c-1.6,-0.373 -5.939,-0.551 -5.981,0.178Z" style="fill:#fff;"/><path d="M357.034,430.692c-0.373,-0.71 0.354,-1.937 1.095,-2.145c0.744,-0.208 2.348,0.317 3.37,0.894c1.081,0.611 2.527,1.802 3.116,2.77c0.524,0.86 0.885,2.472 0.422,3.038c-0.464,0.566 -2.256,0.896 -3.202,0.358c-1.333,-0.76 -4.184,-3.739 -4.801,-4.915Z" style="fill:#fff;"/><path d="M359.688,434.948c1.589,0.855 2.087,3.208 1.11,5.253c-0.977,2.044 -3.06,3.01 -4.65,2.156c-1.589,-0.854 -2.086,-3.207 -1.109,-5.252c0.977,-2.044 3.06,-3.011 4.649,-2.157Z" style="fill:#fff;"/></g></g></g><g id="Links-Beine" serif:id="Links Beine"><g id="Bein-Hinten" serif:id="Bein Hinten"><g id="Substanz3" serif:id="Substanz"><path d="M92.272,400.806c1.053,1.132 2.324,-3.07 3.538,-4.557c1.362,-1.668 3.37,-3.753 4.633,-5.451c1.106,-1.485 1.971,-3.154 2.949,-4.736c1.151,-1.861 2.475,-4.413 3.959,-6.433c1.488,-2.026 3.791,-4.066 4.97,-5.719c0.903,-1.264 1.916,-2.627 2.106,-4.2c0.211,-1.742 -0.393,-4.244 -0.842,-6.255c-0.444,-1.989 -1.25,-4.378 -1.853,-5.808c-0.43,-1.018 -1.138,-2.204 -1.769,-2.77c-0.537,-0.48 -1.339,-0.797 -2.022,-0.625c-1.123,0.283 -3.396,1.132 -4.718,2.323c-1.867,1.683 -4.703,4.876 -6.486,7.774c-1.994,3.239 -4.278,7.509 -5.476,11.661c-1.207,4.185 -1.937,9.315 -1.769,13.448c0.159,3.904 1.727,10.216 2.78,11.348Z" style="fill:#ff4e43;"/><path d="M90.129,403.049c-0.493,-0.529 -1.173,-1.723 -1.73,-3.388c-0.916,-2.743 -1.792,-7.054 -1.915,-10.065c-0.182,-4.462 0.594,-10.003 1.898,-14.521c1.28,-4.437 3.703,-9.01 5.834,-12.472c1.941,-3.154 5.026,-6.631 7.058,-8.462c1.678,-1.512 4.545,-2.637 5.971,-2.997c1.562,-0.393 3.434,0.194 4.66,1.293c0.9,0.806 1.963,2.455 2.575,3.905c0.663,1.569 1.547,4.193 2.035,6.377c0.53,2.373 1.148,5.34 0.899,7.397c-0.255,2.114 -1.479,4.022 -2.692,5.721c-1.186,1.663 -3.499,3.718 -4.996,5.755c-1.434,1.952 -2.704,4.424 -3.816,6.222c-1.027,1.66 -1.944,3.405 -3.103,4.963c-1.289,1.731 -3.332,3.862 -4.721,5.563c-0.603,0.739 -1.182,2.257 -1.774,3.252c-0.614,1.032 -1.317,1.745 -1.898,2.095c-0.738,0.444 -1.48,0.571 -2.195,0.476c-0.696,-0.093 -1.42,-0.393 -2.09,-1.114Zm2.143,-2.243c1.053,1.132 2.324,-3.07 3.538,-4.557c1.362,-1.668 3.37,-3.753 4.633,-5.451c1.106,-1.485 1.971,-3.154 2.949,-4.736c1.151,-1.861 2.475,-4.413 3.959,-6.433c1.488,-2.026 3.791,-4.066 4.97,-5.719c0.903,-1.264 1.916,-2.627 2.106,-4.2c0.211,-1.742 -0.393,-4.244 -0.842,-6.255c-0.444,-1.989 -1.25,-4.378 -1.853,-5.808c-0.43,-1.018 -1.138,-2.204 -1.769,-2.77c-0.537,-0.48 -1.339,-0.797 -2.022,-0.625c-1.123,0.283 -3.396,1.132 -4.718,2.323c-1.867,1.683 -4.703,4.876 -6.486,7.774c-1.994,3.239 -4.278,7.509 -5.476,11.661c-1.207,4.185 -1.937,9.315 -1.769,13.448c0.159,3.904 1.727,10.216 2.78,11.348Z"/><path d="M110.974,350.409c0.154,-1.221 1.997,-2.189 3.285,-2.77c1.685,-0.759 4.507,-1.519 6.824,-1.787c2.316,-0.268 4.737,-0.155 7.076,0.179c2.401,0.342 5.11,1.251 7.329,1.876c2.009,0.567 4.188,1.281 5.981,1.877c1.603,0.532 3.528,1.281 4.777,1.698c0.898,0.299 2.196,-0.025 2.72,0.804c1.31,2.07 6.304,9.442 5.139,11.616c-1.165,2.174 -8.873,0.968 -12.131,1.43c-2.484,0.352 -4.922,1.04 -7.413,1.34c-3.089,0.372 -8.171,0.536 -11.12,0.894c-2.211,0.268 -5.363,1.906 -6.571,1.251c-1.207,-0.656 -0.351,-3.59 -0.673,-5.183c-0.303,-1.492 -0.788,-2.938 -1.264,-4.378c-0.477,-1.445 -0.979,-2.9 -1.601,-4.29c-0.66,-1.474 -2.513,-3.335 -2.358,-4.557Z" style="fill:#ff4e43;"/><path d="M107.989,349.985c0.126,-0.99 0.574,-1.968 1.357,-2.825c0.927,-1.016 2.499,-1.903 3.735,-2.46c1.896,-0.855 5.068,-1.721 7.675,-2.023c2.555,-0.295 5.225,-0.179 7.804,0.189c2.522,0.359 5.371,1.298 7.701,1.955c2.052,0.578 4.277,1.307 6.108,1.915c1.604,0.533 3.53,1.282 4.781,1.699c0.63,0.21 1.457,0.115 2.077,0.324c0.929,0.312 1.688,0.875 2.239,1.747c0.979,1.546 3.857,5.882 5.085,9.13c0.931,2.461 0.831,4.614 0.172,5.844c-0.686,1.279 -2.313,2.413 -4.725,2.766c-2.875,0.421 -7.342,-0.072 -9.625,0.251c-2.504,0.355 -4.962,1.046 -7.472,1.348c-3.088,0.373 -8.17,0.536 -11.118,0.894c-1.495,0.181 -3.431,1.029 -4.861,1.293c-1.422,0.263 -2.611,0.068 -3.423,-0.372c-1.173,-0.637 -1.964,-1.788 -2.217,-3.436c-0.103,-0.671 -0.108,-1.474 -0.07,-2.297c0.027,-0.579 0.131,-1.178 0.041,-1.622c-0.276,-1.362 -0.727,-2.678 -1.162,-3.993c-0.442,-1.339 -0.903,-2.689 -1.479,-3.976c-0.444,-0.993 -1.464,-2.159 -1.977,-3.177c-0.576,-1.144 -0.762,-2.251 -0.646,-3.174Zm2.985,0.424c-0.155,1.222 1.698,3.083 2.358,4.557c0.622,1.39 1.124,2.845 1.601,4.29c0.476,1.44 0.961,2.886 1.264,4.378c0.322,1.593 -0.534,4.527 0.673,5.183c1.208,0.655 4.36,-0.983 6.571,-1.251c2.949,-0.358 8.031,-0.522 11.12,-0.894c2.491,-0.3 4.929,-0.988 7.413,-1.34c3.258,-0.462 10.966,0.744 12.131,-1.43c1.165,-2.174 -3.829,-9.546 -5.139,-11.616c-0.524,-0.829 -1.822,-0.505 -2.72,-0.804c-1.249,-0.417 -3.174,-1.166 -4.777,-1.698c-1.793,-0.596 -3.972,-1.31 -5.981,-1.877c-2.219,-0.625 -4.928,-1.534 -7.329,-1.876c-2.339,-0.334 -4.76,-0.447 -7.076,-0.179c-2.317,0.268 -5.139,1.028 -6.824,1.787c-1.288,0.581 -3.131,1.549 -3.285,2.77Z"/></g><g id="Schatten3" serif:id="Schatten" opacity="0.4"><path d="M137.931,348.712c1.081,-0.328 7.469,0.863 10.024,3.127c2.556,2.264 4.255,8.429 5.308,10.455c0.304,0.586 1.46,1.4 1.011,1.697c-0.45,0.298 -2.476,-0.025 -3.707,0.09c-2.71,0.253 -8.621,1.012 -12.552,1.429c-3.676,0.39 -7.582,0.611 -11.036,1.073c-3.247,0.434 -8.185,1.906 -9.687,1.697c-0.946,-0.131 0.108,-2.134 0.674,-2.948c0.631,-0.909 1.872,-2.091 3.117,-2.502c1.623,-0.536 4.413,-0.517 6.625,-0.715c2.822,-0.253 7.943,-0.566 10.307,-0.804c1.301,-0.131 2.878,-0.313 3.875,-0.626c0.772,-0.242 1.853,-0.685 2.106,-1.251c0.253,-0.566 -0.288,-1.472 -0.59,-2.144c-0.421,-0.939 -1.224,-2.368 -1.937,-3.485c-0.913,-1.43 -4.619,-4.766 -3.538,-5.093Z"/><path d="M90.25,392.675c0.871,-1.415 2.869,-2.496 4.297,-3.753c1.488,-1.311 3.32,-2.492 4.633,-4.111c2.078,-2.561 5.714,-8.25 7.834,-11.259c1.608,-2.28 3.946,-4.959 4.886,-6.791c0.643,-1.251 0.239,-4.11 0.758,-4.199c0.52,-0.09 1.966,2.427 2.359,3.663c0.377,1.186 0.616,2.686 0,3.753c-0.941,1.631 -4.056,3.754 -5.644,6.032c-1.755,2.517 -3.721,6.739 -4.886,9.069c-0.795,1.59 -1.228,3.375 -2.106,4.915c-1.137,1.996 -3.384,5.093 -4.718,7.059c-1.079,1.591 -2.288,3.738 -3.285,4.736c-0.713,0.714 -1.936,1.909 -2.696,1.251c-0.842,-0.73 -2.12,-3.902 -2.358,-5.63c-0.221,-1.595 0.096,-3.385 0.926,-4.735Z"/></g><g id="Highlights2" serif:id="Highlights" opacity="0.7"><path d="M92.104,382.264c-0.773,-0.752 -0.323,-6.512 0.421,-9.468c0.744,-2.956 2.625,-5.937 4.043,-8.268c1.265,-2.08 3.019,-4.185 4.465,-5.719c1.259,-1.336 2.864,-2.949 4.212,-3.485c1.212,-0.482 3.229,-0.73 3.875,0.268c0.646,0.998 0.707,3.966 0,5.719c-0.984,2.442 -3.912,6.27 -5.905,8.935c-1.865,2.493 -4.205,5.057 -6.057,7.059c-1.607,1.738 -4.282,5.71 -5.054,4.959Z" style="fill:#fff;"/><path d="M111.215,350.32c0.099,-0.655 2.659,-2.323 4.139,-3.038c1.48,-0.715 3.116,-1.134 4.74,-1.251c2.059,-0.149 5.975,0.03 7.614,0.357c0.88,0.176 3.01,1.16 2.22,1.609c-1.126,0.64 -6.449,1.697 -8.976,2.234c-2.045,0.433 -4.565,0.968 -6.188,0.983c-1.215,0.011 -3.647,-0.239 -3.549,-0.894Z" style="fill:#fff;"/></g></g><g id="Bein-Mitte" serif:id="Bein Mitte"><path d="M160.643,373.608c-0.359,-2.156 -4.009,-5.504 -6.132,-6.791c-1.929,-1.169 -4.471,-0.846 -6.605,-0.929c-2.07,-0.081 -4.151,0.108 -6.2,0.429c-2.819,0.441 -10.411,1.136 -10.716,2.216c-0.304,1.08 5.884,2.949 8.891,4.263c4.28,1.87 13.326,6.824 16.786,6.96c2.341,0.091 4.336,-3.991 3.976,-6.148Z" style="fill:#a12917;"/><path d="M163.608,373.052c0.333,1.995 -0.479,5.114 -2.091,7.216c-1.344,1.753 -3.155,2.75 -4.961,2.679c-1.258,-0.049 -3.141,-0.564 -5.28,-1.407c-4.148,-1.633 -9.523,-4.472 -12.542,-5.791c-2.561,-1.12 -7.266,-2.681 -8.889,-3.823c-1.95,-1.373 -2.051,-3.203 -1.74,-4.307c0.213,-0.754 1.015,-2.08 2.926,-2.73c2.299,-0.782 7.868,-1.362 10.236,-1.732c2.23,-0.349 4.497,-0.549 6.75,-0.461c2.591,0.101 5.647,-0.071 7.988,1.348c1.744,1.058 4.367,3.303 5.929,5.422c0.927,1.259 1.499,2.533 1.674,3.586Zm-2.965,0.556c-0.359,-2.156 -4.009,-5.504 -6.132,-6.791c-1.929,-1.169 -4.471,-0.846 -6.605,-0.929c-2.07,-0.081 -4.151,0.108 -6.2,0.429c-2.819,0.441 -10.411,1.136 -10.716,2.216c-0.304,1.08 5.884,2.949 8.891,4.263c4.28,1.87 13.326,6.824 16.786,6.96c2.341,0.091 4.336,-3.991 3.976,-6.148Z"/></g><g id="Bein-Vorne" serif:id="Bein Vorne"><g id="Substanz4" serif:id="Substanz"><path d="M151.771,398.031c0.804,0.638 1.5,1.478 2.422,1.899c1.229,0.56 3.27,1.107 4.949,1.463c1.767,0.375 3.839,0.677 5.649,0.783c1.734,0.102 3.485,0.072 5.21,-0.146c1.926,-0.244 4.675,-0.921 6.349,-1.318c1.244,-0.295 3.686,-0.177 3.692,-1.061c0.006,-0.885 -2.507,-2.898 -3.658,-4.246c-1.087,-1.275 -2.147,-2.576 -3.243,-3.843c-1.283,-1.482 -3.026,-3.311 -4.451,-5.051c-1.449,-1.769 -2.847,-4.111 -4.244,-5.563c-1.214,-1.26 -2.796,-2.401 -4.141,-3.148c-1.218,-0.676 -2.635,-0.836 -3.927,-1.334c-1.351,-0.522 -2.718,-1.411 -4.175,-1.794c-2.134,-0.561 -6.574,-2.647 -8.627,-1.574c-2.053,1.074 -3.599,5.485 -3.692,8.016c-0.092,2.531 1.948,4.983 3.136,7.169c1.145,2.109 2.531,4.323 3.99,5.948c1.369,1.526 3.564,2.85 4.761,3.8Z" style="fill:#ff4e43;"/><path d="M149.968,400.589c-1.298,-1.03 -3.654,-2.501 -5.139,-4.156c-1.61,-1.793 -3.154,-4.228 -4.418,-6.555c-0.742,-1.366 -1.794,-2.838 -2.504,-4.362c-0.687,-1.472 -1.087,-2.998 -1.031,-4.526c0.069,-1.907 0.77,-4.673 1.897,-6.865c0.934,-1.816 2.19,-3.221 3.472,-3.891c1.062,-0.556 2.481,-0.752 4.065,-0.545c2.263,0.296 5.041,1.469 6.617,1.883c1.561,0.411 3.035,1.334 4.481,1.892c1.416,0.547 2.958,0.765 4.294,1.507c1.576,0.876 3.428,2.218 4.85,3.695c1.448,1.504 2.909,3.918 4.411,5.75c1.407,1.718 3.13,3.523 4.396,4.987c1.101,1.272 2.166,2.579 3.258,3.859c0.988,1.158 2.885,2.802 3.612,3.887c0.636,0.95 0.828,1.859 0.824,2.524c-0.008,1.259 -0.522,2.357 -1.71,3.126c-0.45,0.291 -1.101,0.552 -1.88,0.701c-0.771,0.147 -1.793,0.172 -2.457,0.329c-1.752,0.415 -4.631,1.117 -6.648,1.372c-1.898,0.24 -3.825,0.276 -5.733,0.164c-1.946,-0.114 -4.174,-0.437 -6.073,-0.84c-1.884,-0.399 -4.17,-1.032 -5.548,-1.661c-1.139,-0.519 -2.044,-1.488 -3.036,-2.275Zm1.803,-2.558c0.804,0.638 1.5,1.478 2.422,1.899c1.229,0.56 3.27,1.107 4.949,1.463c1.767,0.375 3.839,0.677 5.649,0.783c1.734,0.102 3.485,0.072 5.21,-0.146c1.926,-0.244 4.675,-0.921 6.349,-1.318c1.244,-0.295 3.686,-0.177 3.692,-1.061c0.006,-0.885 -2.507,-2.898 -3.658,-4.246c-1.087,-1.275 -2.147,-2.576 -3.243,-3.843c-1.283,-1.482 -3.026,-3.311 -4.451,-5.051c-1.449,-1.769 -2.847,-4.111 -4.244,-5.563c-1.214,-1.26 -2.796,-2.401 -4.141,-3.148c-1.218,-0.676 -2.635,-0.836 -3.927,-1.334c-1.351,-0.522 -2.718,-1.411 -4.175,-1.794c-2.134,-0.561 -6.574,-2.647 -8.627,-1.574c-2.053,1.074 -3.599,5.485 -3.692,8.016c-0.092,2.531 1.948,4.983 3.136,7.169c1.145,2.109 2.531,4.323 3.99,5.948c1.369,1.526 3.564,2.85 4.761,3.8Z"/><path d="M137.977,401.27c1.287,0.184 2.625,0.174 3.896,-0.112c1.492,-0.335 3.879,-1.023 5.054,-1.898c1.021,-0.76 1.739,-2.059 2.001,-3.351c0.404,-1.992 0.371,-5.731 0.421,-8.601c0.053,-2.997 0.211,-7.13 -0.105,-9.382c-0.21,-1.5 -0.746,-3.098 -1.79,-4.133c-1.334,-1.322 -4.075,-2.904 -6.213,-3.797c-2.102,-0.879 -4.377,-1.243 -6.616,-1.564c-2.334,-0.335 -4.933,-0.692 -7.389,-0.447c-2.618,0.261 -5.824,0.912 -8.316,2.011c-2.437,1.074 -4.706,2.755 -6.637,4.579c-1.931,1.824 -3.674,3.972 -4.949,6.367c-1.299,2.438 -3.914,7.39 -2.843,8.265c1.07,0.875 6.248,-2.736 9.266,-3.016c2.967,-0.274 6.248,0.168 8.846,1.341c2.597,1.172 5.089,3.648 6.739,5.696c1.509,1.874 1.72,5.25 3.159,6.59c1.414,1.317 3.914,1.229 5.476,1.452Z" style="fill:#ff4e43;"/><path d="M137.574,404.435c-1.009,-0.144 -2.38,-0.183 -3.646,-0.485c-1.29,-0.308 -2.482,-0.864 -3.414,-1.732c-0.899,-0.838 -1.589,-2.123 -2.127,-3.625c-0.396,-1.106 -0.639,-2.428 -1.334,-3.29c-1.387,-1.721 -3.447,-3.847 -5.63,-4.833c-2.173,-0.981 -4.921,-1.327 -7.404,-1.097c-0.952,0.088 -2.157,0.656 -3.338,1.19c-1.683,0.762 -3.316,1.531 -4.424,1.804c-1.656,0.408 -2.884,-0.041 -3.604,-0.63c-0.878,-0.717 -1.566,-1.959 -1.399,-3.798c0.189,-2.089 2.248,-6.296 3.458,-8.568c1.437,-2.699 3.393,-5.125 5.568,-7.181c2.175,-2.055 4.739,-3.934 7.484,-5.144c2.756,-1.214 6.297,-1.953 9.191,-2.241c2.683,-0.267 5.523,0.096 8.074,0.462c2.478,0.356 4.989,0.785 7.316,1.757c2.473,1.034 5.621,2.906 7.164,4.435c1.528,1.514 2.406,3.804 2.713,5.997c0.334,2.38 0.193,6.745 0.138,9.912c-0.054,3.075 -0.056,7.078 -0.488,9.212c-0.416,2.052 -1.595,4.089 -3.215,5.294c-1.44,1.071 -4.334,1.999 -6.16,2.409c-1.606,0.361 -3.296,0.385 -4.923,0.152Zm0.403,-3.165c1.287,0.184 2.625,0.174 3.896,-0.112c1.492,-0.335 3.879,-1.023 5.054,-1.898c1.021,-0.76 1.739,-2.059 2.001,-3.351c0.404,-1.992 0.371,-5.731 0.421,-8.601c0.053,-2.997 0.211,-7.13 -0.105,-9.382c-0.21,-1.5 -0.746,-3.098 -1.79,-4.133c-1.334,-1.322 -4.075,-2.904 -6.213,-3.797c-2.102,-0.879 -4.377,-1.243 -6.616,-1.564c-2.334,-0.335 -4.933,-0.692 -7.389,-0.447c-2.618,0.261 -5.824,0.912 -8.316,2.011c-2.437,1.074 -4.706,2.755 -6.637,4.579c-1.931,1.824 -3.674,3.972 -4.949,6.367c-1.299,2.438 -3.914,7.39 -2.843,8.265c1.07,0.875 6.248,-2.736 9.266,-3.016c2.967,-0.274 6.248,0.168 8.846,1.341c2.597,1.172 5.089,3.648 6.739,5.696c1.509,1.874 1.72,5.25 3.159,6.59c1.414,1.317 3.914,1.229 5.476,1.452Z"/><path d="M131.558,449.971c0.211,-1.471 -0.491,-4.274 -0.842,-6.381c-0.351,-2.103 -1.071,-4.235 -1.264,-6.264c-0.187,-1.961 -0.03,-3.946 0.105,-5.911c0.141,-2.046 0.392,-4.26 0.737,-6.367c0.351,-2.141 0.913,-4.486 1.369,-6.478c0.42,-1.834 0.949,-3.639 1.369,-5.473c0.439,-1.918 1.001,-4.003 1.264,-6.032c0.263,-2.029 0.368,-4.244 0.316,-6.143c-0.049,-1.763 -0.159,-3.558 -0.632,-5.25c-0.474,-1.694 -1.282,-3.39 -2.211,-4.914c-0.966,-1.582 -2.136,-3.321 -3.581,-4.58c-1.474,-1.284 -3.422,-2.494 -5.265,-3.127c-1.843,-0.633 -3.872,-0.985 -5.791,-0.67c-1.931,0.316 -4.142,1.303 -5.792,2.569c-1.65,1.266 -3.083,3.093 -4.107,5.026c-1.123,2.122 -2.011,5.055 -2.632,7.707c-0.667,2.848 -1.264,6.292 -1.369,9.382c-0.105,3.062 0.281,6.479 0.737,9.159c0.404,2.376 1.256,4.644 2.001,6.925c0.772,2.365 1.502,4.962 2.632,7.261c1.281,2.606 3.241,5.676 5.055,8.377c1.825,2.718 4.019,5.808 5.897,7.93c1.602,1.811 3.72,3.854 5.37,4.803c1.349,0.777 3.422,1.152 4.528,0.894c1.016,-0.238 1.95,-1.352 2.106,-2.443Z" style="fill:#ff4e43;"/><path d="M134.535,450.451c-0.327,2.282 -2.31,4.585 -4.436,5.082c-1.61,0.376 -4.646,-0.075 -6.611,-1.206c-1.875,-1.079 -4.309,-3.366 -6.13,-5.424c-1.958,-2.213 -4.251,-5.43 -6.154,-8.263c-1.894,-2.82 -3.934,-6.032 -5.272,-8.754c-1.198,-2.437 -1.989,-5.184 -2.807,-7.691c-0.796,-2.437 -1.687,-4.865 -2.119,-7.403c-0.49,-2.88 -0.895,-6.552 -0.783,-9.842c0.112,-3.305 0.742,-6.99 1.456,-10.037c0.685,-2.928 1.689,-6.157 2.929,-8.5c1.234,-2.332 2.977,-4.524 4.967,-6.051c2.021,-1.55 4.732,-2.75 7.097,-3.138c2.377,-0.389 4.896,0.004 7.179,0.788c2.185,0.751 4.5,2.175 6.249,3.698c1.683,1.467 3.072,3.469 4.197,5.313c1.085,1.778 2.016,3.764 2.57,5.741c0.546,1.955 0.698,4.026 0.754,6.064c0.058,2.063 -0.056,4.469 -0.342,6.673c-0.277,2.135 -0.859,4.331 -1.321,6.349c-0.42,1.835 -0.949,3.64 -1.369,5.474c-0.442,1.929 -0.988,4.199 -1.328,6.271c-0.328,2.003 -0.567,4.107 -0.701,6.052c-0.122,1.782 -0.281,3.58 -0.112,5.358c0.186,1.954 0.895,4.004 1.233,6.029c0.407,2.444 1.098,5.711 0.854,7.417Zm-2.977,-0.48c0.211,-1.471 -0.491,-4.274 -0.842,-6.381c-0.351,-2.103 -1.071,-4.235 -1.264,-6.264c-0.187,-1.961 -0.03,-3.946 0.105,-5.911c0.141,-2.046 0.392,-4.26 0.737,-6.367c0.351,-2.141 0.913,-4.486 1.369,-6.478c0.42,-1.834 0.949,-3.639 1.369,-5.473c0.439,-1.918 1.001,-4.003 1.264,-6.032c0.263,-2.029 0.368,-4.244 0.316,-6.143c-0.049,-1.763 -0.159,-3.558 -0.632,-5.25c-0.474,-1.694 -1.282,-3.39 -2.211,-4.914c-0.966,-1.582 -2.136,-3.321 -3.581,-4.58c-1.474,-1.284 -3.422,-2.494 -5.265,-3.127c-1.843,-0.633 -3.872,-0.985 -5.791,-0.67c-1.931,0.316 -4.142,1.303 -5.792,2.569c-1.65,1.266 -3.083,3.093 -4.107,5.026c-1.123,2.122 -2.011,5.055 -2.632,7.707c-0.667,2.848 -1.264,6.292 -1.369,9.382c-0.105,3.062 0.281,6.479 0.737,9.159c0.404,2.376 1.256,4.644 2.001,6.925c0.772,2.365 1.502,4.962 2.632,7.261c1.281,2.606 3.241,5.676 5.055,8.377c1.825,2.718 4.019,5.808 5.897,7.93c1.602,1.811 3.72,3.854 5.37,4.803c1.349,0.777 3.422,1.152 4.528,0.894c1.016,-0.238 1.95,-1.352 2.106,-2.443Z"/></g><g id="Schatten4" serif:id="Schatten" opacity="0.4"><path d="M131.717,449.971c0.456,-1.433 -0.926,-7.72 -1.617,-10.783c-0.555,-2.463 -0.62,-4.919 -0.421,-7.372c0.245,-3.035 1.246,-7.577 1.895,-10.835c0.583,-2.924 1.387,-5.975 2.001,-8.712c0.576,-2.565 1.522,-5.075 1.685,-7.707c0.175,-2.829 -0.021,-6.776 -0.635,-9.27c-0.52,-2.113 -1.911,-3.923 -3.051,-5.697c-1.128,-1.755 -2.063,-3.87 -3.791,-4.946c-1.913,-1.192 -7.564,-2.934 -7.687,-2.202c-0.123,0.731 5.529,4.151 6.95,6.59c1.358,2.329 1.422,5.566 1.58,8.042c0.145,2.277 -0.246,4.568 -0.632,6.813c-0.474,2.755 -1.55,6.46 -2.211,9.718c-0.685,3.369 -1.545,7.222 -1.896,10.499c-0.325,3.034 -0.316,6.329 -0.21,9.159c0.097,2.621 0.228,5.398 0.842,7.818c0.6,2.366 1.643,5.221 2.843,6.702c1.046,1.292 3.898,3.616 4.355,2.183Z"/></g><g id="Highlights3" serif:id="Highlights" opacity="0.7"><path d="M106.6,383.532c0.863,0.248 8.815,-6.691 12.239,-8.693c2.59,-1.514 5.544,-2.44 8.303,-3.317c2.698,-0.857 8.195,-1.315 8.249,-1.944c0.054,-0.629 -5.329,-1.821 -7.926,-1.83c-2.597,-0.01 -5.355,0.839 -7.656,1.773c-2.219,0.901 -4.465,2.049 -6.146,3.831c-2.201,2.335 -7.925,9.932 -7.063,10.18Z" style="fill:#fff;"/><path d="M109.739,415.549c0.534,-1.876 -0.084,-7.431 0.169,-10.276c0.204,-2.303 0.856,-4.78 1.348,-6.791c0.436,-1.787 0.842,-3.812 1.6,-5.272c0.71,-1.367 2.078,-2.472 2.949,-3.485c0.749,-0.872 2.372,-1.861 2.274,-2.591c-0.098,-0.73 -1.757,-1.813 -2.864,-1.787c-1.264,0.03 -3.377,0.875 -4.718,1.966c-1.446,1.176 -3.046,3.202 -3.959,5.093c-0.913,1.891 -1.151,4.244 -1.516,6.255c-0.348,1.915 -0.688,3.857 -0.674,5.808c0.014,1.996 0.365,4.155 0.758,6.165c0.392,2.004 0.828,5.079 1.601,5.898c0.747,0.793 2.727,0.09 3.032,-0.983Z" style="fill:#fff;"/></g></g></g><g id="Schere-links--bottom-" serif:id="Schere links (bottom)"><g id="Substanz5" serif:id="Substanz"><path d="M151.15,324.289l3.159,-21.893c-11.484,-3.748 -20.597,-8.984 -29.273,-14.52c-4.943,8.705 -6.921,17.32 -5.687,25.131c7.635,8.48 18.551,11.737 31.801,11.282Z" style="fill:#992f28;"/><path d="M151.248,327.481c-14.22,0.489 -25.884,-3.168 -34.076,-12.268c-0.417,-0.462 -0.692,-1.047 -0.792,-1.678c-1.34,-8.479 0.71,-17.857 6.076,-27.307c0.858,-1.51 2.707,-1.998 4.132,-1.089c8.48,5.411 17.381,10.541 28.607,14.205c1.427,0.466 2.317,1.97 2.091,3.536l-3.159,21.892c-0.22,1.52 -1.43,2.659 -2.879,2.709Zm-0.098,-3.192l3.159,-21.893c-11.484,-3.748 -20.597,-8.984 -29.273,-14.52c-4.943,8.705 -6.921,17.32 -5.687,25.131c7.635,8.48 18.551,11.737 31.801,11.282Z"/><path d="M89.549,294.243c7.184,8.802 15.801,15.324 26.354,18.764c-0.586,-9.591 0.942,-18.89 6.816,-27.588c-4.805,-5.883 -8.954,-10.202 -12.636,-13.404l-21.06,12.175l0.526,10.053Z" style="fill:#992f28;"/><path d="M86.543,294.42l-0.527,-10.053c-0.064,-1.231 0.545,-2.391 1.566,-2.981l21.06,-12.175c1.077,-0.622 2.402,-0.49 3.35,0.335c3.787,3.293 8.06,7.73 13.003,13.782c0.912,1.116 0.983,2.75 0.172,3.951c-5.431,8.042 -6.801,16.653 -6.259,25.522c0.064,1.047 -0.362,2.062 -1.138,2.712c-0.777,0.651 -1.805,0.856 -2.751,0.547c-11.106,-3.62 -20.186,-10.464 -27.746,-19.727c-0.436,-0.534 -0.693,-1.207 -0.73,-1.913Zm3.006,-0.177c7.184,8.802 15.801,15.324 26.354,18.764c-0.586,-9.591 0.942,-18.89 6.816,-27.588c-4.805,-5.883 -8.954,-10.202 -12.636,-13.404l-21.06,12.175l0.526,10.053Z"/><path d="M89.128,290.78c2.931,1.173 10.46,1.713 14.847,0.447c4.388,-1.266 9.969,-4.338 11.478,-8.042c1.51,-3.705 -1.158,-11.326 -2.422,-14.185c-2.057,-4.655 -22.657,11.56 -26.641,15.19c-1.716,1.564 0.621,5.743 2.738,6.59Z" style="fill:#992f28;"/><path d="M88.065,293.768c-1.959,-0.784 -4.142,-3.322 -4.921,-5.824c-0.767,-2.46 -0.277,-4.754 1.284,-6.176c3.338,-3.042 17.867,-14.43 24.626,-16.404c3.527,-1.029 5.805,0.246 6.704,2.28c0.828,1.875 2.205,5.624 2.821,9.196c0.496,2.878 0.435,5.656 -0.362,7.612c-0.791,1.941 -2.371,3.81 -4.428,5.387c-2.641,2.026 -6.071,3.618 -9.023,4.47c-4.936,1.424 -13.404,0.779 -16.701,-0.541Zm1.063,-2.988c2.931,1.173 10.46,1.713 14.847,0.447c4.388,-1.266 9.969,-4.338 11.478,-8.042c1.51,-3.705 -1.158,-11.326 -2.422,-14.185c-2.057,-4.655 -22.657,11.56 -26.641,15.19c-1.716,1.564 0.621,5.743 2.738,6.59Z"/><path d="M89.094,239.061c3.976,2.204 14.671,14.968 14.973,20.03c0.301,5.061 -8.439,7.434 -13.163,10.337c-4.744,2.916 -10.612,5.934 -15.302,7.156c-4.154,1.082 -9.572,1.221 -12.833,0.174c-2.895,-0.93 -5.332,-4.363 -6.731,-6.457c-1.154,-1.729 -2.861,-4.415 -1.66,-6.108c1.588,-2.24 7.544,-4.745 11.188,-7.33c4.305,-3.054 10.722,-8.028 14.643,-10.995c2.975,-2.25 5.647,-8.601 8.885,-6.807Z" style="fill:#992f28;"/><path d="M90.489,236.231c3.016,1.671 9.685,8.862 13.476,14.96c1.863,2.997 2.994,5.811 3.107,7.698c0.184,3.095 -1.516,5.753 -4.477,7.848c-2.955,2.09 -7.299,3.684 -10.181,5.455c-4.986,3.064 -11.165,6.209 -16.093,7.493c-4.67,1.217 -10.76,1.307 -14.425,0.13c-3.515,-1.129 -6.617,-5.125 -8.315,-7.668c-0.871,-1.304 -1.939,-3.072 -2.37,-4.713c-0.498,-1.894 -0.285,-3.687 0.76,-5.161c0.81,-1.141 2.447,-2.425 4.493,-3.66c2.348,-1.417 5.296,-2.893 7.428,-4.405c4.284,-3.039 10.667,-7.988 14.569,-10.94c1.709,-1.293 3.281,-4.032 4.961,-5.619c2.224,-2.101 4.604,-2.783 7.067,-1.418Zm-1.395,2.83c-3.238,-1.794 -5.91,4.557 -8.885,6.807c-3.921,2.967 -10.338,7.941 -14.643,10.995c-3.644,2.585 -9.6,5.09 -11.188,7.33c-1.201,1.693 0.506,4.379 1.66,6.108c1.399,2.094 3.836,5.527 6.731,6.457c3.261,1.047 8.679,0.908 12.833,-0.174c4.69,-1.222 10.558,-4.24 15.302,-7.156c4.724,-2.903 13.464,-5.276 13.163,-10.337c-0.302,-5.062 -10.997,-17.826 -14.973,-20.03Z"/><path d="M98.1,193.803c1.522,2.851 3.542,6.455 5.265,9.711c1.92,3.625 4.004,8.498 6.253,12.042c2.105,3.318 5.841,5.73 7.239,9.22c1.399,3.491 1.224,7.795 1.152,11.722c-0.082,4.459 -0.439,11.276 -1.645,15.029c-0.969,3.013 -3.236,6.906 -5.595,7.485c-2.358,0.578 -6.087,-2.153 -8.555,-4.014c-2.468,-1.862 -4.689,-5.003 -6.253,-7.156c-1.274,-1.755 -2.214,-3.767 -3.128,-5.759c-1.015,-2.211 -2.013,-4.985 -2.959,-7.504c-1.453,-3.869 -4.793,-10.184 -5.759,-15.707c-0.987,-5.643 -1.124,-13.671 -0.165,-18.151c0.749,-3.495 4.209,-6.341 5.924,-8.726c1.382,-1.923 2.993,-5.886 4.364,-5.585c1.371,0.302 2.554,4.941 3.862,7.393Z" style="fill:#992f28;"/><path d="M100.721,192.23c1.522,2.853 3.544,6.461 5.27,9.72c1.883,3.557 3.918,8.345 6.125,11.822c1.172,1.848 2.913,3.369 4.38,5.009c1.309,1.464 2.437,3.01 3.132,4.746c1.557,3.885 1.472,8.662 1.391,13.034c-0.087,4.748 -0.521,12.001 -1.806,15.997c-0.695,2.161 -1.959,4.694 -3.46,6.529c-1.307,1.599 -2.832,2.675 -4.305,3.036c-1.179,0.29 -2.572,0.177 -4.044,-0.339c-2.322,-0.813 -4.989,-2.715 -6.935,-4.183c-2.706,-2.042 -5.179,-5.449 -6.893,-7.809c-1.399,-1.927 -2.447,-4.125 -3.45,-6.311c-1.044,-2.275 -2.076,-5.128 -3.049,-7.72c-1.507,-4.012 -4.921,-10.58 -5.922,-16.307c-1.058,-6.044 -1.169,-14.643 -0.141,-19.441c0.394,-1.839 1.315,-3.566 2.475,-5.147c1.316,-1.795 2.967,-3.383 3.99,-4.807c1.017,-1.415 2.178,-3.863 3.262,-5.107c1.34,-1.538 2.86,-1.943 4.108,-1.669c1.003,0.22 2.234,1.078 3.175,2.773c0.908,1.635 1.773,4.444 2.697,6.174Zm-2.621,1.573c-1.308,-2.452 -2.491,-7.091 -3.862,-7.393c-1.371,-0.301 -2.982,3.662 -4.364,5.585c-1.715,2.385 -5.175,5.231 -5.924,8.726c-0.959,4.48 -0.822,12.508 0.165,18.151c0.966,5.523 4.306,11.838 5.759,15.707c0.946,2.519 1.944,5.293 2.959,7.504c0.914,1.992 1.854,4.004 3.128,5.759c1.564,2.153 3.785,5.294 6.253,7.156c2.468,1.861 6.197,4.592 8.555,4.014c2.359,-0.579 4.626,-4.472 5.595,-7.485c1.206,-3.753 1.563,-10.57 1.645,-15.029c0.072,-3.927 0.247,-8.231 -1.152,-11.722c-1.398,-3.49 -5.134,-5.902 -7.239,-9.22c-2.249,-3.544 -4.333,-8.417 -6.253,-12.042c-1.723,-3.256 -3.743,-6.86 -5.265,-9.711Z"/></g><g id="Highlights4" serif:id="Highlights" opacity="0.7"><path d="M122.001,294.073c3.31,-2.102 7.047,-2.471 11.22,-1.066l-8.067,-5.131c-1.434,2.228 -2.438,4.274 -3.153,6.197Z" style="fill:#fff;"/></g></g><g id="Schere-rechts" serif:id="Schere rechts"><g id="Substanz6" serif:id="Substanz"><path d="M398.462,321.086c8.889,-1.287 17.371,-4.409 25.542,-8.936c9.34,13.399 0.186,13.357 13.074,26.449c-10.483,8.483 -24.538,13.106 -44.547,11.295l5.931,-28.808Z" style="fill:#ff4e43;"/><path d="M398.055,317.921c8.547,-1.237 16.699,-4.249 24.555,-8.602c1.314,-0.728 2.933,-0.333 3.815,0.932c4.19,6.011 5.016,9.632 5.478,12.727c0.546,3.655 0.43,6.378 7.258,13.315c0.635,0.645 0.973,1.553 0.923,2.485c-0.049,0.932 -0.48,1.794 -1.18,2.361c-10.979,8.883 -25.674,13.834 -46.629,11.937c-0.863,-0.078 -1.653,-0.547 -2.167,-1.287c-0.514,-0.74 -0.703,-1.679 -0.518,-2.577l5.93,-28.808c0.27,-1.31 1.283,-2.302 2.535,-2.483Zm0.407,3.165l-5.931,28.808c20.009,1.811 34.064,-2.812 44.547,-11.295c-12.888,-13.092 -3.734,-13.05 -13.074,-26.449c-8.171,4.527 -16.653,7.649 -25.542,8.936Z"/><path d="M426.497,310.291c6.859,-4.2 10.689,-10.357 13.412,-17.227c7.103,11.673 17,15.896 30.394,10.794c-9.67,19.122 -19.87,27.709 -30.26,32.525c-12.203,-10.167 -8.471,-19.402 -13.546,-26.092Z" style="fill:#ff4e43;"/><path d="M424.992,307.525c6.234,-3.817 9.666,-9.454 12.141,-15.699c0.433,-1.092 1.4,-1.84 2.512,-1.944c1.113,-0.104 2.188,0.454 2.793,1.45c3.143,5.164 6.851,8.745 11.307,10.406c4.459,1.662 9.61,1.373 15.54,-0.886c1.173,-0.447 2.484,-0.081 3.298,0.92c0.814,1.001 0.962,2.431 0.373,3.595c-10.112,19.996 -20.843,28.906 -31.707,33.943c-1.016,0.471 -2.194,0.311 -3.065,-0.415c-8.08,-6.731 -9.847,-13.08 -11.163,-18.686c-0.684,-2.916 -1.122,-5.611 -2.869,-7.915c-0.552,-0.727 -0.776,-1.673 -0.614,-2.59c0.161,-0.916 0.692,-1.712 1.454,-2.179Zm1.505,2.766c5.075,6.69 1.343,15.925 13.546,26.092c10.39,-4.816 20.59,-13.403 30.26,-32.525c-13.394,5.102 -23.291,0.879 -30.394,-10.794c-2.723,6.87 -6.553,13.027 -13.412,17.227Z"/><path d="M442.402,289.203c4.011,19.707 36.56,16.274 33.225,-6.076c-10.071,5.994 -21.177,7.898 -33.225,6.076Z" style="fill:#ff4e43;"/><path d="M442.827,286.042c11.358,1.717 21.832,-0.049 31.326,-5.7c0.859,-0.511 1.9,-0.545 2.787,-0.089c0.886,0.456 1.507,1.343 1.661,2.375c1.986,13.311 -6.632,21.057 -16.425,22.473c-9.696,1.402 -20.352,-3.603 -22.717,-15.224c-0.208,-1.021 0.068,-2.086 0.74,-2.85c0.671,-0.765 1.653,-1.133 2.628,-0.985Zm-0.425,3.161c4.011,19.707 36.56,16.274 33.225,-6.076c-10.071,5.994 -21.177,7.898 -33.225,6.076Z"/><path d="M403.601,211.536c-0.569,-0.186 -1.685,0.625 -1.685,0.625c-7.931,13.069 -9.823,29.394 0.265,45.327c22.911,36.186 67.488,36.578 89.488,7.254c17.974,-23.957 16.654,-57.039 0.556,-78.353c-11.964,-15.84 -51.011,-39.635 -81.885,-8.451c0,-0 -0.797,1.692 -0.232,1.832c26.185,6.471 27.643,27.017 32.412,34.982c-2.294,-0.094 -4.95,-0.828 -8.087,-2.412c4.445,9.59 2.977,15.464 -0.169,20.284c0.093,1.268 1.451,2.572 7.245,6.612c-22.541,-0.475 -6.501,-18.652 -33.865,-20.82c-2.54,-0.201 -1.404,-6.017 -4.043,-6.88Z" style="fill:#ff4e43;"/><path d="M408.826,215.315c7.041,0.676 11.346,2.444 14.219,4.592c3.186,2.382 4.733,5.281 6.05,8.161c0.676,1.479 1.237,2.968 2.173,4.246c0.049,-0.539 0.227,-1.059 0.521,-1.509c2.645,-4.052 3.679,-8.992 -0.058,-17.056c-0.566,-1.22 -0.341,-2.686 0.559,-3.653c0.901,-0.968 2.28,-1.224 3.437,-0.64c0.487,0.246 0.961,0.47 1.42,0.671c-0.484,-1.252 -0.991,-2.582 -1.549,-3.961c-3.441,-8.504 -9.195,-19.09 -26.173,-23.286c-1.359,-0.336 -2.216,-1.273 -2.473,-2.79c-0.088,-0.516 -0.073,-1.217 0.104,-1.935c0.194,-0.79 0.591,-1.645 0.591,-1.645c0.156,-0.331 0.364,-0.63 0.617,-0.885c32.538,-32.865 73.702,-7.927 86.311,8.767c16.917,22.398 18.338,57.163 -0.55,82.339c-23.191,30.911 -70.193,30.682 -94.344,-7.462c-10.868,-17.166 -8.842,-34.756 -0.297,-48.837c0.217,-0.357 0.499,-0.665 0.83,-0.905c-0,-0 0.957,-0.68 1.868,-0.985c0.875,-0.292 1.741,-0.276 2.406,-0.058c2.017,0.66 3.229,2.549 3.848,4.943c0.139,0.535 0.349,1.345 0.49,1.888Zm-5.225,-3.779c-0.569,-0.186 -1.685,0.625 -1.685,0.625c-7.931,13.069 -9.823,29.394 0.265,45.327c22.911,36.186 67.488,36.578 89.488,7.254c17.974,-23.957 16.654,-57.039 0.556,-78.353c-11.964,-15.84 -51.011,-39.635 -81.885,-8.451c0,-0 -0.797,1.692 -0.232,1.832c26.185,6.471 27.643,27.017 32.412,34.982c-2.294,-0.094 -4.95,-0.828 -8.087,-2.412c4.445,9.59 2.977,15.464 -0.169,20.284c0.093,1.268 1.451,2.572 7.245,6.612c-22.541,-0.475 -6.501,-18.652 -33.865,-20.82c-2.54,-0.201 -1.404,-6.017 -4.043,-6.88Z"/></g><g id="Schatten5" serif:id="Schatten" opacity="0.4"><path d="M397.59,320.938l10.311,-4.146c-4.598,19.341 5.539,19.622 23.049,10.365l8.289,11.938l-7.616,5.79l-25.541,6.791l-9.772,-0.786l1.28,-29.952Z"/><path d="M430.276,323.726c15.49,-3.825 20.112,-11.932 22.981,-20.73l9.232,0.5l10.918,-4.575l-4.583,11.366l-15.163,20.087l-13.546,8.292l-6.874,-7.792c-1.932,-2.082 -2.831,-4.493 -2.965,-7.148Z"/><path d="M440.115,289.413c0.82,1.871 3.448,6.506 5.661,8.722c2.121,2.124 4.772,3.88 7.615,4.575c3.415,0.834 9.66,0.929 12.872,0.428c2.366,-0.368 4.864,-1.846 6.403,-3.431c1.528,-1.573 2.096,-3.955 2.83,-6.076c0.775,-2.24 1.449,-5.278 1.82,-7.363c0.301,-1.692 0.988,-4.42 0.404,-5.147c-0.584,-0.726 -2.636,0.392 -3.909,0.787c-2.729,0.845 -8.806,3.419 -12.467,4.289c-3.104,0.737 -6.526,0.822 -9.503,0.929c-2.785,0.1 -6.526,-0.25 -8.356,-0.286c-0.877,-0.017 -2.067,-0.357 -2.629,0.072c-0.561,0.428 -1.089,1.709 -0.741,2.501Z"/><path d="M401.229,212.711c-20.729,88.875 131.662,62.967 86.465,-33.455c0,-0 6.989,7.112 9.503,11.437c2.707,4.659 5.283,10.718 6.739,16.513c1.539,6.124 2.561,13.666 2.493,20.23c-0.066,6.468 -1.224,13.428 -2.897,19.158c-1.582,5.416 -4.121,10.551 -7.144,15.226c-3.066,4.742 -6.84,9.639 -11.255,13.225c-4.414,3.586 -11.075,6.362 -15.23,8.292c-3.111,1.445 -6.32,3 -9.705,3.289c-5.302,0.452 -16.32,0.309 -22.105,-0.572c-4.409,-0.672 -8.75,-2.86 -12.602,-4.718c-3.683,-1.777 -7.292,-3.838 -10.514,-6.434c-3.459,-2.788 -7.604,-6.886 -10.243,-10.294c-2.346,-3.028 -3.962,-6.634 -5.594,-10.15c-1.774,-3.825 -4.246,-8.316 -5.054,-12.796c-0.809,-4.48 -0.393,-9.71 0.202,-14.083c0.569,-4.179 2.213,-9.674 3.37,-12.152c0.65,-1.392 3.571,-2.716 3.571,-2.716Z"/></g><g id="Highlights5" serif:id="Highlights" opacity="0.7"><path d="M416.061,315.7c2.468,-1.215 5.085,-2.193 8.003,-2.693c2.464,1.263 3.351,3.455 3.791,5.91c-5.411,0.739 -9.304,-0.381 -11.794,-3.217Z" style="fill:#fff;"/><path d="M410.183,179.362c21.622,-26.488 55.742,-15.374 66.988,-6.29c-23.464,-9.51 -47.725,-9.293 -66.988,6.29Z" style="fill:#fff;"/><path d="M442.597,298.633c-0.636,2.061 1.699,6.502 3.117,7.47c1.418,0.968 4.581,-0.388 5.391,-1.662c-3.75,-1.467 -6.331,-3.863 -8.508,-5.808Z" style="fill:#fff;"/><path d="M406.476,221.252c2.337,1.12 13.119,12.772 14.759,16.013c0.928,1.834 -3.131,4.288 -4.919,3.431c-2.337,-1.12 -7.459,-6.91 -9.098,-10.151c-1.387,-2.739 -3.078,-10.413 -0.742,-9.293Z" style="fill:#fff;"/><path d="M442.599,178.076c-1.743,-2.102 2.763,-6.391 5.391,-6.148c4.122,0.381 16.469,5.726 19.342,8.435c4.517,4.261 2.053,12.138 -4.111,9.936c-3.922,-1.4 -18.084,-9.161 -20.622,-12.223Z" style="fill:#fff;"/></g></g><g id="Krper-Kopf" serif:id="Krper/Kopf"><g id="Krper"><path d="M201.701,409.361c2.049,1.44 4.091,2.903 6.251,4.146c2.547,1.466 5.975,3.202 9.031,4.647c3.1,1.465 6.695,2.954 9.569,4.146c2.541,1.053 5.083,2.114 7.679,3.002c3.1,1.061 7.25,2.364 10.922,3.36c3.864,1.048 8.145,2.119 12.265,2.931c4.291,0.846 9.289,1.716 13.479,2.144c3.871,0.397 7.771,0.326 11.659,0.429c3.917,0.105 7.896,0.243 11.844,0.197c4.089,-0.048 8.677,-0.152 12.687,-0.483c3.809,-0.314 7.644,-0.617 11.373,-1.501c4.285,-1.015 10.965,-2.806 14.337,-4.593c2.462,-1.304 4.045,-3.97 5.897,-6.13c2.061,-2.403 4.021,-5.873 6.47,-8.292c2.449,-2.418 5.594,-4.364 8.222,-6.219c2.457,-1.735 5.167,-3.062 7.548,-4.913c2.774,-2.156 6.503,-5.573 9.098,-8.026c2.249,-2.126 4.495,-4.279 6.47,-6.692c2.213,-2.704 5.021,-6.861 6.806,-9.535c1.402,-2.098 2.788,-4.225 3.909,-6.505c1.202,-2.442 2.224,-5.516 3.303,-8.149c1.046,-2.554 2.325,-5.04 3.167,-7.649c0.84,-2.602 1.526,-5.282 1.887,-8.006c0.461,-3.479 0.782,-8.568 0.876,-12.867c0.101,-4.611 0.169,-10.127 -0.269,-14.798c-0.419,-4.464 -1.247,-9.09 -2.359,-13.224c-1.074,-3.992 -2.693,-7.803 -4.313,-11.581c-1.764,-4.11 -3.887,-8.936 -6.268,-13.082c-2.378,-4.139 -5.17,-8.005 -8.02,-11.795c-2.92,-3.884 -6.211,-7.946 -9.502,-11.509c-3.228,-3.494 -6.627,-6.829 -10.244,-9.865c-3.819,-3.204 -8.503,-6.505 -12.67,-9.364c-4.017,-2.757 -8.188,-5.564 -12.333,-7.792c-4.041,-2.172 -8.285,-3.908 -12.535,-5.576c-4.493,-1.763 -9.671,-3.645 -14.422,-5.004c-4.633,-1.324 -9.974,-2.371 -14.085,-3.145c-3.503,-0.66 -7.034,-1.195 -10.581,-1.501c-3.583,-0.31 -7.277,-0.292 -10.917,-0.358c-3.999,-0.071 -9.312,-0.154 -13.075,-0.071c-3.171,0.07 -6.35,0.187 -9.502,0.572c-3.707,0.453 -8.541,1.154 -12.737,2.144c-4.493,1.061 -10.076,2.8 -14.22,4.218c-3.614,1.236 -7.181,2.649 -10.648,4.289c-3.628,1.716 -7.93,4.122 -11.12,6.005c-2.751,1.623 -5.435,3.385 -8.02,5.29c-2.765,2.037 -5.87,4.417 -8.568,6.934c-2.887,2.692 -6.058,6.124 -8.752,9.221c-2.606,2.996 -5.141,6.077 -7.413,9.365c-2.437,3.526 -5.392,8.351 -7.211,11.795c-1.49,2.819 -2.548,5.874 -3.707,8.864c-1.205,3.109 -2.625,6.743 -3.523,9.793c-0.819,2.779 -1.439,5.631 -1.868,8.507c-0.514,3.443 -1.045,8.083 -1.213,12.152c-0.169,4.075 -0.169,8.352 0.202,12.296c0.36,3.836 1.146,7.72 2.022,11.366c0.858,3.57 1.982,7.071 3.235,10.508c1.28,3.515 2.709,7.187 4.447,10.58c1.899,3.705 4.965,8.673 6.942,11.652c1.469,2.212 3.315,4.115 4.92,6.219c1.898,2.49 4.106,6.001 6.469,8.721c2.505,2.883 5.673,5.978 8.559,8.578c2.791,2.514 5.79,4.758 8.761,7.025c3.092,2.359 7.116,5.25 9.789,7.129Z" style="fill:#ff4e43;"/><path d="M199.206,413.355c-2.712,-1.907 -6.794,-4.84 -9.931,-7.234c-3.07,-2.342 -6.165,-4.665 -9.047,-7.262c-3.022,-2.723 -6.335,-5.965 -8.957,-8.984c-2.429,-2.796 -4.709,-6.395 -6.66,-8.955c-1.667,-2.187 -3.575,-4.174 -5.101,-6.474c-2.056,-3.098 -5.242,-8.268 -7.217,-12.122c-1.831,-3.574 -3.344,-7.438 -4.692,-11.14c-1.317,-3.615 -2.497,-7.297 -3.399,-11.052c-0.93,-3.872 -1.756,-7.999 -2.139,-12.074c-0.392,-4.163 -0.398,-8.679 -0.22,-12.981c0.175,-4.249 0.728,-9.095 1.264,-12.691c0.463,-3.105 1.133,-6.186 2.018,-9.187c0.934,-3.171 2.404,-6.952 3.657,-10.186c1.228,-3.168 2.365,-6.397 3.944,-9.385c1.895,-3.586 4.97,-8.612 7.508,-12.285c2.372,-3.432 5.016,-6.652 7.737,-9.78c2.797,-3.216 6.092,-6.775 9.088,-9.571c2.827,-2.636 6.077,-5.136 8.974,-7.271c2.708,-1.996 5.519,-3.841 8.401,-5.542c3.292,-1.942 7.733,-4.423 11.477,-6.194c3.615,-1.709 7.333,-3.184 11.101,-4.473c4.262,-1.458 10.004,-3.243 14.625,-4.334c4.349,-1.026 9.359,-1.758 13.201,-2.227c3.292,-0.403 6.612,-0.529 9.925,-0.603c3.812,-0.084 9.194,-0.001 13.245,0.071c3.737,0.067 7.53,0.055 11.208,0.373c3.688,0.319 7.36,0.873 11.004,1.559c4.224,0.796 9.711,1.876 14.47,3.237c4.88,1.395 10.2,3.325 14.815,5.136c4.411,1.731 8.814,3.541 13.009,5.796c4.282,2.301 8.594,5.195 12.744,8.043c4.283,2.938 9.094,6.335 13.019,9.629c3.766,3.161 7.307,6.631 10.668,10.269c3.396,3.676 6.794,7.867 9.807,11.875c2.968,3.947 5.87,7.978 8.346,12.29c2.475,4.308 4.689,9.318 6.521,13.59c1.714,3.994 3.411,8.03 4.546,12.25c1.183,4.397 2.064,9.317 2.51,14.065c0.455,4.855 0.395,10.59 0.29,15.383c-0.098,4.485 -0.438,9.793 -0.918,13.422c-0.401,3.025 -1.154,6.002 -2.087,8.892c-0.881,2.729 -2.204,5.335 -3.298,8.006c-1.12,2.734 -2.193,5.921 -3.441,8.457c-1.216,2.471 -2.708,4.784 -4.227,7.058c-1.857,2.779 -4.781,7.094 -7.081,9.905c-2.101,2.567 -4.483,4.867 -6.876,7.129c-2.689,2.542 -6.558,6.078 -9.433,8.313c-2.436,1.894 -5.202,3.263 -7.716,5.037c-2.437,1.721 -5.375,3.494 -7.646,5.737c-2.359,2.33 -4.221,5.695 -6.207,8.01c-2.221,2.591 -4.266,5.627 -7.219,7.192c-3.619,1.918 -10.773,3.893 -15.371,4.983c-3.937,0.933 -7.986,1.27 -12.008,1.602c-4.105,0.338 -8.802,0.448 -12.987,0.496c-4.003,0.047 -8.036,-0.092 -12.007,-0.197c-3.995,-0.107 -8.003,-0.043 -11.98,-0.45c-4.311,-0.441 -9.455,-1.333 -13.87,-2.203c-4.219,-0.832 -8.602,-1.926 -12.559,-3c-3.762,-1.02 -8.013,-2.355 -11.189,-3.441c-2.683,-0.918 -5.31,-2.012 -7.936,-3.1c-2.934,-1.216 -6.602,-2.737 -9.765,-4.232c-3.163,-1.496 -6.71,-3.295 -9.346,-4.812c-2.276,-1.31 -4.433,-2.846 -6.592,-4.363Zm2.495,-3.994c2.049,1.44 4.091,2.903 6.251,4.146c2.547,1.466 5.975,3.202 9.031,4.647c3.1,1.465 6.695,2.954 9.569,4.146c2.541,1.053 5.083,2.114 7.679,3.002c3.1,1.061 7.25,2.364 10.922,3.36c3.864,1.048 8.145,2.119 12.265,2.931c4.291,0.846 9.289,1.716 13.479,2.144c3.871,0.397 7.771,0.326 11.659,0.429c3.917,0.105 7.896,0.243 11.844,0.197c4.089,-0.048 8.677,-0.152 12.687,-0.483c3.809,-0.314 7.644,-0.617 11.373,-1.501c4.285,-1.015 10.965,-2.806 14.337,-4.593c2.462,-1.304 4.045,-3.97 5.897,-6.13c2.061,-2.403 4.021,-5.873 6.47,-8.292c2.449,-2.418 5.594,-4.364 8.222,-6.219c2.457,-1.735 5.167,-3.062 7.548,-4.913c2.774,-2.156 6.503,-5.573 9.098,-8.026c2.249,-2.126 4.495,-4.279 6.47,-6.692c2.213,-2.704 5.021,-6.861 6.806,-9.535c1.402,-2.098 2.788,-4.225 3.909,-6.505c1.202,-2.442 2.224,-5.516 3.303,-8.149c1.046,-2.554 2.325,-5.04 3.167,-7.649c0.84,-2.602 1.526,-5.282 1.887,-8.006c0.461,-3.479 0.782,-8.568 0.876,-12.867c0.101,-4.611 0.169,-10.127 -0.269,-14.798c-0.419,-4.464 -1.247,-9.09 -2.359,-13.224c-1.074,-3.992 -2.693,-7.803 -4.313,-11.581c-1.764,-4.11 -3.887,-8.936 -6.268,-13.082c-2.378,-4.139 -5.17,-8.005 -8.02,-11.795c-2.92,-3.884 -6.211,-7.946 -9.502,-11.509c-3.228,-3.494 -6.627,-6.829 -10.244,-9.865c-3.819,-3.204 -8.503,-6.505 -12.67,-9.364c-4.017,-2.757 -8.188,-5.564 -12.333,-7.792c-4.041,-2.172 -8.285,-3.908 -12.535,-5.576c-4.493,-1.763 -9.671,-3.645 -14.422,-5.004c-4.633,-1.324 -9.974,-2.371 -14.085,-3.145c-3.503,-0.66 -7.034,-1.195 -10.581,-1.501c-3.583,-0.31 -7.277,-0.292 -10.917,-0.358c-3.999,-0.071 -9.312,-0.154 -13.075,-0.071c-3.171,0.07 -6.35,0.187 -9.502,0.572c-3.707,0.453 -8.541,1.154 -12.737,2.144c-4.493,1.061 -10.076,2.8 -14.22,4.218c-3.614,1.236 -7.181,2.649 -10.648,4.289c-3.628,1.716 -7.93,4.122 -11.12,6.005c-2.751,1.623 -5.435,3.385 -8.02,5.29c-2.765,2.037 -5.87,4.417 -8.568,6.934c-2.887,2.692 -6.058,6.124 -8.752,9.221c-2.606,2.996 -5.141,6.077 -7.413,9.365c-2.437,3.526 -5.392,8.351 -7.211,11.795c-1.49,2.819 -2.548,5.874 -3.707,8.864c-1.205,3.109 -2.625,6.743 -3.523,9.793c-0.819,2.779 -1.439,5.631 -1.868,8.507c-0.514,3.443 -1.045,8.083 -1.213,12.152c-0.169,4.075 -0.169,8.352 0.202,12.296c0.36,3.836 1.146,7.72 2.022,11.366c0.858,3.57 1.982,7.071 3.235,10.508c1.28,3.515 2.709,7.187 4.447,10.58c1.899,3.705 4.965,8.673 6.942,11.652c1.469,2.212 3.315,4.115 4.92,6.219c1.898,2.49 4.106,6.001 6.469,8.721c2.505,2.883 5.673,5.978 8.559,8.578c2.791,2.514 5.79,4.758 8.761,7.025c3.092,2.359 7.116,5.25 9.789,7.129Z"/><path d="M171.116,382.087c23.648,19.569 55.742,31.602 91.068,31.602c70.362,-0 127.9,-47.735 131.424,-107.676c0.073,0.255 0.145,0.511 0.214,0.768c1.112,4.134 1.94,8.76 2.359,13.224c0.438,4.671 0.37,10.187 0.269,14.798c-0.094,4.299 -0.415,9.388 -0.876,12.867c-0.361,2.724 -1.047,5.404 -1.887,8.006c-0.842,2.609 -2.121,5.095 -3.167,7.649c-1.079,2.633 -2.101,5.707 -3.303,8.149c-1.121,2.28 -2.507,4.407 -3.909,6.505c-1.785,2.674 -4.593,6.831 -6.806,9.535c-1.975,2.413 -4.221,4.566 -6.47,6.692c-2.595,2.453 -6.324,5.87 -9.098,8.026c-2.381,1.851 -5.091,3.178 -7.548,4.913c-2.628,1.855 -5.773,3.801 -8.222,6.219c-2.449,2.419 -4.409,5.889 -6.47,8.292c-1.852,2.16 -3.435,4.826 -5.897,6.13c-3.372,1.787 -10.052,3.578 -14.337,4.593c-3.729,0.884 -7.564,1.187 -11.373,1.501c-4.01,0.331 -8.598,0.435 -12.687,0.483c-3.948,0.046 -7.927,-0.092 -11.844,-0.197c-3.888,-0.103 -7.788,-0.032 -11.659,-0.429c-4.19,-0.428 -9.188,-1.298 -13.479,-2.144c-4.12,-0.812 -8.401,-1.883 -12.265,-2.931c-3.672,-0.996 -7.822,-2.299 -10.922,-3.36c-2.596,-0.888 -5.138,-1.949 -7.679,-3.002c-2.874,-1.192 -6.469,-2.681 -9.569,-4.146c-3.056,-1.445 -6.484,-3.181 -9.031,-4.647c-2.16,-1.243 -4.202,-2.706 -6.251,-4.146c-2.673,-1.879 -6.697,-4.77 -9.789,-7.129c-2.971,-2.267 -5.97,-4.511 -8.761,-7.025c-2.886,-2.6 -6.054,-5.695 -8.559,-8.578c-1.206,-1.388 -2.371,-2.982 -3.476,-4.542Z" style="fill-opacity:0.37;"/></g><g id="Schatten6" serif:id="Schatten"></g><g id="Augen"><g id="Auge-Links" serif:id="Auge Links"><ellipse cx="200.8" cy="288.423" rx="19.415" ry="20.664"/><ellipse cx="195.733" cy="276.765" rx="5.068" ry="5.375" style="fill:#fff;"/></g><g id="Auge-Rechts" serif:id="Auge Rechts"><ellipse cx="320.318" cy="307.551" rx="19.415" ry="20.664"/><ellipse cx="315.25" cy="295.892" rx="5.068" ry="5.375" style="fill:#fff;"/></g></g><g id="Mund"><path d="M233.16,301.73c0.143,-1.685 1.55,-2.929 3.138,-2.777c1.589,0.153 2.762,1.644 2.618,3.33c-0.523,6.14 1.568,9.924 4.862,10.776c3.375,0.871 7.381,-1.307 9.976,-6.068c0.588,-1.079 1.735,-1.673 2.899,-1.502c1.165,0.172 2.115,1.075 2.404,2.283c1.478,6.183 3.893,8.994 6.815,9.211c2.106,0.156 4.221,-0.995 5.913,-2.637c1.775,-1.722 3.117,-4.036 3.383,-6.362c0.193,-1.679 1.635,-2.877 3.218,-2.673c1.584,0.204 2.713,1.734 2.52,3.413c-0.422,3.68 -2.41,7.421 -5.22,10.147c-2.893,2.806 -6.617,4.495 -10.218,4.228c-3.692,-0.274 -7.544,-2.528 -10.174,-8.313c-3.931,3.982 -8.806,5.283 -12.884,4.229c-5.481,-1.416 -10.122,-7.068 -9.25,-17.285Z"/></g><g id="Bckchen"><ellipse cx="172.836" cy="319.103" rx="12.689" ry="10.017" style="fill:#fff;"/><path d="M345.671,335.305c6.823,1.677 11.406,7.411 10.23,12.797c-1.177,5.386 -7.671,8.397 -14.494,6.72c-6.822,-1.678 -11.406,-7.412 -10.229,-12.797c1.177,-5.386 7.671,-8.397 14.493,-6.72Z" style="fill:#fff;"/></g><g id="Highlights6" serif:id="Highlights"><path d="M296.91,219.572c-3.051,-0.139 -6.143,-0.143 -9.203,-0.198c-4.557,-0.081 -10.613,-0.176 -14.902,-0.081c-3.615,0.08 -7.238,0.213 -10.831,0.652c-4.224,0.516 -9.735,1.315 -14.518,2.444c-5.121,1.209 -11.483,3.191 -16.207,4.807c-4.119,1.409 -8.185,3.02 -12.137,4.889c-4.135,1.956 -9.039,4.699 -12.675,6.844c-3.135,1.851 -6.194,3.858 -9.141,6.03c-3.151,2.322 -6.691,5.035 -9.766,7.903c-3.29,3.069 -6.904,6.98 -9.975,10.511c-2.97,3.415 -5.86,6.927 -8.45,10.674c-2.778,4.019 -6.145,9.519 -8.219,13.443c-1.698,3.214 -2.904,6.696 -4.225,10.104c-1.373,3.544 -2.992,7.686 -4.016,11.162c-0.933,3.168 -1.64,6.419 -2.129,9.696c-0.585,3.925 -1.191,9.213 -1.382,13.852c-0.116,2.789 -0.162,5.661 -0.089,8.484c-0.163,-0.611 -0.318,-1.224 -0.466,-1.839c-0.876,-3.646 -1.662,-7.53 -2.022,-11.366c-0.371,-3.944 -0.371,-8.221 -0.202,-12.296c0.168,-4.069 0.699,-8.709 1.213,-12.152c0.429,-2.876 1.049,-5.728 1.868,-8.507c0.898,-3.05 2.318,-6.684 3.523,-9.793c1.159,-2.99 2.217,-6.045 3.707,-8.864c1.819,-3.444 4.774,-8.269 7.211,-11.795c2.272,-3.288 4.807,-6.369 7.413,-9.365c2.694,-3.097 5.865,-6.529 8.752,-9.221c2.698,-2.517 5.803,-4.897 8.568,-6.934c2.585,-1.905 5.269,-3.667 8.02,-5.29c3.19,-1.883 7.492,-4.289 11.12,-6.005c3.467,-1.64 7.034,-3.053 10.648,-4.289c4.144,-1.418 9.727,-3.157 14.22,-4.218c4.196,-0.99 9.03,-1.691 12.737,-2.144c3.152,-0.385 6.331,-0.502 9.502,-0.572c3.763,-0.083 9.076,-0 13.075,0.071c3.64,0.066 7.334,0.048 10.917,0.358c3.547,0.306 7.078,0.841 10.581,1.501c2.234,0.421 4.831,0.922 7.48,1.504Z" style="fill:#fff;fill-opacity:0.61;"/></g></g><g id="Echte-Schere" serif:id="Echte Schere"><g id="Griffe"><g id="Substanz7" serif:id="Substanz"><path d="M127.224,159.626c2.272,0.959 -2.124,4.725 -2.643,7.26c-0.624,3.049 1.501,8.572 -1.102,11.03c-3.869,3.654 -15.105,6.527 -22.113,10.89c-8.71,5.422 -19.986,14.777 -30.143,21.641c-10.09,6.819 -22.464,16.266 -30.8,19.547c-6.006,2.364 -13.755,3.351 -19.218,0.139c-5.462,-3.211 -12.11,-12.239 -13.557,-19.407c-1.448,-7.167 1.425,-16.611 4.87,-23.595c3.444,-6.984 9.916,-13.47 15.795,-18.311c5.78,-4.758 13.009,-8.499 19.481,-10.73c6.185,-2.131 12.846,-2.542 19.349,-2.652c6.844,-0.117 15.068,1.28 21.718,1.954c6.068,0.616 12.095,1.74 18.181,2.095c6.394,0.372 17.259,-1.094 20.182,0.139Zm-60.871,7.819c-2.772,-0 -6.974,0.398 -10.315,1.375c-3.977,1.164 -9.458,2.848 -13.549,5.606c-4.424,2.982 -9.646,7.258 -12.991,12.286c-3.965,5.957 -9.609,17.871 -10.794,23.456c-0.744,3.508 0.843,8.095 3.686,10.053c2.939,2.024 9.379,3.232 13.952,2.094c5.608,-1.396 13.508,-6.277 19.696,-10.472c7.372,-4.996 20.442,-14.573 24.531,-19.506c2.094,-2.527 0.392,-6.754 -0,-10.093c-0.395,-3.357 -1.053,-7.815 -2.37,-10.052c-1.125,-1.913 -3.554,-2.58 -5.528,-3.372c-1.974,-0.791 -4.168,-1.375 -6.318,-1.375Z" style="fill:#8cf2f6;"/><path d="M128.336,156.659c1.063,0.448 1.683,1.141 2.068,1.877c0.521,0.995 0.672,2.25 0.18,3.691c-0.292,0.852 -0.909,1.896 -1.625,2.964c-0.554,0.827 -1.285,1.639 -1.435,2.373c-0.339,1.656 0.308,4.114 0.299,6.3c-0.011,2.58 -0.673,4.862 -2.342,6.438c-1.737,1.639 -4.761,3.207 -8.31,4.73c-4.614,1.98 -10.192,3.983 -14.281,6.529c-8.683,5.405 -19.922,14.736 -30.049,21.58c-10.269,6.94 -22.887,16.508 -31.371,19.847c-6.789,2.672 -15.55,3.569 -21.725,-0.061c-6.06,-3.563 -13.435,-13.58 -15.042,-21.531c-1.577,-7.809 1.394,-18.136 5.147,-25.745c3.632,-7.367 10.416,-14.249 16.617,-19.354c6.053,-4.983 13.619,-8.908 20.396,-11.244c6.469,-2.229 13.431,-2.693 20.231,-2.809c6.95,-0.118 15.302,1.284 22.054,1.969c6.028,0.612 12.013,1.733 18.059,2.085c4.432,0.258 11.032,-0.385 15.586,-0.369c2.466,0.008 4.446,0.267 5.543,0.73Zm-1.112,2.967c-2.923,-1.233 -13.788,0.233 -20.182,-0.139c-6.086,-0.355 -12.113,-1.479 -18.181,-2.095c-6.65,-0.674 -14.874,-2.071 -21.718,-1.954c-6.503,0.11 -13.164,0.521 -19.349,2.652c-6.472,2.231 -13.701,5.972 -19.481,10.73c-5.879,4.841 -12.351,11.327 -15.795,18.311c-3.445,6.984 -6.318,16.428 -4.87,23.595c1.447,7.168 8.095,16.196 13.557,19.407c5.463,3.212 13.212,2.225 19.218,-0.139c8.336,-3.281 20.71,-12.728 30.8,-19.547c10.157,-6.864 21.433,-16.219 30.143,-21.641c7.008,-4.363 18.244,-7.236 22.113,-10.89c2.603,-2.458 0.478,-7.981 1.102,-11.03c0.519,-2.535 4.915,-6.301 2.643,-7.26Zm-60.871,7.819c2.15,-0 4.344,0.584 6.318,1.375c1.974,0.792 4.403,1.459 5.528,3.372c1.317,2.237 1.975,6.695 2.37,10.052c0.392,3.339 2.094,7.566 -0,10.093c-4.089,4.933 -17.159,14.51 -24.531,19.506c-6.188,4.195 -14.088,9.076 -19.696,10.472c-4.573,1.138 -11.013,-0.07 -13.952,-2.094c-2.843,-1.958 -4.43,-6.545 -3.686,-10.053c1.185,-5.585 6.829,-17.499 10.794,-23.456c3.345,-5.028 8.567,-9.304 12.991,-12.286c4.091,-2.758 9.572,-4.442 13.549,-5.606c3.341,-0.977 7.543,-1.375 10.315,-1.375Zm-0,3.194c-2.557,-0 -6.433,0.359 -9.514,1.26c-3.734,1.093 -8.894,2.633 -12.735,5.222c-4.127,2.782 -9.025,6.742 -12.147,11.433c-3.774,5.672 -9.187,16.997 -10.315,22.315c-0.493,2.321 0.506,5.377 2.387,6.673c2.447,1.685 7.819,2.611 11.625,1.663c5.351,-1.332 12.859,-6.051 18.763,-10.053c7.169,-4.859 19.914,-14.126 23.89,-18.923c0.485,-0.586 0.305,-1.405 0.207,-2.235c-0.213,-1.791 -0.737,-3.684 -0.933,-5.354c-0.343,-2.915 -0.794,-6.815 -1.936,-8.757c-0.263,-0.447 -0.727,-0.681 -1.191,-0.916c-0.918,-0.466 -1.936,-0.794 -2.847,-1.159c-1.643,-0.658 -3.465,-1.169 -5.254,-1.169Z"/><path d="M123.479,183.501c2.285,5.478 8.947,10.625 21.06,15.358c0,-0 -11.539,21.524 -15.269,30.856c-3.218,8.052 -3.009,17.542 -7.107,25.131c-4.827,8.935 -12.461,22.641 -21.85,28.482c-9.39,5.841 -25.229,9.191 -34.487,6.562c-9.257,-2.629 -17.813,-15.585 -21.06,-22.333c-2.604,-5.414 -0.066,-14.214 1.58,-18.156c1.319,-3.162 5.516,-3.685 8.292,-5.496c7.525,-4.91 27.598,-16.875 36.856,-23.964c6.921,-5.3 13.36,-12.496 18.691,-18.569c4.874,-5.554 13.294,-17.871 13.294,-17.871Zm-63.839,86.284c2.764,1.582 10.51,7.005 15.795,5.305c7.744,-2.489 24.066,-12.542 30.669,-20.244c5.846,-6.819 7.768,-20.245 8.951,-25.969c0.579,-2.802 0.748,-9.157 -1.855,-8.377c-3.027,0.907 -10.995,9.057 -16.31,13.822c-6.93,6.213 -18.932,18.243 -25.272,23.456c-3.884,3.193 -10.771,5.817 -12.768,7.818c-0.975,0.978 -0.391,3.513 0.79,4.189Z" style="fill:#8cf2f6;"/><path d="M126.232,182.209c2.078,4.981 8.334,9.349 19.348,13.653c0.83,0.324 1.484,1.019 1.787,1.901c0.304,0.881 0.227,1.859 -0.21,2.675c-0,-0 -11.425,21.291 -15.114,30.523c-1.535,3.839 -2.228,8.027 -3.05,12.153c-0.928,4.657 -2.013,9.237 -4.218,13.32c-5.041,9.333 -13.132,23.548 -22.939,29.649c-10.011,6.228 -26.917,9.695 -36.788,6.892c-4.158,-1.18 -8.228,-4.151 -11.803,-7.853c-5.036,-5.217 -9.106,-11.844 -11.161,-16.114c-1.28,-2.659 -1.628,-5.972 -1.361,-9.316c0.358,-4.477 1.787,-8.99 2.869,-11.584c0.802,-1.921 2.231,-3.277 4.013,-4.297c1.712,-0.979 3.836,-1.569 5.456,-2.626c7.486,-4.885 27.46,-16.781 36.67,-23.833c6.763,-5.178 13.041,-12.222 18.25,-18.156c4.791,-5.459 13.06,-17.57 13.06,-17.57c0.633,-0.925 1.683,-1.421 2.755,-1.301c1.071,0.12 2,0.838 2.436,1.884Zm-2.753,1.292c-0,-0 -8.42,12.317 -13.294,17.871c-5.331,6.073 -11.77,13.269 -18.691,18.569c-9.258,7.089 -29.331,19.054 -36.856,23.964c-2.776,1.811 -6.973,2.334 -8.292,5.496c-1.646,3.942 -4.184,12.742 -1.58,18.156c3.247,6.748 11.803,19.704 21.06,22.333c9.258,2.629 25.097,-0.721 34.487,-6.562c9.389,-5.841 17.023,-19.547 21.85,-28.482c4.098,-7.589 3.889,-17.079 7.107,-25.131c3.73,-9.332 15.269,-30.856 15.269,-30.856c-12.113,-4.733 -18.775,-9.88 -21.06,-15.358Zm-63.839,86.284c-1.181,-0.676 -1.765,-3.211 -0.79,-4.189c1.997,-2.001 8.884,-4.625 12.768,-7.818c6.34,-5.213 18.342,-17.243 25.272,-23.456c5.315,-4.765 13.283,-12.915 16.31,-13.822c2.603,-0.78 2.434,5.575 1.855,8.377c-1.183,5.724 -3.105,19.15 -8.951,25.969c-6.603,7.702 -22.925,17.755 -30.669,20.244c-5.285,1.7 -13.031,-3.723 -15.795,-5.305Zm2.023,-2.459c1.722,1.042 4.646,2.934 7.717,4.071c1.788,0.662 3.623,1.138 5.182,0.637c7.4,-2.379 23.004,-11.976 29.315,-19.337c5.5,-6.416 7.124,-19.118 8.237,-24.504c0.16,-0.776 0.154,-2.316 0.116,-3.549c-0.77,0.589 -1.663,1.364 -2.642,2.213c-3.447,2.991 -7.576,7.055 -10.754,9.904c-6.957,6.237 -19.007,18.309 -25.371,23.541c-2.468,2.028 -6.065,3.866 -9.016,5.448c-1.083,0.58 -2.067,1.092 -2.784,1.576Z"/></g><g id="Schatten7" serif:id="Schatten" opacity="0.4"><path d="M94.126,183.575l26.062,-14.137l3.291,9.037l-32.873,16.195l3.52,-11.095Z"/><path d="M94.126,183.575l26.062,-14.137l3.291,9.037l-32.873,16.195l3.52,-11.095Zm0.949,0.868l-2.507,7.904l29.437,-14.503l-2.435,-6.688l-24.495,13.287Z"/><path d="M56.613,258.616c7.9,-8.424 41.04,-35.604 50.429,-41.886c2.005,-1.341 7.377,2.226 5.907,4.197c-4.654,6.236 -25.514,25.729 -33.828,33.221c-4.953,4.463 -12.812,9.54 -16.059,11.728c-1.031,0.695 -2.584,2.339 -3.422,1.396c-1.075,-1.21 -5.074,-6.475 -3.027,-8.656Z"/><path d="M43.713,260.012c0,-0 5.483,10.743 9.741,14.66c8.97,8.252 28.692,8.162 41.725,1.117c12.042,-6.511 22.944,-20.874 24.483,-37.837c1.45,-15.99 18.978,-43.749 20.007,-43.282l6.318,3.77c0,0 -1.364,5.018 -2.578,7.26c-1.623,3 -5.243,6.853 -7.162,10.736c-2.094,4.235 -3.867,9.681 -5.397,14.675c-1.755,5.727 -3.071,13.915 -5.133,19.686c-1.871,5.235 -4.44,10.541 -7.24,14.939c-2.69,4.225 -6.425,8.144 -9.562,11.449c-2.879,3.032 -5.695,6.325 -9.261,8.377c-4.285,2.466 -11.341,5.236 -16.453,6.422c-4.634,1.076 -9.688,1.606 -14.216,0.698c-4.527,-0.907 -9.305,-3.583 -12.947,-6.143c-3.456,-2.429 -6.651,-5.538 -8.903,-9.215c-2.251,-3.676 -4.036,-9.959 -4.606,-12.845c-0.3,-1.514 1.184,-4.467 1.184,-4.467Z"/></g><g id="Highlights7" serif:id="Highlights" opacity="0.7"><path d="M124.962,163.28c1.053,-1.178 3.159,-3.533 1.841,-3.789c-3.696,-0.719 -16.03,0.043 -24.022,-0.523c-9.844,-0.699 -25.009,-3.724 -35.045,-3.665c-8.486,0.049 -17.633,1.018 -25.174,4.014c-7.493,2.976 -15.411,9.918 -20.073,13.961c-3.229,2.801 -9.844,10.297 -7.897,10.297c1.947,0 13.985,-7.242 19.579,-10.297c4.713,-2.573 9.104,-6.124 13.985,-8.028c4.882,-1.903 10.097,-3.139 15.302,-3.392c6.773,-0.328 16.882,1.226 25.338,1.422c10.251,0.237 27.527,0.079 36.166,-0" style="fill:#fff;"/><path d="M123.57,183.575l3.654,4.513c-0,-0 -8.765,11.24 -13.419,16.604c-5.429,6.259 -23.199,16.231 -23.199,16.231c0.494,0.419 35.408,-37.076 32.964,-37.348Z" style="fill:#fff;"/></g></g><g id="Schneiden"><g id="Substanz8" serif:id="Substanz"><path d="M185.666,31.194l-25.007,112.686l-21.85,8.097c11.629,-58.037 26.452,-101.841 46.857,-120.783Z" style="fill:#cecece;"/><path d="M188.489,31.899l-25.006,112.686c-0.227,1.023 -0.931,1.853 -1.867,2.2l-21.85,8.098c-0.989,0.366 -2.088,0.138 -2.874,-0.596c-0.786,-0.735 -1.138,-1.862 -0.92,-2.949c11.799,-58.893 27.078,-103.239 47.783,-122.46c0.949,-0.881 2.325,-1.011 3.406,-0.321c1.08,0.689 1.617,2.04 1.328,3.342Zm-2.823,-0.705c-20.405,18.942 -35.228,62.746 -46.857,120.783l21.85,-8.097l25.007,-112.686Z"/><path d="M164.345,146.239l-9.612,32.824c67.454,-24.9 97.129,-50.938 115.045,-77.329l-105.433,44.505Z" style="fill:#c8d4d4;"/><path d="M163.272,143.38l105.433,-44.505c1.198,-0.506 2.567,-0.113 3.36,0.965c0.793,1.078 0.82,2.582 0.067,3.692c-18.145,26.729 -48.129,53.218 -116.445,78.438c-1.034,0.381 -2.183,0.113 -2.97,-0.694c-0.787,-0.808 -1.079,-2.016 -0.754,-3.125l9.611,-32.825c0.26,-0.887 0.884,-1.602 1.698,-1.946Zm1.073,2.859l-9.612,32.824c67.454,-24.9 97.129,-50.938 115.045,-77.329l-105.433,44.505Z"/><path d="M162.237,145.304c-10.759,41.508 -14.928,58.068 -33.431,39.428c-13.415,-23.229 7.123,-28.004 33.431,-39.428Z" style="fill:#c8d4d4;"/><path d="M165.035,146.12c-4.362,16.827 -7.678,29.602 -11.26,37.673c-3.219,7.254 -6.969,10.974 -11.263,11.541c-4.108,0.543 -9.254,-1.873 -15.704,-8.371c-0.184,-0.185 -0.344,-0.395 -0.476,-0.624c-4.629,-8.016 -5.477,-14.185 -3.952,-19.16c1.523,-4.966 5.534,-8.955 11.452,-12.442c6.954,-4.095 16.66,-7.658 27.306,-12.281c1.024,-0.445 2.196,-0.233 3.024,0.545c0.827,0.778 1.166,1.988 0.873,3.119Zm-2.798,-0.816c-26.308,11.424 -46.846,16.199 -33.431,39.428c18.503,18.64 22.672,2.08 33.431,-39.428Z"/><path d="M133.123,165.409c1.071,-1.49 2.931,-2.923 4.633,-3.351c1.703,-0.428 4.054,-0.168 5.581,0.782c1.527,0.949 3.142,3.109 3.581,4.914c0.438,1.806 -0.123,4.226 -0.948,5.92c-0.825,1.694 -2.58,3.463 -4.002,4.245c-1.345,0.74 -3.053,0.819 -4.528,0.446c-1.474,-0.372 -3.299,-1.452 -4.317,-2.68c-1.018,-1.229 -1.79,-3.005 -1.79,-4.692c-0,-1.712 0.72,-4.095 1.79,-5.584Z" style="fill:#8cf2f6;"/><path d="M133.123,165.409c1.071,-1.49 2.931,-2.923 4.633,-3.351c1.703,-0.428 4.054,-0.168 5.581,0.782c1.527,0.949 3.142,3.109 3.581,4.914c0.438,1.806 -0.123,4.226 -0.948,5.92c-0.825,1.694 -2.58,3.463 -4.002,4.245c-1.345,0.74 -3.053,0.819 -4.528,0.446c-1.474,-0.372 -3.299,-1.452 -4.317,-2.68c-1.018,-1.229 -1.79,-3.005 -1.79,-4.692c-0,-1.712 0.72,-4.095 1.79,-5.584Zm0.923,0.746c-0.928,1.29 -1.553,3.355 -1.553,4.838c0,1.398 0.658,2.861 1.502,3.879c0.875,1.056 2.447,1.976 3.714,2.296c1.212,0.306 2.619,0.266 3.725,-0.342c1.245,-0.685 2.782,-2.233 3.505,-3.717c0.704,-1.447 1.23,-3.505 0.855,-5.047c-0.372,-1.531 -1.749,-3.355 -3.044,-4.16c-1.292,-0.804 -3.285,-1.009 -4.726,-0.646c-1.465,0.368 -3.057,1.617 -3.978,2.899Z"/></g><g id="Schatten8" serif:id="Schatten" opacity="0.4"><path d="M268.722,103.237c-30.303,28.487 -64.235,52.541 -106.124,66.877c1.476,-7.865 2.47,-15.731 1.481,-23.596l-9.346,33.928c64.231,-22.97 98.202,-50.144 113.989,-77.209Z"/><path d="M271.189,104.856c-16.015,27.456 -50.37,55.204 -115.529,78.506c-1.024,0.366 -2.156,0.098 -2.936,-0.696c-0.78,-0.795 -1.079,-1.983 -0.775,-3.083l9.345,-33.928c0.385,-1.395 1.638,-2.315 3.005,-2.205c1.367,0.11 2.474,1.22 2.655,2.662c0.815,6.479 0.36,12.96 -0.627,19.441c39.372,-14.354 71.582,-37.461 100.471,-64.619c1.077,-1.013 2.692,-1.035 3.793,-0.051c1.101,0.983 1.356,2.674 0.598,3.973Zm-2.467,-1.619c-30.303,28.487 -64.235,52.541 -106.124,66.877c1.476,-7.865 2.47,-15.731 1.481,-23.596l-9.346,33.928c64.231,-22.97 98.202,-50.144 113.989,-77.209Z" style="fill:none;"/><path d="M153.68,146.239l7.424,-1.955l24.562,-113.09c-10.65,32.249 -22.409,64.971 -31.986,115.045Z"/><path d="M150.837,145.627c9.611,-50.25 21.403,-83.088 32.091,-115.451c0.509,-1.541 2.065,-2.392 3.544,-1.938c1.479,0.454 2.366,2.055 2.021,3.646l-24.562,113.091c-0.245,1.13 -1.067,2.017 -2.128,2.296l-7.424,1.955c-0.966,0.254 -1.987,-0.034 -2.705,-0.765c-0.719,-0.73 -1.035,-1.799 -0.837,-2.834Zm2.843,0.612l7.424,-1.955l24.562,-113.09c-10.65,32.249 -22.409,64.971 -31.986,115.045Z" style="fill:none;"/><path d="M139.844,192.337c4.581,-1.887 11.556,-20.488 20.97,-40.36c0,0 -7.458,27.864 -10.293,34.053c-3.992,8.717 -10.677,6.307 -10.677,6.307Z"/><path d="M138.794,189.469c0.351,-0.145 0.665,-0.559 1.071,-1.061c0.711,-0.878 1.462,-2.051 2.269,-3.461c4.189,-7.321 9.54,-20.529 16.088,-34.351c0.672,-1.418 2.25,-2.062 3.645,-1.486c1.394,0.575 2.147,2.181 1.738,3.708c0,0 -7.597,28.274 -10.474,34.557c-2.02,4.411 -4.659,6.494 -7.01,7.496c-3.868,1.649 -7.211,0.38 -7.211,0.38c-1.154,-0.416 -1.94,-1.555 -1.967,-2.848c-0.026,-1.293 0.714,-2.466 1.851,-2.934Zm1.05,2.868c-0,0 6.685,2.41 10.677,-6.307c2.835,-6.189 10.293,-34.053 10.293,-34.053c-9.414,19.872 -16.389,38.473 -20.97,40.36Z" style="fill:none;"/></g><g id="Highlights8" serif:id="Highlights" opacity="0.7"><path d="M138.905,150.777c0.795,-5.905 5.594,-25.335 8.72,-37.174c3.009,-11.392 6.609,-24.171 10.037,-33.857c2.949,-8.334 6.389,-16.667 10.53,-24.259c4.115,-7.545 18.67,-28.684 14.314,-21.292c-11.441,19.42 -36.626,97.656 -39.652,114.836c-0.262,1.487 -4.151,3.243 -3.949,1.746Z" style="fill:#fff;"/><path d="M164.243,146.937c1.3,0.46 104.62,-45.554 104.479,-45.201c-3.594,9.008 -92.505,46.357 -106.124,51.659l1.645,-6.458Z" style="fill:#fff;"/><path d="M163.837,143.89c0.548,-0.21 4.275,-1.646 8.752,-3.539c22.581,-9.547 78.868,-34.52 92.182,-40.273c1.846,-0.797 2.953,-1.246 3.144,-1.303c2.635,-0.78 3.518,1.802 3.609,2.161c0.142,0.562 0.174,1.237 -0.13,1.999c-0.335,0.839 -1.07,1.904 -2.305,3.04c-1.959,1.803 -5.471,4.14 -10.098,6.791c-25.138,14.401 -84.454,39.259 -95.394,43.517c-1.018,0.397 -2.159,0.158 -2.959,-0.619c-0.799,-0.777 -1.124,-1.962 -0.841,-3.072l1.646,-6.458c0.208,-0.817 0.725,-1.508 1.428,-1.908c0.304,-0.173 0.632,-0.286 0.966,-0.336Zm0.406,3.047l-1.645,6.458c13.619,-5.302 102.53,-42.651 106.124,-51.659c0.141,-0.353 -103.179,45.661 -104.479,45.201Z" style="fill:none;"/><path d="M125.775,178.91c2.019,-2.09 4.152,-10.287 6.39,-13.424c1.747,-2.448 4.759,-4.51 7.037,-5.396c4.202,-1.636 17.135,-10.882 16.926,-12.427c-0.186,-0.396 -18.091,8.104 -22.955,11.226c-3.079,1.976 -6.507,5.431 -7.74,8.768c-1.233,3.336 0.342,11.253 0.342,11.253Z" style="fill:#fff;"/><path d="M122.937,179.545c-0,0 -0.831,-4.194 -0.875,-7.948c-0.022,-1.934 0.189,-3.762 0.67,-5.063c1.435,-3.885 5.354,-7.978 8.939,-10.278c4.488,-2.881 19.805,-10.227 22.963,-11.371c1.385,-0.502 2.309,-0.192 2.527,-0.103c0.814,0.333 1.28,0.905 1.562,1.505c0.14,0.296 0.233,0.614 0.277,0.941c0.068,0.5 0.046,1.112 -0.216,1.802c-0.218,0.578 -0.857,1.558 -1.984,2.642c-3.538,3.401 -13.037,9.92 -16.599,11.307c-1.849,0.719 -4.305,2.377 -5.723,4.364c-1.24,1.738 -2.393,5.185 -3.562,8.06c-1.029,2.533 -2.129,4.689 -3.114,5.709c-0.757,0.784 -1.857,1.068 -2.869,0.742c-1.013,-0.326 -1.778,-1.211 -1.996,-2.309Zm2.838,-0.635c2.019,-2.09 4.152,-10.287 6.39,-13.424c1.747,-2.448 4.759,-4.51 7.037,-5.396c4.202,-1.636 17.135,-10.882 16.926,-12.427c-0.186,-0.396 -18.091,8.104 -22.955,11.226c-3.079,1.976 -6.507,5.431 -7.74,8.768c-1.233,3.336 0.342,11.253 0.342,11.253Z" style="fill:none;"/><path d="M134.597,170.1c0.123,0.91 1.353,1.579 2.212,1.452c0.877,-0.13 2.281,-1.415 3.053,-2.234c0.703,-0.745 1.492,-1.917 1.58,-2.681c0.084,-0.729 -0.379,-1.733 -1.053,-1.898c-0.913,-0.224 -3.457,-0.336 -4.423,0.558c-0.965,0.894 -1.509,3.76 -1.369,4.803Z" style="fill:#fff;"/></g></g></g><g id="Schere-links--top-" serif:id="Schere links (top)"><g id="Substanz9" serif:id="Substanz"><path d="M59.421,249.095c3.931,0.801 8.554,-1.303 12.004,-3.797c3.528,-2.551 6.776,-7.169 9.161,-11.505c2.51,-4.561 4.107,-10.504 5.897,-15.86c1.86,-5.566 4.342,-11.48 5.265,-17.536c0.965,-6.33 1.597,-15.916 0.527,-20.44c-0.763,-3.223 -3.906,-5.929 -6.95,-6.708c-3.493,-0.894 -9.749,-0.736 -14.005,1.346c-4.721,2.31 -10.408,7.614 -14.321,12.51c-3.914,4.896 -7.112,10.753 -9.162,16.866c-2.106,6.278 -3.474,14.718 -3.474,20.805c-0,5.382 0.964,11.666 3.474,15.719c2.51,4.053 7.652,7.8 11.584,8.6Z" style="fill:#ff4e43;"/><path d="M58.853,252.232c-4.583,-0.933 -10.607,-5.258 -13.533,-9.984c-2.793,-4.512 -3.968,-11.481 -3.968,-17.472c-0,-6.4 1.434,-15.274 3.648,-21.876c2.172,-6.473 5.558,-12.676 9.702,-17.861c4.188,-5.239 10.305,-10.873 15.357,-13.344c4.855,-2.375 11.988,-2.57 15.972,-1.551c4.054,1.038 8.149,4.744 9.164,9.035c1.138,4.809 0.551,15 -0.475,21.728c-0.952,6.244 -3.481,12.353 -5.399,18.093c-1.853,5.544 -3.537,11.683 -6.134,16.403c-2.609,4.74 -6.209,9.746 -10.066,12.534c-4.085,2.953 -9.613,5.243 -14.268,4.295Zm0.568,-3.137c3.931,0.801 8.554,-1.303 12.004,-3.797c3.528,-2.551 6.776,-7.169 9.161,-11.505c2.51,-4.561 4.107,-10.504 5.897,-15.86c1.86,-5.566 4.342,-11.48 5.265,-17.536c0.965,-6.33 1.597,-15.916 0.527,-20.44c-0.763,-3.223 -3.906,-5.929 -6.95,-6.708c-3.493,-0.894 -9.749,-0.736 -14.005,1.346c-4.721,2.31 -10.408,7.614 -14.321,12.51c-3.914,4.896 -7.112,10.753 -9.162,16.866c-2.106,6.278 -3.474,14.718 -3.474,20.805c-0,5.382 0.964,11.666 3.474,15.719c2.51,4.053 7.652,7.8 11.584,8.6Z"/></g><g id="Schatten9" serif:id="Schatten" opacity="0.4"><path d="M44.257,226.868c8.492,30.057 47.233,4.023 42.858,-52.273c-0,0 4.282,2.091 5.37,4.133c1.141,2.141 1.511,5.762 1.474,8.712c-0.052,4.3 -0.842,11.747 -1.79,17.089c-0.902,5.087 -2.565,10.388 -3.896,14.967c-1.225,4.218 -2.227,8.638 -4.087,12.51c-1.86,3.872 -4.228,7.763 -7.075,10.723c-2.846,2.96 -6.897,5.603 -10.003,7.037c-2.678,1.235 -5.775,2.188 -8.635,1.563c-2.896,-0.633 -6.301,-2.978 -8.74,-5.361c-2.44,-2.383 -4.984,-5.752 -5.897,-8.936c-0.913,-3.183 0.421,-10.164 0.421,-10.164Z"/></g><g id="Highlights9" serif:id="Highlights" opacity="0.7"><path d="M83.219,173.255c-26.797,-0.542 -35.458,36.855 -35.382,45.683c0.069,7.881 10.251,7.576 10.741,0.335c1.481,-21.887 14.026,-38.538 21.785,-41.986c4.355,-1.935 4.499,-3.999 2.856,-4.032Z" style="fill:#fff;"/></g></g></g></g></svg>